<?xml version="1.0" encoding="utf-8"?>
<!-- Generator: Adobe Illustrator 27.5.0, SVG Export Plug-In . SVG Version: 6.00 Build 0)  -->
<svg version="1.1" xmlns="http://www.w3.org/2000/svg" xmlns:xlink="http://www.w3.org/1999/xlink" x="0px" y="0px"
	 viewBox="0 0 750 500" style="enable-background:new 0 0 750 500;" xml:space="preserve">
<g id="BACKGROUND">
</g>
<g id="OBJECTS">
	<g>
		<g>
			<g>
				<path style="fill:#352C38;" d="M566.11,176.805c0,0,2.75,21.75-7.75,30.75c-11.546,9.897-21.328,48.707,20.761,59.386
					c42.089,10.679,90.541,14.848,93.239-42.886c2.5-53.5-8.75-69.5-21.625-82.124C638.616,130.048,566.11,176.805,566.11,176.805z"
					/>
				<g>
					<g>
						<path style="fill:#F29083;" d="M572.211,197.84c0,0,1.256,17.589,16.333,15.077
							C603.621,210.404,584.147,190.93,572.211,197.84z"/>
						<path style="fill:#F29083;" d="M659.854,182.2c0,0,11.107,13.697-1.615,22.169C645.518,212.841,646.419,185.315,659.854,182.2
							z"/>
					</g>
					<g>
						<path style="fill:#FFAC9D;" d="M608.646,140.675c0,0-36.435,8.166-33.294,40.204c3.923,40.017,32.038,61.563,52.768,59.678
							c20.73-1.885,31.122-37.531,26.384-65.96C651.363,155.751,639.428,136.906,608.646,140.675z"/>
						<g>
							<path style="fill:#D15A5A;" d="M575.352,180.879c0,0,0.085,0.64,0.245,1.839c0.086,0.599,0.164,1.342,0.309,2.206
								c0.151,0.863,0.324,1.855,0.519,2.966c0.219,1.106,0.5,2.323,0.784,3.651c0.354,1.312,0.679,2.745,1.145,4.243
								c0.863,3.016,2.089,6.342,3.626,9.872c1.558,3.522,3.528,7.216,5.996,10.867c2.458,3.655,5.429,7.255,8.909,10.554
								c1.729,1.66,3.604,3.225,5.602,4.665c1.984,1.46,4.113,2.771,6.345,3.915c4.446,2.309,9.384,3.906,14.436,4.286
								c2.527,0.188,5.058,0.132,7.504-0.465c2.386-0.579,4.681-1.688,6.689-3.122c4.047-2.891,7.075-6.945,9.364-11.125
								c2.315-4.192,3.937-8.575,5.194-12.795c1.213-4.24,2.016-8.348,2.533-12.169c1.008-7.649,1.016-14.123,0.697-18.619
								c-0.066-1.126-0.148-2.13-0.246-3.001c-0.083-0.873-0.161-1.614-0.25-2.213c-0.161-1.199-0.246-1.838-0.246-1.838
								s0.104,0.637,0.3,1.831c0.107,0.596,0.207,1.336,0.315,2.207c0.124,0.869,0.236,1.872,0.335,2.998
								c0.22,2.25,0.386,4.995,0.389,8.148c0.012,3.152-0.135,6.716-0.601,10.575c-0.457,3.858-1.198,8.016-2.354,12.326
								c-1.201,4.291-2.758,8.776-5.121,13.067c-2.319,4.283-5.401,8.485-9.635,11.55c-2.115,1.522-4.498,2.705-7.106,3.353
								c-2.551,0.634-5.247,0.717-7.855,0.528c-5.253-0.425-10.327-2.105-14.872-4.495c-2.282-1.185-4.452-2.539-6.47-4.04
								c-2.033-1.482-3.936-3.088-5.688-4.788c-3.543-3.366-6.486-7.091-8.917-10.833c-2.44-3.741-4.369-7.509-5.883-11.089
								c-1.51-3.583-2.641-6.971-3.417-10.029c-0.424-1.519-0.708-2.969-1.025-4.294c-0.246-1.342-0.492-2.569-0.679-3.684
								c-0.162-1.119-0.307-2.118-0.433-2.987c-0.119-0.869-0.175-1.614-0.244-2.215
								C575.419,181.521,575.352,180.879,575.352,180.879z"/>
						</g>
					</g>
				</g>
				<g>
					<path style="fill:#352C38;" d="M605.363,146.747c0,0,10.169,44.743,60.336,39.998c0,0,4.068-55.59-43.388-54.234
						c-47.455,1.356-64.403,18.982-52.879,68.471C569.432,200.981,608.752,196.236,605.363,146.747z"/>
					<path style="fill:#352C38;" d="M605.505,142.559c0,0,1.884,41.461,42.089,48.371"/>
				</g>
			</g>
			<g>
				<g>
					<path style="fill:#1C171E;" d="M591.308,198.931c0,0,0.153,0.404,0.439,1.096c0.274,0.695,0.728,1.664,1.321,2.778
						c0.605,1.099,1.377,2.369,2.459,3.39c0.533,0.516,1.176,0.9,1.847,1.115c0.677,0.209,1.408,0.165,2.114-0.069l0.067-0.019
						l0.017-0.005c-0.025,0.01,0.067-0.026-0.053,0.022l0.009-0.004l0.036-0.016l0.146-0.066l0.292-0.132
						c0.19-0.09,0.401-0.172,0.573-0.267c0.268-0.236,0.577-0.369,0.829-0.656c0.254-0.274,0.531-0.524,0.727-0.849
						c0.105-0.155,0.221-0.301,0.318-0.46l0.254-0.501c0.659-1.342,0.944-2.791,1.108-4.034c0.148-1.249,0.204-2.317,0.194-3.063
						c0.001-0.747-0.016-1.18-0.016-1.18s0.134,0.411,0.275,1.155c0.125,0.744,0.315,1.819,0.313,3.134
						c0,0.657-0.035,1.374-0.154,2.129c-0.128,0.753-0.296,1.558-0.648,2.345l-0.264,0.596c-0.104,0.194-0.231,0.381-0.348,0.574
						c-0.213,0.4-0.539,0.736-0.859,1.078c-0.303,0.351-0.77,0.617-1.162,0.916c-0.198,0.112-0.387,0.188-0.582,0.284l-0.29,0.137
						l-0.145,0.069l-0.036,0.017l-0.081,0.033l-0.022,0.007l-0.088,0.025c-0.917,0.292-1.975,0.34-2.908,0.029
						c-0.934-0.305-1.697-0.887-2.289-1.511c-1.186-1.268-1.852-2.69-2.328-3.906c-0.476-1.222-0.708-2.285-0.874-3.021
						C591.346,199.362,591.308,198.931,591.308,198.931z"/>
				</g>
				<g>
					<path style="fill:#1C171E;" d="M624.685,192.35c0,0,0.153,0.404,0.439,1.096c0.274,0.695,0.728,1.664,1.321,2.778
						c0.605,1.099,1.377,2.369,2.459,3.39c0.533,0.516,1.176,0.9,1.847,1.115c0.677,0.209,1.408,0.165,2.114-0.069l0.067-0.019
						l0.017-0.005c-0.024,0.01,0.067-0.026-0.053,0.023l0.009-0.004l0.037-0.016l0.146-0.066l0.292-0.132
						c0.19-0.09,0.401-0.172,0.573-0.267c0.268-0.236,0.577-0.369,0.829-0.656c0.254-0.274,0.531-0.524,0.727-0.849
						c0.105-0.155,0.221-0.301,0.318-0.46l0.254-0.501c0.659-1.342,0.944-2.791,1.108-4.034c0.148-1.249,0.204-2.317,0.194-3.063
						c0.001-0.747-0.016-1.18-0.016-1.18s0.134,0.411,0.275,1.155c0.125,0.743,0.315,1.818,0.313,3.134
						c0,0.657-0.035,1.374-0.154,2.129c-0.128,0.753-0.296,1.558-0.648,2.345l-0.264,0.596c-0.104,0.194-0.231,0.381-0.348,0.573
						c-0.213,0.401-0.539,0.736-0.859,1.078c-0.303,0.351-0.77,0.617-1.162,0.916c-0.198,0.112-0.387,0.188-0.582,0.284l-0.29,0.137
						l-0.145,0.069l-0.036,0.017l-0.081,0.033l-0.022,0.007l-0.088,0.025c-0.917,0.292-1.975,0.34-2.908,0.029
						c-0.934-0.305-1.697-0.887-2.289-1.511c-1.186-1.268-1.852-2.69-2.328-3.906c-0.476-1.222-0.708-2.285-0.875-3.021
						C624.723,192.781,624.685,192.35,624.685,192.35z"/>
				</g>
				<g>
					<path style="fill:#D15A5A;" d="M611.311,198.357c-0.079,2.142-0.375,4.237-0.74,6.318c-0.19,1.039-0.386,2.076-0.624,3.105
						c-0.224,1.032-0.483,2.056-0.753,3.078l-0.261-0.574c2.323,1.407,4.631,2.841,6.86,4.419c-2.517-1.059-4.954-2.261-7.376-3.49
						l-0.328-0.166l0.066-0.408c0.169-1.043,0.349-2.084,0.565-3.118c0.202-1.036,0.445-2.064,0.695-3.09
						C609.928,202.38,610.511,200.346,611.311,198.357z"/>
				</g>
				<g>
					<path style="fill:#D15A5A;" d="M610.783,220.898c0,0,0.356,0.117,0.983,0.283c0.31,0.092,0.694,0.178,1.129,0.287
						c0.433,0.115,0.935,0.191,1.466,0.317c0.544,0.073,1.122,0.203,1.743,0.263c0.619,0.079,1.27,0.135,1.943,0.155
						c0.673,0.069,1.363-0.022,2.064-0.023c0.35-0.011,0.695-0.086,1.045-0.125c0.347-0.056,0.706-0.07,1.04-0.184
						c0.68-0.175,1.377-0.309,1.998-0.617c0.315-0.14,0.643-0.249,0.948-0.393c0.292-0.173,0.579-0.344,0.863-0.512
						c0.594-0.301,1.067-0.737,1.544-1.121c0.23-0.2,0.486-0.366,0.68-0.581c0.195-0.215,0.384-0.423,0.565-0.622
						c0.344-0.415,0.746-0.74,0.978-1.12c0.257-0.367,0.48-0.686,0.665-0.949c0.387-0.527,0.608-0.828,0.608-0.828
						s-0.14,0.345-0.386,0.95c-0.132,0.302-0.292,0.67-0.476,1.091c-0.168,0.435-0.51,0.834-0.818,1.315
						c-0.162,0.237-0.331,0.484-0.506,0.739c-0.177,0.255-0.433,0.456-0.658,0.698c-0.47,0.465-0.941,0.998-1.578,1.365
						c-0.303,0.204-0.611,0.412-0.922,0.622c-0.326,0.186-0.682,0.325-1.032,0.482c-0.69,0.352-1.45,0.523-2.202,0.726
						c-0.374,0.116-0.764,0.127-1.145,0.18c-0.383,0.036-0.763,0.107-1.142,0.112c-0.757-0.002-1.504,0.016-2.213-0.088
						c-0.716-0.053-1.392-0.193-2.027-0.338c-0.641-0.118-1.221-0.337-1.763-0.492C612.031,221.75,610.783,220.898,610.783,220.898z
						"/>
				</g>
				<g>
					<path style="fill:#1C171E;" d="M617.479,189.367c0,0-0.058-0.498,0.011-1.362c0.073-0.86,0.261-2.096,0.782-3.521
						c0.519-1.418,1.388-3.043,2.814-4.5c0.714-0.724,1.579-1.381,2.552-1.912c0.98-0.528,2.076-0.873,3.187-1.082
						c1.114-0.14,2.245-0.195,3.299-0.016c0.537,0.052,1.046,0.169,1.54,0.309c0.504,0.114,0.971,0.285,1.426,0.465
						c0.462,0.166,0.894,0.358,1.301,0.577c0.411,0.21,0.816,0.403,1.174,0.648c0.361,0.234,0.713,0.463,1.053,0.683
						c0.316,0.248,0.621,0.487,0.914,0.717c0.59,0.449,1.055,0.95,1.48,1.368c0.435,0.404,0.76,0.819,1.031,1.152
						c0.542,0.666,0.814,1.078,0.814,1.078s-0.488-0.136-1.276-0.428c-0.39-0.143-0.864-0.317-1.407-0.517
						c-0.543-0.187-1.133-0.428-1.789-0.632c-0.32-0.112-0.654-0.229-1-0.351c-0.344-0.104-0.7-0.211-1.066-0.321
						c-0.36-0.122-0.731-0.215-1.11-0.305c-0.379-0.094-0.754-0.209-1.143-0.264c-0.769-0.162-1.556-0.275-2.327-0.309
						c-0.778-0.06-1.533,0.003-2.272,0.102c-0.732,0.126-1.439,0.332-2.12,0.612c-0.669,0.308-1.321,0.664-1.932,1.097
						c-1.212,0.873-2.273,1.955-3.136,2.976c-0.879,1.014-1.554,1.968-2.044,2.643C617.755,188.969,617.479,189.367,617.479,189.367
						z"/>
				</g>
				<g>
					<path style="fill:#1C171E;" d="M606.689,191.166c0,0-0.363-0.215-0.998-0.592c-0.623-0.369-1.495-0.886-2.518-1.437
						c-1.021-0.547-2.193-1.142-3.419-1.567c-0.611-0.228-1.237-0.37-1.851-0.493c-0.617-0.113-1.222-0.136-1.817-0.11
						c-0.595,0.028-1.174,0.153-1.755,0.32c-0.287,0.094-0.57,0.215-0.862,0.317c-0.277,0.148-0.565,0.262-0.842,0.417
						c-0.555,0.303-1.088,0.659-1.606,1.01c-0.494,0.388-1,0.736-1.433,1.121c-0.456,0.359-0.871,0.714-1.239,1.037
						c-0.369,0.321-0.711,0.6-0.974,0.847c-0.544,0.481-0.902,0.744-0.902,0.744s0.049-0.428,0.219-1.156
						c0.081-0.366,0.189-0.812,0.384-1.29c0.171-0.493,0.377-1.05,0.689-1.621c0.278-0.589,0.68-1.18,1.117-1.81
						c0.48-0.601,1.024-1.225,1.701-1.79c0.675-0.563,1.468-1.082,2.368-1.46c0.9-0.385,1.899-0.613,2.908-0.685
						c1.006-0.028,2.018,0.055,2.935,0.332c0.916,0.263,1.771,0.627,2.502,1.081c1.489,0.883,2.584,1.993,3.387,3.008
						c0.793,1.032,1.305,1.974,1.603,2.663C606.591,190.738,606.689,191.166,606.689,191.166z"/>
				</g>
			</g>
		</g>
		<g>
			<g>
				<g>
					<path style="fill:#F29083;" d="M542.896,284.74c0,0,17.589,89.622,35.179,88.784c17.589-0.837,5.026-83.759,5.026-83.759
						L542.896,284.74z"/>
					<path style="fill:none;stroke:#D15A5A;stroke-width:1.2409;stroke-miterlimit:10;" d="M542.896,284.74
						c0,0,17.589,89.622,35.179,88.784c17.589-0.837,5.026-83.759,5.026-83.759L542.896,284.74z"/>
				</g>
				<g>
					<path style="fill:#F29083;" d="M712.513,261.392c0,0,4.725,91.209-12.54,94.673c-17.265,3.463-25.236-80.025-25.236-80.025
						L712.513,261.392z"/>
					<path style="fill:none;stroke:#D15A5A;stroke-width:1.2409;stroke-miterlimit:10;" d="M712.513,261.392
						c0,0,4.725,91.209-12.54,94.673c-17.265,3.463-25.236-80.025-25.236-80.025L712.513,261.392z"/>
				</g>
			</g>
			<g>
				<path style="fill:#FC6A5A;" d="M591.476,338.346c0,0-60.306,57.793-56.118,161.654h174.218c0,0,25.965-115.587-22.615-178.406
					S591.476,338.346,591.476,338.346z"/>
				<path style="fill:#EA4134;" d="M627.146,369.681c19.75,5.638,40.122,8.869,60.46,11.579c8.157,1.087,16.537,2.092,25.014,2.815
					c-4.072-22.513-11.852-44.628-25.659-62.481c-48.58-62.819-95.485,16.752-95.485,16.752s-5.281,5.062-12.607,14.877
					C594.865,359.001,610.791,365.012,627.146,369.681z"/>
				<path style="fill:none;stroke:#A50000;stroke-width:0.9221;stroke-miterlimit:10;" d="M591.476,338.346
					c0,0-60.306,57.793-56.118,161.654h174.218c0,0,25.965-115.587-22.615-178.406S591.476,338.346,591.476,338.346z"/>
			</g>
		</g>
		<g>
			<g>
				<path style="fill:#FDDEC0;" d="M540.383,241.185l-0.838-27.64c0,0,72.033,3.35,82.084,32.666c0,0,33.503-37.691,72.033-44.392
					l14.239,72.87L540.383,241.185z"/>
				<g>
					<g>
						<polygon style="fill:#6F96BD;" points="530.332,218.57 609.903,235.322 617.441,348.397 533.682,327.457 						"/>
						<polygon style="fill:none;stroke:#1B4268;stroke-width:1.362;stroke-miterlimit:10;" points="530.332,218.57 609.903,235.322 
							617.441,348.397 533.682,327.457 						"/>
					</g>
					<g>
						<polygon style="fill:#6F96BD;" points="710.523,208.288 633.919,235.565 641.621,348.628 721.813,316.639 						"/>
						<polygon style="fill:none;stroke:#1B4268;stroke-width:1.362;stroke-miterlimit:10;" points="710.523,208.288 
							633.919,235.565 641.621,348.628 721.813,316.639 						"/>
					</g>
					<g>
						<path style="fill:#558AB5;" d="M609.903,235.322l26.803-0.838l6.701,119.775c0,0-15.914,5.863-30.153-0.838L609.903,235.322z"
							/>
						<g>
							<path style="fill:#1B4268;" d="M609.903,235.322l26.795-1.078l0.233-0.009l0.015,0.236l1.87,29.933l1.818,29.936l3.45,59.882
								l0.03,0.511l-0.472,0.164c-1.27,0.44-2.511,0.783-3.788,1.077c-1.269,0.301-2.551,0.537-3.838,0.744l-1.938,0.257
								c-0.646,0.084-1.298,0.118-1.947,0.179c-0.648,0.068-1.302,0.075-1.953,0.1c-0.652,0.027-1.303,0.048-1.956,0.022
								c-0.652-0.02-1.306-0.011-1.957-0.055l-1.953-0.159c-0.652-0.042-1.295-0.178-1.943-0.263
								c-0.647-0.094-1.295-0.185-1.93-0.349l-1.915-0.436l-1.876-0.587l-0.937-0.297l-0.908-0.378l-1.816-0.757l-0.352-0.147
								l-0.011-0.407l-0.788-29.526l-0.704-29.529l-0.655-29.53L609.903,235.322z M609.903,235.322l1.104,29.517l1.02,29.52
								l0.971,29.521l0.887,29.523l-0.362-0.554l1.747,0.72l0.873,0.361l0.903,0.282l1.807,0.559l1.848,0.413
								c0.612,0.157,1.238,0.242,1.864,0.33c0.627,0.079,1.247,0.21,1.879,0.248l1.892,0.147c0.631,0.042,1.266,0.029,1.898,0.047
								c0.633,0.024,1.266,0.001,1.899-0.028c0.633-0.027,1.267-0.034,1.898-0.104c0.631-0.062,1.265-0.096,1.894-0.18l1.885-0.256
								c1.252-0.206,2.5-0.44,3.732-0.736c1.229-0.287,2.467-0.637,3.63-1.032l-0.443,0.674l-3.251-59.893l-1.532-29.952
								l-1.481-29.955l0.247,0.227L609.903,235.322z"/>
						</g>
					</g>
				</g>
			</g>
			<g>
				<g>
					<path style="fill:#FFAC9D;" d="M521.865,270.063c0,0-2.394-15.991,2.6-18.225c4.994-2.234,40.695,11.369,7.944,7.594
						c0,0,55.634,12.337,1.673,7.391c0,0,44.572,8.096,1.275,5.353c0,0,34.994,8.404-2.05,4.487l-1.439,11.401
						C531.868,288.064,527.484,290.917,521.865,270.063z"/>
					<g>
						<path style="fill:#D15A5A;" d="M521.865,270.063c-0.367-2.337-0.618-4.697-0.704-7.068c-0.071-2.368-0.037-4.762,0.474-7.116
							c0.263-1.167,0.652-2.354,1.45-3.348c0.387-0.497,0.953-0.902,1.563-1.109c0.676-0.185,1.267-0.191,1.885-0.184
							c2.431,0.09,4.76,0.643,7.066,1.235c2.303,0.614,4.571,1.346,6.796,2.219c1.111,0.44,2.212,0.913,3.288,1.472
							c0.537,0.282,1.069,0.582,1.586,0.943c0.259,0.178,0.513,0.382,0.76,0.62c0.233,0.25,0.515,0.522,0.62,1.071
							c0.042,0.279-0.05,0.627-0.223,0.831c-0.167,0.224-0.353,0.338-0.524,0.438c-0.35,0.196-0.666,0.269-0.987,0.354
							c-0.633,0.144-1.244,0.2-1.854,0.245c-1.216,0.074-2.415,0.059-3.611,0.017c-2.39-0.081-4.756-0.327-7.117-0.581l0.223-1.328
							c4.115,0.913,8.207,1.884,12.288,2.938c2.04,0.53,4.075,1.082,6.102,1.687c1.013,0.304,2.025,0.621,3.032,0.97
							c1.009,0.356,2.009,0.715,3.022,1.237c0.256,0.14,0.511,0.283,0.787,0.504l0.212,0.189c0.077,0.082,0.161,0.196,0.231,0.299
							c0.075,0.12,0.154,0.355,0.165,0.549c-0.006,0.234-0.102,0.539-0.213,0.64c-0.498,0.544-0.807,0.517-1.113,0.634
							c-0.305,0.082-0.584,0.121-0.868,0.167c-1.11,0.138-2.175,0.163-3.243,0.176c-2.129,0.014-4.24-0.087-6.346-0.208
							c-4.211-0.252-8.405-0.616-12.594-1.009l0.196-1.439c3.297,0.62,6.577,1.282,9.852,2.008c1.637,0.364,3.271,0.746,4.901,1.167
							c0.815,0.212,1.629,0.434,2.442,0.68c0.816,0.253,1.619,0.502,2.455,0.899c0.216,0.115,0.417,0.202,0.677,0.425
							c0.114,0.118,0.322,0.258,0.393,0.705c0.008,0.528-0.358,0.773-0.486,0.846c-0.631,0.322-1.015,0.311-1.475,0.388
							c-0.876,0.097-1.722,0.119-2.57,0.132c-1.691,0.016-3.369-0.031-5.045-0.098c-3.351-0.139-6.691-0.358-10.029-0.599
							l0.144-0.957c2.685,0.683,5.352,1.407,8.006,2.204c1.327,0.398,2.646,0.823,3.952,1.309c0.653,0.243,1.302,0.502,1.941,0.812
							c0.32,0.164,0.636,0.324,0.95,0.588c0.079,0.083,0.161,0.15,0.233,0.293c0.086,0.124,0.087,0.408-0.044,0.553
							c-0.24,0.26-0.43,0.263-0.619,0.329c-0.738,0.16-1.427,0.155-2.128,0.164c-0.697,0.002-1.39-0.029-2.082-0.061
							c-1.383-0.072-2.762-0.182-4.138-0.307c-2.753-0.243-5.495-0.584-8.235-0.926c2.752,0.233,5.506,0.436,8.259,0.607
							c1.377,0.082,2.754,0.148,4.13,0.177c0.687,0.01,1.375,0.019,2.058-0.004c0.676-0.027,1.379-0.054,1.988-0.209
							c0.134-0.033,0.304-0.117,0.292-0.127c-0.023,0.008-0.013,0.097-0.02,0.072c-0.004-0.014-0.055-0.062-0.096-0.102
							c-0.22-0.175-0.526-0.329-0.825-0.468c-0.611-0.274-1.254-0.508-1.902-0.726c-1.298-0.434-2.62-0.817-3.943-1.193
							c-2.65-0.741-5.327-1.413-8.005-2.041l0.144-0.957c3.335,0.177,6.672,0.331,10.004,0.407c1.665,0.035,3.331,0.05,4.982,0.003
							c0.823-0.028,1.65-0.067,2.433-0.17c0.36-0.045,0.831-0.145,0.943-0.214c0.057-0.02-0.154,0.051-0.136,0.368
							c0.029,0.239,0.095,0.213,0.052,0.196c-0.055-0.054-0.235-0.153-0.389-0.228c-0.676-0.318-1.475-0.57-2.256-0.804
							c-0.788-0.234-1.588-0.447-2.392-0.65c-1.609-0.405-3.233-0.774-4.862-1.125c-3.257-0.7-6.537-1.341-9.814-1.936l0.196-1.439
							c4.181,0.366,8.366,0.702,12.547,0.926c2.09,0.11,4.18,0.184,6.254,0.194c1.032-0.005,2.072-0.027,3.05-0.143
							c0.235-0.037,0.477-0.07,0.68-0.125c0.19-0.021,0.425-0.194,0.274-0.053c0.003,0.017-0.111,0.169-0.074,0.282
							c-0.017,0.071,0.033,0.17,0.042,0.18c-0.011,0-0.001,0.004-0.011-0.011l-0.083-0.072c-0.133-0.11-0.334-0.231-0.539-0.344
							c-0.853-0.448-1.833-0.816-2.802-1.162c-0.976-0.345-1.968-0.663-2.966-0.969c-1.997-0.61-4.015-1.171-6.039-1.71
							c-4.05-1.074-8.132-2.069-12.218-3.002l0.223-1.328c2.339,0.275,4.685,0.504,7.021,0.641c1.167,0.064,2.336,0.099,3.483,0.051
							c0.569-0.031,1.141-0.075,1.664-0.185c0.251-0.059,0.517-0.126,0.685-0.222c0.084-0.042,0.154-0.096,0.161-0.112
							c0.022-0.022-0.002,0.017,0.01,0.005c0.003-0.041-0.111-0.253-0.285-0.421c-0.177-0.175-0.38-0.349-0.605-0.509
							c-0.447-0.325-0.941-0.619-1.446-0.895c-1.014-0.552-2.081-1.035-3.16-1.486c-2.164-0.896-4.392-1.663-6.649-2.31
							c-1.129-0.323-2.267-0.614-3.412-0.854c-1.145-0.236-2.3-0.437-3.448-0.508c-0.561-0.033-1.168-0.018-1.64,0.093
							c-0.51,0.157-0.961,0.453-1.317,0.877c-0.72,0.837-1.142,1.948-1.427,3.068c-0.566,2.262-0.678,4.641-0.679,6.994
							C521.456,265.349,521.59,267.713,521.865,270.063z"/>
					</g>
				</g>
				<g>
					<path style="fill:#FFAC9D;" d="M727.989,251.345c0,0,3.014-15.886-1.889-18.312c-4.904-2.426-41.107,9.779-8.233,7.28
						c0,0-56.071,10.165-1.959,7.32c0,0-44.853,6.358-1.482,5.3c0,0-35.294,7.037,1.874,4.563l0.995,11.449
						C717.294,268.943,721.564,271.964,727.989,251.345z"/>
					<g>
						<path style="fill:#D15A5A;" d="M727.989,251.345c0.367-2.337,0.592-4.695,0.697-7.052c0.09-2.352,0.071-4.733-0.407-7.015
							c-0.241-1.13-0.619-2.257-1.306-3.121c-0.339-0.438-0.778-0.751-1.282-0.928c-0.467-0.129-1.073-0.167-1.635-0.157
							c-1.149,0.026-2.312,0.182-3.465,0.373c-1.154,0.196-2.302,0.441-3.443,0.721c-2.28,0.559-4.536,1.238-6.733,2.05
							c-1.096,0.409-2.181,0.85-3.216,1.362c-0.515,0.257-1.02,0.531-1.479,0.839c-0.232,0.152-0.442,0.318-0.625,0.486
							c-0.181,0.161-0.302,0.368-0.302,0.409c0.011,0.013-0.011-0.027,0.01-0.004c0.007,0.016,0.074,0.073,0.156,0.118
							c0.164,0.103,0.428,0.18,0.676,0.248c0.518,0.13,1.088,0.197,1.656,0.25c1.144,0.093,2.314,0.103,3.483,0.085
							c2.34-0.047,4.693-0.184,7.041-0.368l0.171,1.335c-4.119,0.774-8.236,1.61-12.325,2.525c-2.044,0.46-4.083,0.943-6.101,1.474
							c-1.009,0.267-2.013,0.546-3.001,0.853c-0.982,0.308-1.975,0.638-2.845,1.052c-0.208,0.105-0.414,0.218-0.552,0.322
							l-0.086,0.069c-0.01,0.014,0,0.011-0.011,0.011c0.01-0.01,0.063-0.107,0.049-0.178c0.041-0.112-0.067-0.268-0.063-0.285
							c-0.146-0.147,0.082,0.035,0.271,0.063c0.201,0.063,0.441,0.105,0.675,0.151c0.972,0.154,2.011,0.216,3.042,0.261
							c2.073,0.07,4.165,0.077,6.257,0.049c4.187-0.061,8.381-0.235,12.573-0.438l0.14,1.446c-3.298,0.467-6.6,0.98-9.882,1.553
							c-1.641,0.288-3.278,0.593-4.902,0.936c-0.811,0.172-1.62,0.354-2.416,0.557c-0.79,0.204-1.598,0.424-2.286,0.716
							c-0.156,0.069-0.341,0.161-0.397,0.212c-0.044,0.015,0.021,0.044,0.059-0.194c0.031-0.316-0.178-0.395-0.122-0.373
							c0.11,0.073,0.575,0.191,0.934,0.25c0.779,0.133,1.604,0.204,2.425,0.264c1.648,0.111,3.313,0.162,4.979,0.191
							c3.332,0.054,6.672,0.029,10.012-0.017l0.107,0.962c-2.701,0.523-5.402,1.091-8.078,1.728
							c-1.337,0.325-2.672,0.655-3.986,1.039c-0.656,0.193-1.307,0.402-1.929,0.652c-0.304,0.127-0.616,0.269-0.842,0.435
							c-0.043,0.039-0.095,0.085-0.1,0.098c-0.008,0.025,0.005-0.064-0.017-0.073c-0.012,0.01,0.154,0.099,0.287,0.138
							c0.603,0.179,1.304,0.234,1.979,0.286c0.682,0.05,1.37,0.068,2.057,0.084c1.376,0.025,2.755,0.011,4.134-0.017
							c2.758-0.064,5.518-0.16,8.276-0.285c-2.751,0.235-5.504,0.469-8.265,0.605c-1.38,0.071-2.762,0.127-4.147,0.146
							c-0.693,0.005-1.386,0.008-2.083-0.02c-0.7-0.036-1.389-0.058-2.12-0.247c-0.186-0.073-0.376-0.083-0.606-0.353
							c-0.125-0.15-0.113-0.434-0.022-0.554c0.078-0.14,0.162-0.204,0.245-0.284c0.325-0.252,0.647-0.4,0.972-0.551
							c0.651-0.286,1.31-0.518,1.971-0.736c1.323-0.434,2.659-0.808,4-1.154c2.683-0.693,5.375-1.313,8.085-1.891l0.107,0.962
							c-3.345,0.11-6.691,0.199-10.045,0.208c-1.677,0.002-3.356-0.016-5.045-0.098c-0.847-0.046-1.691-0.101-2.563-0.232
							c-0.457-0.094-0.841-0.098-1.459-0.445c-0.125-0.078-0.481-0.337-0.453-0.864c0.088-0.444,0.301-0.576,0.42-0.689
							c0.269-0.213,0.472-0.292,0.693-0.399c0.851-0.365,1.663-0.582,2.488-0.803c0.822-0.215,1.644-0.405,2.467-0.585
							c1.645-0.358,3.293-0.675,4.943-0.976c3.301-0.597,6.604-1.132,9.923-1.623l0.14,1.446c-4.202,0.23-8.406,0.43-12.624,0.519
							c-2.11,0.04-4.222,0.058-6.349-0.038c-1.067-0.055-2.13-0.121-3.234-0.302c-0.282-0.057-0.559-0.106-0.861-0.2
							c-0.301-0.128-0.611-0.113-1.088-0.677c-0.107-0.105-0.191-0.413-0.188-0.648c0.018-0.193,0.106-0.425,0.186-0.543
							c0.074-0.1,0.162-0.211,0.242-0.29l0.219-0.18c0.285-0.21,0.545-0.343,0.806-0.473c1.032-0.482,2.045-0.802,3.067-1.119
							c1.021-0.31,2.043-0.587,3.068-0.852c2.049-0.526,4.104-0.999,6.163-1.449c4.119-0.895,8.246-1.706,12.393-2.459l0.171,1.335
							c-2.37,0.162-4.743,0.316-7.134,0.303c-1.196-0.004-2.395-0.036-3.607-0.157c-0.608-0.069-1.216-0.148-1.843-0.317
							c-0.317-0.097-0.631-0.182-0.972-0.392c-0.167-0.106-0.349-0.227-0.507-0.458c-0.165-0.211-0.243-0.562-0.191-0.839
							c0.125-0.544,0.418-0.805,0.661-1.046c0.256-0.228,0.518-0.422,0.784-0.589c0.531-0.341,1.074-0.62,1.622-0.881
							c1.097-0.517,2.215-0.946,3.342-1.343c2.257-0.785,4.552-1.429,6.877-1.953c2.328-0.502,4.676-0.964,7.109-0.96
							c0.617,0.016,1.207,0.046,1.876,0.257c0.602,0.23,1.151,0.657,1.519,1.169c0.759,1.024,1.101,2.225,1.319,3.402
							c0.419,2.373,0.359,4.766,0.197,7.129C728.789,246.675,728.447,249.023,727.989,251.345z"/>
					</g>
				</g>
			</g>
		</g>
	</g>
	<g>
		<g>
			<g>
				<polygon style="fill:#FDDEC0;" points="324.973,361.164 311.859,500 440.859,500 447.409,364.473 				"/>
				<g>
					<polygon style="fill:#EFC8A8;" points="445.55,402.939 447.409,364.473 324.973,361.164 321.173,401.394 					"/>
					<polygon style="fill:#EFC8A8;" points="378.859,461.055 375.909,500 440.859,500 442.974,456.246 					"/>
				</g>
			</g>
			<g>
				<g>
					<path style="fill:#C98D61;" d="M432.641,456.739l-26.868,2.446l-13.434,1.223c-4.478,0.411-8.955,0.827-13.442,1.117
						l0.432-0.434l-3.027,38.939l-0.787-0.06l2.874-38.951l0.029-0.396l0.403-0.039c4.476-0.43,8.962-0.733,13.448-1.041
						l13.457-0.935L432.641,456.739z"/>
				</g>
				<g>
					
						<line style="fill:none;stroke:#C98D61;stroke-width:0.9036;stroke-miterlimit:10;" x1="445.842" y1="391.638" x2="440.859" y2="500"/>
					
						<line style="fill:none;stroke:#C98D61;stroke-width:0.9036;stroke-miterlimit:10;" x1="321.64" y1="388.638" x2="311.859" y2="500"/>
				</g>
			</g>
		</g>
		<g>
			<g>
				<g>
					<g>
						<g>
							<path style="fill:#FFAC9D;" d="M330.846,195.756l25.602-2.454c0,0-8.422-120.034-2.107-123.752
								c6.316-3.718,50.464-1.241,57.386,18.717c3.052,8.799,20.791,86.968-17.006,94.904l0.375,12.197
								c0,0,14.346-0.498,26.224-0.45c11.879,0.048-5.016,30.557-44.902,27.337C336.533,219.036,330.846,195.756,330.846,195.756z"
								/>
							<path style="fill:#F29083;" d="M421.321,194.918c-11.879-0.048-26.224,0.449-26.224,0.449l-0.375-12.197
								c-25.085-0.316-35.95-21.481-41.085-40.029c1.057,25.575,2.811,50.16,2.811,50.16l-25.602,2.454c0,0,5.688,23.28,45.573,26.5
								C416.305,225.475,433.199,194.966,421.321,194.918z"/>
						</g>
						<path style="fill:#FFAC9D;" d="M354.459,126.887c0,0-7.3-10.232-12.365,0.347c-6.512,13.601,6.962,27.769,16.142,17.389
							C367.416,134.244,354.459,126.887,354.459,126.887z"/>
					</g>
					<g>
						<g>
							<path style="fill:#D15A5A;" d="M353.983,152.15l0.615,10.289c0.205,3.43,0.399,6.86,0.659,10.286l0.724,10.279
								c0.269,3.424,0.511,6.851,0.812,10.27l0.03,0.34l-0.343,0.034l-25.591,2.564l0.401-0.564c0.843,2.8,2.415,5.466,4.21,7.846
								c1.812,2.396,3.968,4.528,6.317,6.406c4.725,3.748,10.242,6.416,15.982,8.28c2.876,0.933,5.827,1.62,8.793,2.217
								c2.975,0.557,5.979,0.976,8.998,1.244c6.024,0.587,12.124,0.401,18.072-0.667c5.941-1.076,11.728-3.086,16.957-6.1
								c2.611-1.507,5.078-3.272,7.295-5.309c2.2-2.043,4.197-4.358,5.565-7.01c0.663-1.32,1.193-2.752,1.2-4.183
								c0.007-0.71-0.165-1.405-0.552-1.947c-0.393-0.54-1.008-0.887-1.697-1.036c-0.678-0.168-1.426-0.12-2.198-0.131l-2.285-0.007
								l-4.571-0.015c-6.091,0.022-12.183,0.103-18.275,0.247h0l-0.11,0.006l-0.007-0.116l-0.696-12.187l0.868-0.027l0.053,12.206
								l-0.116-0.109h0c6.09-0.251,12.184-0.437,18.28-0.565l4.57-0.065l2.285-0.032c0.747-0.001,1.54-0.072,2.354,0.116
								c0.799,0.163,1.602,0.588,2.119,1.288c0.51,0.699,0.712,1.557,0.713,2.364c0.003,1.634-0.56,3.145-1.24,4.54
								c-1.408,2.789-3.438,5.177-5.672,7.293c-2.252,2.108-4.755,3.933-7.405,5.497c-5.305,3.138-11.216,5.163-17.251,6.283
								c-6.047,1.102-12.247,1.303-18.35,0.723c-3.051-0.264-6.091-0.679-9.107-1.237c-3.01-0.588-5.997-1.315-8.918-2.27
								c-5.827-1.918-11.446-4.66-16.272-8.519c-2.398-1.934-4.603-4.131-6.458-6.604c-1.844-2.484-3.433-5.153-4.34-8.204
								l-0.153-0.514l0.554-0.051l25.613-2.343l-0.313,0.374c-0.262-3.43-0.464-6.859-0.693-10.289
								c-0.217-3.43-0.383-6.863-0.56-10.295c-0.193-3.431-0.318-6.865-0.455-10.298L353.983,152.15z"/>
						</g>
					</g>
				</g>
				<g>
					<g>
						<path style="fill:#76413B;" d="M341.725,74.927c0,0-6.204-26.68-21.095-19.234c-14.891,7.445,4.343,24.818,4.343,24.818
							s-3.102-21.716-11.789-5.584C304.498,91.059,336.762,95.402,341.725,74.927z"/>
						
							<path style="fill:none;stroke:#54201C;stroke-width:1.2965;stroke-linecap:round;stroke-linejoin:round;stroke-miterlimit:10;" d="
							M320.63,55.693c-7.034,3.517-6.451,9.248-3.881,14.317c-1.067,0.914-2.251,2.477-3.565,4.917
							c-8.686,16.132,23.577,20.475,28.541,0C341.725,74.927,335.521,48.248,320.63,55.693z"/>
					</g>
					<g>
						<path style="fill:#965450;" d="M418.455,133.25c0,0,0.827,18.614-4.136,21.509c-4.964,2.895,6.204-16.132-8.686-16.132
							s-29.368-4.343-31.436,3.516s1.034,18.407-8.48,8.066c-5.499-5.977-6.576-26.881-6.505-43.458
							c4.006-2.339,8.892-7.794,6.298-20.242c0,0,22.75-17.373,46.218,1.757c0,0-2.381-29.989-42.909-29.058
							c-35.987,0.827-45.914,41.777-25.646,65.355c0,0,5.805-4.212,9.907,0.323c-0.662,17.204,1.489,55.207,32.904,59.034
							C432.866,189.632,422.178,155.586,418.455,133.25z"/>
						<g>
							<g>
								<path style="fill:#54201C;" d="M411.728,88.267c0,0-0.057-0.568-0.279-1.61c-0.223-1.041-0.613-2.558-1.312-4.415
									c-0.708-1.849-1.7-4.059-3.225-6.355c-1.513-2.295-3.506-4.709-6.09-6.884c-1.266-1.117-2.727-2.105-4.258-3.08
									c-1.572-0.911-3.234-1.798-5.032-2.51c-3.575-1.47-7.559-2.468-11.741-3.048c-4.183-0.561-8.585-0.712-13.008-0.433
									c-4.405,0.318-8.832,1.271-12.918,3.105c-4.074,1.818-7.816,4.405-10.816,7.626c-2.978,3.233-5.331,6.961-6.871,10.872
									c-1.543,3.91-2.441,7.921-2.77,11.772c-0.332,3.854-0.106,7.541,0.477,10.874c0.588,3.335,1.504,6.318,2.51,8.883
									c0.264,0.637,0.52,1.254,0.767,1.849c0.285,0.578,0.56,1.136,0.824,1.671c0.497,1.089,1.112,2.004,1.591,2.874
									c1.058,1.677,1.928,2.979,2.601,3.806c0.649,0.846,0.996,1.298,0.996,1.298s-0.365-0.436-1.051-1.254
									c-0.706-0.802-1.648-2.057-2.759-3.715c-0.509-0.858-1.158-1.761-1.694-2.841c-0.284-0.532-0.579-1.085-0.885-1.66
									c-0.269-0.593-0.547-1.207-0.835-1.842c-1.104-2.557-2.133-5.555-2.782-8.938c-0.659-3.376-0.965-7.128-0.702-11.075
									c0.259-3.942,1.082-8.087,2.669-12.119c1.561-4.038,3.963-7.909,7.03-11.28c3.088-3.358,6.958-6.078,11.178-7.986
									c4.239-1.874,8.853-2.832,13.369-3.126c4.515-0.255,8.967-0.073,13.235,0.526c4.266,0.595,8.321,1.72,11.952,3.292
									c1.826,0.764,3.512,1.706,5.102,2.67c1.551,1.028,3.024,2.069,4.298,3.237c2.61,2.266,4.562,4.799,6.019,7.177
									c1.472,2.378,2.402,4.642,3.056,6.527c0.654,1.89,0.96,3.436,1.145,4.486C411.695,87.697,411.728,88.267,411.728,88.267z"/>
							</g>
							<g>
								<path style="fill:#54201C;" d="M353.081,124.886c0,0-0.012,0.599-0.034,1.721c-0.038,1.122-0.036,2.769-0.015,4.862
									c0.034,1.046,0.071,2.204,0.112,3.465c0.092,1.258,0.136,2.622,0.284,4.072c0.236,2.903,0.665,6.165,1.367,9.673
									c0.701,3.504,1.649,7.276,3.158,11.075c0.73,1.908,1.634,3.803,2.636,5.692c1.041,1.868,2.226,3.706,3.582,5.458
									c2.722,3.489,6.193,6.588,10.268,8.792c4.079,2.224,8.687,3.451,13.428,3.825c4.722,0.466,9.504,0.579,14.114,0.016
									c4.588-0.552,9.081-1.941,12.503-4.653c3.467-2.677,5.444-6.653,6.35-10.559c0.935-3.935,0.997-7.837,0.833-11.394
									c-0.171-3.568-0.619-6.826-1.007-9.713c-0.406-2.886-0.826-5.396-1.166-7.463c-0.692-4.134-1.038-6.505-1.038-6.505
									s0.439,2.354,1.292,6.458c0.42,2.053,0.938,4.546,1.459,7.423c0.529,2.875,1.003,6.148,1.27,9.752
									c0.243,3.597,0.277,7.568-0.604,11.68c-0.446,2.048-1.166,4.12-2.265,6.059c-1.085,1.945-2.576,3.731-4.387,5.182
									c-3.643,2.928-8.355,4.397-13.076,5.001c-4.756,0.614-9.612,0.411-14.409-0.082c-4.798-0.407-9.64-1.703-13.837-4.031
									c-4.218-2.301-7.799-5.534-10.527-9.173c-1.366-1.82-2.551-3.719-3.584-5.642c-0.994-1.943-1.884-3.884-2.596-5.832
									c-1.471-3.88-2.378-7.704-3.023-11.249c-0.612-3.555-0.956-6.844-1.115-9.763c-0.11-1.458-0.118-2.827-0.176-4.09
									c-0.007-1.264-0.013-2.425-0.019-3.474c0.035-2.098,0.077-3.743,0.144-4.864
									C353.053,125.484,353.081,124.886,353.081,124.886z"/>
							</g>
						</g>
					</g>
				</g>
			</g>
			<g>
				<g>
					<path style="fill:#D15A5A;" d="M397.153,110.707c0.339,1.054,0.629,2.119,0.936,3.18c0.313,1.06,0.583,2.129,0.87,3.194
						c0.551,2.136,1.07,4.279,1.568,6.426c0.985,4.297,1.871,8.615,2.641,12.959l0.086,0.486l-0.464,0.044
						c-2.005,0.191-4.01,0.386-6.019,0.547c-2.009,0.158-4.016,0.34-6.029,0.463c1.985-0.359,3.977-0.659,5.966-0.984
						c1.99-0.322,3.983-0.61,5.976-0.901l-0.378,0.531c-1.091-4.274-2.066-8.573-2.943-12.893c-0.433-2.161-0.845-4.327-1.224-6.5
						c-0.178-1.089-0.373-2.174-0.526-3.269C397.454,112.896,397.279,111.807,397.153,110.707z"/>
				</g>
				<g>
					<path style="fill:#D15A5A;" d="M352.782,144.663c-0.64-0.174-1.269-0.399-1.875-0.683c-0.605-0.288-1.207-0.604-1.732-1.109
						c-0.255-0.253-0.502-0.592-0.551-1.05c-0.016-0.226,0.029-0.464,0.126-0.66c0.094-0.201,0.224-0.363,0.36-0.505
						c0.56-0.552,1.214-0.827,1.85-1.085l-0.305,0.348c0.303-2.014,0.471-4.086,0.405-6.106c-0.036-1.01-0.165-2.009-0.401-2.953
						c-0.248-0.932-0.651-1.823-1.315-2.375c-0.157-0.147-0.338-0.264-0.528-0.36l-0.144-0.071
						c-0.008-0.007-0.084-0.036-0.036-0.024l-0.093-0.03c-0.118-0.036-0.26-0.092-0.359-0.111c-0.349-0.088-0.801-0.072-1.169,0.092
						c-0.784,0.31-1.417,1.127-1.904,1.985c-0.498,0.87-0.866,1.834-1.211,2.807c-0.334,0.98-0.595,1.987-0.834,3.006
						c0.03-1.049,0.178-2.091,0.376-3.128c0.199-1.038,0.495-2.064,0.937-3.058c0.225-0.495,0.502-0.977,0.852-1.427
						c0.35-0.446,0.79-0.869,1.359-1.143c0.581-0.271,1.221-0.352,1.889-0.209c0.157,0.03,0.26,0.069,0.392,0.103l0.094,0.026
						l0.141,0.057l0.211,0.092c0.278,0.126,0.549,0.288,0.781,0.484c0.968,0.787,1.444,1.907,1.749,2.964
						c0.3,1.075,0.387,2.164,0.421,3.236c0.041,2.152-0.218,4.254-0.69,6.336l-0.062,0.272l-0.244,0.076
						c-0.598,0.186-1.195,0.426-1.62,0.765c-0.203,0.174-0.337,0.36-0.338,0.563c-0.006,0.208,0.12,0.46,0.298,0.695
						c0.37,0.471,0.904,0.867,1.448,1.219C351.612,144.046,352.188,144.371,352.782,144.663z"/>
				</g>
				<g>
					<path style="fill:#76413B;" d="M397.988,111.541c0,0,0.061-1.663,1.096-3.859c0.516-1.094,1.267-2.323,2.366-3.479
						c0.55-0.576,1.19-1.129,1.927-1.616c0.74-0.476,1.573-0.907,2.49-1.17c0.225-0.075,0.463-0.122,0.696-0.179l0.088-0.02
						l0.169-0.032l0.138-0.023l0.277-0.038c0.202-0.025,0.545-0.042,0.81-0.053c0.258,0.004,0.505,0.007,0.755,0.028
						c0.998,0.104,1.94,0.407,2.734,0.833c1.599,0.864,2.599,2.096,3.241,3.178c0.641,1.097,0.941,2.09,1.071,2.806
						c0.145,0.707,0.126,1.136,0.126,1.136s-0.328-0.235-0.901-0.648c-0.569-0.39-1.334-0.948-2.224-1.497
						c-0.887-0.546-1.902-1.085-2.888-1.348c-0.493-0.13-0.971-0.206-1.445-0.205l-0.353,0.003c-0.105,0.018-0.135,0.006-0.303,0.03
						l-0.276,0.044l-0.139,0.018l-0.017,0.002c0.17-0.029,0.044-0.007,0.08-0.013l-0.006,0.001l-0.024,0.005l-0.049,0.01
						c-0.131,0.03-0.263,0.045-0.394,0.087c-0.523,0.145-1.068,0.33-1.602,0.592c-0.539,0.251-1.074,0.558-1.596,0.888
						c-1.045,0.661-2.026,1.419-2.881,2.101C399.174,110.574,397.988,111.541,397.988,111.541z"/>
				</g>
				<g>
					<path style="fill:#76413B;" d="M389.35,109.394c0,0-0.403-0.238-1.109-0.653c-0.695-0.406-1.672-0.971-2.808-1.589
						c-2.273-1.217-5.279-2.626-8.028-2.563c-0.685,0.028-1.368,0.075-2.033,0.26c-0.339,0.056-0.658,0.208-0.995,0.291
						c-0.329,0.115-0.642,0.278-0.975,0.392c-0.316,0.161-0.622,0.333-0.944,0.479c-0.304,0.183-0.599,0.371-0.903,0.541
						c-0.573,0.393-1.158,0.748-1.655,1.152c-0.525,0.373-1,0.745-1.417,1.091c-0.43,0.334-0.823,0.626-1.123,0.89
						c-0.621,0.512-1.027,0.791-1.027,0.791s0.081-0.47,0.313-1.267c0.11-0.403,0.266-0.884,0.501-1.412
						c0.117-0.267,0.242-0.55,0.374-0.849c0.151-0.289,0.327-0.585,0.506-0.901c0.348-0.637,0.84-1.264,1.376-1.928
						c0.288-0.318,0.602-0.631,0.92-0.96c0.345-0.306,0.721-0.596,1.1-0.901c0.809-0.549,1.708-1.083,2.733-1.413
						c1.004-0.39,2.12-0.515,3.213-0.568c1.097,0.018,2.18,0.164,3.179,0.471c0.991,0.312,1.919,0.716,2.725,1.215
						c1.633,0.973,2.862,2.18,3.769,3.292c0.904,1.121,1.488,2.16,1.835,2.918C389.229,108.924,389.35,109.394,389.35,109.394z"/>
				</g>
				<path style="fill:#1C171E;" d="M376.708,119.652c-0.019,3.046-0.894,5.509-1.953,5.503c-1.06-0.007-1.902-2.481-1.883-5.527
					c0.019-3.046,0.894-5.509,1.953-5.502C375.884,114.132,376.727,116.606,376.708,119.652z"/>
				<path style="fill:#1C171E;" d="M406.785,119.973c-0.019,3.046-0.894,5.509-1.953,5.503c-1.059-0.007-1.903-2.481-1.883-5.527
					c0.019-3.046,0.894-5.509,1.953-5.503C405.962,114.452,406.805,116.927,406.785,119.973z"/>
				<path style="fill:#FFFFFF;" d="M377.091,144.211l34.358,4.778C411.449,148.989,398.187,163.239,377.091,144.211z"/>
			</g>
		</g>
		<g>
			<g>
				<g>
					<path style="fill:#F29083;" d="M440.791,261.891c0,0,17.373,76.936,39.709,72.8c22.336-4.136-13.236-104.236-13.236-104.236
						L440.791,261.891z"/>
					<g>
						<path style="fill:#6F96BD;" d="M405.012,192.193c0,0,35.366-8.686,53.359,13.03c17.993,21.716,21.716,53.359,21.716,53.359
							l-38.468,13.03L405.012,192.193z"/>
						<path style="fill:#558AB5;" d="M430.589,244.997c-0.305,0.233-0.61,0.466-0.915,0.699l11.945,25.915l38.468-13.03
							c0,0-2.56-21.681-13.645-41.467C454.758,226.688,442.662,235.777,430.589,244.997z"/>
					</g>
				</g>
				<g>
					<g>
						<g>
							<path style="fill:#965450;" d="M494.284,125.435c0,0-6.869-25.438,12.047-34.133
								C506.332,91.302,512.165,114.744,494.284,125.435z"/>
							<path style="fill:#FC6A5A;" d="M506.572,107.296c1.629-8.468-0.24-15.994-0.24-15.994c-3.853,1.771-6.622,4.243-8.611,7.046
								C500.661,101.342,503.594,104.344,506.572,107.296z"/>
						</g>
						<g>
							<path style="fill:#FC6A5A;" d="M493.358,123.606c-3.374,3.422-8.889,15.318-17.47,41.465
								c-10.906,33.232-22.632,76.891-19.734,77.842c2.898,0.951,19.323-41.167,30.229-74.398
								c8.073-24.599,10.856-37.426,10.583-42.819C495.751,125.022,494.547,124.328,493.358,123.606z"/>
							<path style="fill:#FDDEC0;" d="M493.358,123.606c-2.376,2.414-5.814,9.031-10.634,21.855
								c3.196,1.305,6.378,2.644,9.544,4.017c3.578-12.571,4.888-20,4.699-23.782C495.751,125.022,494.547,124.328,493.358,123.606z
								"/>
						</g>
					</g>
					<g>
						<path style="fill:#FFAC9D;" d="M478.846,160.136c0,0,18.2-2.482,22.336,6.618c4.136,9.1,9.1,162.973-15.718,167.937
							c-19.282,3.856-39.709-17.373-11.582-138.982c0,0-12.409-3.309-7.445-9.1c0,0-6.618-6.618,2.482-9.1
							c0,0-4.964-6.618,3.309-7.445C472.228,170.064,463.955,161.791,478.846,160.136z"/>
						<g>
							<path style="fill:#D15A5A;" d="M485.464,334.691c-1.582,0.274-3.191,0.531-4.809,0.428l-0.606-0.011l-0.602-0.074
								l-1.204-0.151c-0.778-0.217-1.595-0.315-2.341-0.643c-3.07-1.073-5.739-3.163-7.7-5.751c-1.989-2.575-3.465-5.52-4.539-8.576
								c-1.08-3.057-1.892-6.208-2.434-9.398c-0.137-0.798-0.296-1.592-0.415-2.392l-0.31-2.407
								c-0.237-1.602-0.343-3.216-0.485-4.827c-0.165-1.61-0.204-3.226-0.286-4.841c-0.098-1.615-0.106-3.23-0.122-4.846
								c-0.03-1.616-0.037-3.232,0.013-4.846c0.047-1.614,0.029-3.232,0.129-4.844l0.25-4.838c0.097-1.612,0.242-3.22,0.36-4.83
								c0.213-3.223,0.608-6.427,0.912-9.641c0.389-3.203,0.755-6.411,1.197-9.607c0.472-3.192,0.871-6.395,1.412-9.576
								c0.519-3.184,1.002-6.375,1.591-9.547c0.573-3.174,1.133-6.352,1.779-9.512c0.636-3.162,1.226-6.334,1.918-9.483
								c0.681-3.152,1.321-6.314,2.036-9.458l2.139-9.434l0.392,0.653c-1.194-0.341-2.325-0.757-3.448-1.255
								c-1.117-0.498-2.206-1.087-3.212-1.843c-0.498-0.386-0.973-0.819-1.382-1.335c-0.406-0.513-0.745-1.126-0.883-1.816
								c-0.144-0.689-0.053-1.419,0.19-2.052c0.133-0.311,0.278-0.613,0.463-0.884c0.163-0.29,0.386-0.518,0.578-0.779l0.027,0.696
								c-0.395-0.411-0.712-0.825-1.027-1.271c-0.304-0.447-0.593-0.908-0.816-1.413c-0.122-0.246-0.228-0.501-0.307-0.772
								c-0.099-0.261-0.169-0.533-0.206-0.819l-0.07-0.422l0.003-0.437c0.004-0.146-0.001-0.291,0.012-0.436l0.1-0.432
								c0.036-0.143,0.066-0.288,0.109-0.428l0.201-0.393l0.206-0.39c0.077-0.123,0.184-0.221,0.275-0.333
								c0.199-0.202,0.36-0.463,0.596-0.611l0.676-0.495c0.222-0.172,0.482-0.255,0.721-0.387c0.245-0.116,0.486-0.247,0.735-0.349
								l1.52-0.499l-0.236,0.689c-0.289-0.403-0.514-0.8-0.732-1.223c-0.209-0.423-0.403-0.856-0.537-1.318
								c-0.074-0.228-0.139-0.46-0.174-0.704c-0.052-0.238-0.085-0.481-0.081-0.733c-0.021-0.248-0.009-0.498,0.045-0.751
								l0.064-0.377l0.143-0.361c0.05-0.119,0.095-0.241,0.151-0.357l0.228-0.313c0.146-0.217,0.31-0.412,0.518-0.556
								c0.202-0.145,0.376-0.35,0.603-0.439l0.654-0.328c0.218-0.111,0.452-0.148,0.677-0.225c0.228-0.064,0.454-0.143,0.683-0.192
								l1.381-0.209l-0.229,0.642c-0.625-0.666-1.14-1.377-1.572-2.168c-0.42-0.786-0.752-1.66-0.79-2.598
								c-0.063-0.936,0.281-1.903,0.872-2.62c0.602-0.715,1.379-1.212,2.177-1.599c0.803-0.387,1.648-0.635,2.493-0.86
								c0.85-0.199,1.706-0.357,2.566-0.471c0.86-0.105,1.715-0.213,2.581-0.268c0.863-0.062,1.726-0.099,2.589-0.114
								c3.448-0.049,6.931,0.204,10.266,1.136c1.655,0.482,3.284,1.132,4.708,2.115c0.725,0.472,1.362,1.068,1.94,1.704
								c0.575,0.646,1.018,1.393,1.39,2.167c-0.388-0.767-0.845-1.501-1.43-2.131c-0.588-0.621-1.231-1.198-1.959-1.65
								c-1.431-0.945-3.057-1.554-4.705-1.998c-3.321-0.854-6.781-1.033-10.197-0.913c-0.855,0.032-1.71,0.087-2.562,0.166
								c-0.849,0.071-1.699,0.197-2.544,0.318c-0.843,0.13-1.676,0.302-2.496,0.512c-0.811,0.236-1.618,0.491-2.364,0.859
								c-0.741,0.368-1.434,0.834-1.938,1.447c-0.488,0.617-0.753,1.381-0.694,2.168c0.038,0.786,0.336,1.566,0.732,2.284
								c0.398,0.715,0.911,1.401,1.47,1.982l0.503,0.523l-0.732,0.12l-1.292,0.211c-0.211,0.047-0.41,0.123-0.616,0.182
								c-0.199,0.071-0.42,0.107-0.602,0.206l-0.552,0.285c-0.201,0.076-0.317,0.245-0.481,0.359
								c-0.17,0.114-0.289,0.267-0.393,0.43l-0.172,0.233l-0.105,0.268l-0.107,0.267l-0.042,0.291
								c-0.042,0.191-0.05,0.389-0.028,0.593c-0.003,0.201,0.027,0.404,0.075,0.607c0.03,0.204,0.089,0.406,0.157,0.606
								c0.12,0.403,0.302,0.795,0.496,1.177c0.198,0.376,0.426,0.762,0.668,1.089l0.359,0.486l-0.596,0.203l-1.416,0.483
								c-0.227,0.096-0.438,0.217-0.658,0.324c-0.21,0.119-0.454,0.198-0.637,0.349l-0.569,0.426
								c-0.207,0.128-0.311,0.337-0.474,0.498c-0.071,0.088-0.16,0.166-0.217,0.262l-0.148,0.298l-0.153,0.295l-0.073,0.323
								l-0.076,0.322c-0.007,0.111,0,0.225-0.001,0.337l-0.002,0.337l0.064,0.34c0.03,0.228,0.09,0.454,0.179,0.676
								c0.067,0.226,0.161,0.446,0.272,0.661c0.198,0.438,0.465,0.853,0.745,1.255c0.283,0.394,0.603,0.796,0.928,1.126l0.301,0.305
								l-0.274,0.391c-0.157,0.224-0.357,0.429-0.481,0.665c-0.152,0.226-0.26,0.465-0.361,0.705
								c-0.18,0.483-0.236,0.983-0.135,1.467c0.098,0.484,0.348,0.948,0.683,1.368c0.335,0.421,0.749,0.799,1.197,1.144
								c0.909,0.678,1.937,1.234,3.004,1.703c1.064,0.468,2.185,0.874,3.29,1.185l0.506,0.142l-0.114,0.51l-2.1,9.431
								c-0.703,3.143-1.329,6.302-1.997,9.452c-0.679,3.148-1.255,6.316-1.878,9.475c-0.636,3.157-1.17,6.332-1.747,9.499
								c-0.6,3.163-1.095,6.344-1.624,9.519c-0.552,3.172-0.962,6.364-1.445,9.546c-0.453,3.186-0.83,6.382-1.23,9.575
								c-0.315,3.201-0.721,6.395-0.946,9.604c-0.124,1.603-0.274,3.205-0.377,4.81l-0.268,4.816
								c-0.103,1.605-0.115,3.212-0.177,4.819c-0.068,1.607-0.081,3.213-0.069,4.82c-0.002,1.607-0.013,3.214,0.066,4.819
								c0.063,1.605,0.083,3.213,0.228,4.812c0.122,1.601,0.209,3.206,0.425,4.796l0.28,2.391c0.109,0.795,0.257,1.583,0.383,2.375
								c0.497,3.17,1.276,6.289,2.289,9.323c0.997,3.039,2.39,5.964,4.291,8.533c1.875,2.582,4.445,4.684,7.451,5.806
								c0.73,0.34,1.534,0.452,2.301,0.684l1.19,0.174l0.596,0.086l0.602,0.023C482.266,335.156,483.874,334.933,485.464,334.691z"
								/>
						</g>
					</g>
				</g>
			</g>
			<g>
				<g>
					<path style="fill:#6F96BD;" d="M348.55,192.814c0,0,7.445,25.439,31.643,24.818c24.198-0.62,24.818-25.439,24.818-25.439
						s35.987-6.205,42.811,10.548c6.825,16.752,3.102,192.341,3.102,192.341l-133.398-3.102c0,0-18.614-184.896-9.307-191.721
						C317.528,193.434,348.55,192.814,348.55,192.814z"/>
					<path style="fill:#558AB5;" d="M393.788,278.48c-18.613-12.001-34.394-27.686-50.197-43.078
						c-11.579-11.279-23.435-23.171-32.502-36.771c-1.092,0.5-2.066,1.04-2.869,1.628c-9.307,6.825-3.362,191.721-3.362,191.721
						l146.066,3.102c0,0,0.95-44.836,1.01-91.356C431.551,297.979,411.636,289.988,393.788,278.48z"/>
				</g>
				<g>
					<path style="fill:#1B4268;" d="M308.221,200.259c-0.762,0.674-1.056,1.694-1.369,2.628c-0.288,0.959-0.502,1.938-0.692,2.921
						c-0.371,1.968-0.633,3.955-0.857,5.945c-0.44,3.981-0.723,7.979-0.951,11.978c-0.448,8-0.666,16.011-0.813,24.021
						c-0.28,16.022-0.31,32.05-0.187,48.076c0.258,32.051,0.968,64.102,1.98,96.137l-0.464-0.459l36.517,0.76l36.515,0.834
						l73.031,1.668l-0.321,0.312l0.568-80.512l0.68-80.513l-0.254,80.514l-0.365,80.515l-0.001,0.318l-0.319-0.006l-73.036-1.434
						l-36.518-0.717l-36.516-0.791l-0.451-0.01l-0.013-0.449c-0.91-32.049-1.518-64.103-1.674-96.163
						c-0.034-8.015-0.033-16.03,0.018-24.046c0.057-8.015,0.139-16.031,0.366-24.044c0.221-8.013,0.514-16.025,1.036-24.025
						c0.265-3.999,0.585-7.997,1.062-11.977c0.243-1.989,0.524-3.976,0.913-5.943c0.199-0.982,0.422-1.961,0.72-2.919
						C307.147,201.947,307.452,200.927,308.221,200.259z"/>
				</g>
			</g>
			<g>
				<g>
					<g>
						<g>
							<path style="fill:#FFAC9D;" d="M299.534,206.464c0,0-45.293,102.375-30.402,120.989
								c14.891,18.614,128.434-26.68,128.434-26.68l-26.059-19.234l-56.462,7.445l27.3-72.593L299.534,206.464z"/>
							<g>
								<path style="fill:#F29083;" d="M345.493,319.097c27.665-8.589,52.073-18.324,52.073-18.324l-26.059-19.234l-51.072,6.735
									C325.452,300.62,334.726,310.535,345.493,319.097z"/>
								<path style="fill:#F29083;" d="M320.012,275.777l22.333-59.386l-42.811-9.927c0,0-11.061,25.005-20.454,52.545
									C291.227,267.713,305.298,272.875,320.012,275.777z"/>
							</g>
						</g>
						<g>
							<path style="fill:#D15A5A;" d="M282.359,300.555c0,0,0.294-0.219,0.879-0.578c0.579-0.369,1.432-0.909,2.564-1.512
								c1.108-0.651,2.519-1.312,4.121-2.109c1.611-0.776,3.479-1.545,5.515-2.386c1.036-0.372,2.116-0.76,3.234-1.161
								c1.118-0.401,2.268-0.837,3.487-1.167c2.428-0.684,4.953-1.568,7.664-2.08c1.345-0.297,2.713-0.6,4.098-0.906l1.055-0.231
								l1.054-0.169c0.705-0.113,1.413-0.227,2.124-0.341c2.844-0.457,5.734-0.921,8.623-1.385c2.898-0.416,5.777-0.931,8.65-1.232
								c2.865-0.342,5.684-0.68,8.411-1.006c2.727-0.337,5.367-0.618,7.87-0.893c2.505-0.237,4.874-0.462,7.06-0.669
								c8.745-0.822,14.591-1.177,14.591-1.177s-5.806,0.748-14.515,1.871c-2.177,0.271-4.536,0.564-7.031,0.874
								c-2.489,0.347-5.112,0.72-7.831,1.06c-2.717,0.351-5.525,0.714-8.378,1.083c-2.857,0.325-5.738,0.873-8.63,1.311
								c-2.894,0.436-5.788,0.873-8.637,1.302c-0.712,0.107-1.422,0.214-2.127,0.321l-1.056,0.159l-1.022,0.215
								c-1.375,0.29-2.734,0.577-4.07,0.859c-2.689,0.503-5.214,1.284-7.644,1.896c-1.22,0.292-2.372,0.691-3.492,1.057
								c-1.121,0.366-2.204,0.72-3.244,1.059c-1.029,0.369-1.997,0.772-2.933,1.118c-0.929,0.362-1.831,0.659-2.637,1.035
								c-1.627,0.716-3.065,1.308-4.197,1.903c-1.153,0.555-2.042,1.021-2.641,1.356
								C282.667,300.355,282.359,300.555,282.359,300.555z"/>
						</g>
					</g>
					<g>
						<path style="fill:#6F96BD;" d="M348.55,192.814c0,0-32.884-27.3-53.98,6.205c-21.096,33.505-22.336,45.914-22.336,45.914
							s34.125,23.577,62.666,27.3L348.55,192.814z"/>
						<g>
							<path style="fill:#1B4268;" d="M316.036,182.81l-2.394,0.602c-0.797,0.204-1.549,0.548-2.324,0.814
								c-0.784,0.248-1.504,0.65-2.239,1.014c-0.736,0.364-1.476,0.717-2.146,1.196c-0.682,0.454-1.387,0.877-2.05,1.356
								l-1.903,1.555c-0.659,0.489-1.202,1.11-1.786,1.683c-0.563,0.594-1.183,1.134-1.699,1.77l-1.551,1.904
								c-0.255,0.32-0.525,0.628-0.767,0.957l-0.687,1.018c-0.924,1.357-1.858,2.686-2.67,4.124l-5.063,8.475
								c-0.868,1.4-1.632,2.854-2.421,4.294l-2.359,4.325c-0.79,1.44-1.587,2.875-2.283,4.363l-2.179,4.416
								c-0.758,1.458-1.403,2.966-2.051,4.472c-0.63,1.512-1.362,2.987-1.908,4.53c-0.543,1.542-1.195,3.053-1.649,4.618
								l-0.703,2.341c-0.159,0.778-0.404,1.595-0.494,2.341l-0.203-0.439c2.363,1.594,4.788,3.13,7.235,4.613
								c2.443,1.493,4.917,2.937,7.417,4.333c1.243,0.71,2.5,1.397,3.76,2.075c1.257,0.686,2.515,1.368,3.795,2.01
								c1.278,0.644,2.538,1.326,3.831,1.94l3.87,1.859l3.919,1.752c1.3,0.599,2.629,1.128,3.957,1.66
								c1.333,0.519,2.639,1.109,3.996,1.563l4.04,1.442c1.357,0.448,2.731,0.841,4.096,1.264c1.359,0.447,2.747,0.781,4.137,1.11
								c1.391,0.317,2.761,0.749,4.174,0.95l4.216,0.743l-0.426,0.314l4.088-22.949l4.185-22.932l-3.712,23.014l-3.809,22.997
								l-0.062,0.374l-0.364-0.06l-4.27-0.701c-1.434-0.188-2.817-0.606-4.226-0.911c-1.405-0.327-2.807-0.66-4.178-1.104
								c-1.377-0.421-2.765-0.812-4.134-1.258l-4.073-1.437c-1.368-0.452-2.683-1.04-4.026-1.557
								c-1.338-0.53-2.677-1.057-3.986-1.654l-3.947-1.746l-3.896-1.853c-1.302-0.612-2.57-1.292-3.856-1.934
								c-1.288-0.64-2.555-1.32-3.82-2.004c-1.268-0.678-2.536-1.356-3.78-2.078c-2.505-1.412-4.983-2.871-7.432-4.379
								c-2.455-1.501-4.874-3.046-7.262-4.67l-0.238-0.162l0.035-0.277c0.113-0.889,0.357-1.653,0.53-2.485l0.725-2.383
								c0.47-1.594,1.131-3.111,1.687-4.669c0.559-1.558,1.299-3.036,1.94-4.558c0.659-1.514,1.315-3.029,2.081-4.491l2.215-4.424
								c0.717-1.486,1.534-2.919,2.344-4.355l2.418-4.314c0.809-1.436,1.593-2.888,2.476-4.276l5.16-8.416
								c0.825-1.42,1.793-2.778,2.743-4.126l0.714-1.013c0.252-0.327,0.531-0.634,0.795-0.952l1.606-1.89
								c0.533-0.631,1.172-1.166,1.753-1.753c0.602-0.566,1.161-1.179,1.837-1.661l1.951-1.529c0.678-0.469,1.397-0.881,2.093-1.324
								c0.683-0.468,1.437-0.808,2.184-1.159c0.746-0.351,1.476-0.739,2.271-0.973c0.785-0.252,1.547-0.581,2.347-0.768
								L316.036,182.81z"/>
						</g>
					</g>
				</g>
				<g>
					<g>
						<path style="fill:#FFFFFF;" d="M426.728,276.575c-28.541-34.745-36.607-34.125-47.155-26.68
							c-10.548,7.445-16.132,4.343-16.132,4.343c-19.854-11.789-34.345-26.295-46.534-4.964
							c-12.409,21.716,57.082,99.893,90.586,95.55S455.269,311.321,426.728,276.575z M406.323,274.364
							c-1.762,3.59-9.531,3.389-17.354-0.449c-7.823-3.838-12.736-9.861-10.975-13.451c1.762-3.59,9.531-3.389,17.354,0.449
							C403.171,264.752,408.084,270.774,406.323,274.364z"/>
						<path style="fill:#FFAC9D;" d="M376.471,262.305c0,0,5.584-9.927,13.03-10.548c7.445-0.62,37.848,14.891,6.825,10.548
							C396.325,262.305,390.741,284.848,376.471,262.305z"/>
					</g>
					<g>
						<circle style="fill:#965450;" cx="343.173" cy="277.609" r="9.1"/>
						<circle style="fill:#6F96BD;" cx="363.028" cy="300.773" r="9.1"/>
						
							<ellipse transform="matrix(0.7071 -0.7071 0.7071 0.7071 -112.3936 369.9129)" style="fill:#5D8584;" cx="390.328" cy="320.628" rx="9.1" ry="9.1"/>
						<circle style="fill:#FFA65B;" cx="417.628" cy="321.455" r="9.1"/>
						<circle style="fill:#FC6A5A;" cx="420.937" cy="293.328" r="9.1"/>
					</g>
				</g>
			</g>
		</g>
	</g>
	<g>
		<g>
			<g>
				<path style="fill:#6F96BD;" d="M144.702,341.346c0,0-44.342,46.709-42.813,158.654h158.29c0,0,3.142-128.41-55.382-154.333
					S144.702,341.346,144.702,341.346z"/>
				<g>
					<path style="fill:#558AB5;" d="M171.018,453.834c-12.077-3.089-25.314-7.862-36.782-12.282
						c-8.979-3.461-19.113-7.244-26.455-12.929c-3.204,10.697-5.967,52.909-5.892,71.378h69.129V453.834z"/>
					<path style="fill:#558AB5;" d="M217.332,352.757c-3.828-2.692-7.995-5.08-12.535-7.091
						c-58.524-25.923-60.095-4.321-60.095-4.321s-4.007,3.963-9.623,12.577C162.408,357.201,190.084,357.098,217.332,352.757z"/>
				</g>
			</g>
			<g>
				<path style="fill:none;stroke:#1B4268;stroke-width:1.0228;stroke-miterlimit:10;" d="M260.179,500
					c0,0,3.142-128.41-55.382-154.333s-60.095-4.32-60.095-4.32S101.36,383.055,101.889,500"/>
				<g>
					<g>
						<path style="fill:#1B4268;" d="M116.422,433.866c1.098,0.507,2.207,0.992,3.314,1.476c1.104,0.494,2.208,0.984,3.325,1.448
							l3.338,1.416c1.108,0.483,2.24,0.91,3.36,1.363l3.36,1.359c1.115,0.465,2.243,0.898,3.378,1.313l6.789,2.532l6.865,2.308
							c1.143,0.387,2.278,0.799,3.444,1.11l3.476,1.003l3.475,1.003c1.151,0.367,2.334,0.596,3.51,0.856l7.057,1.544l-0.203,0.003
							l14.542-2.943c4.85-0.968,9.69-1.983,14.548-2.913l14.563-2.838l14.587-2.724l-14.479,3.249l-14.502,3.135
							c-4.831,1.06-9.679,2.037-14.518,3.06l-14.524,3.03l-0.112,0.023l-0.092-0.021l-7.108-1.604
							c-1.184-0.27-2.376-0.509-3.53-0.886l-3.488-1.032l-3.488-1.032c-1.17-0.321-2.307-0.742-3.452-1.138l-6.854-2.42
							l-6.755-2.676c-1.128-0.438-2.249-0.895-3.357-1.383l-3.335-1.436c-1.107-0.49-2.224-0.954-3.317-1.475l-3.293-1.527
							C120.746,436.039,118.577,434.962,116.422,433.866z"/>
					</g>
					<g>
						<path style="fill:#1B4268;" d="M170.644,500c0,0-0.084-11.719-0.167-23.437c0.004-11.719,0.007-23.437,0.007-23.437h1.069
							c0,0,0.004,11.719,0.007,23.437c-0.084,11.719-0.167,23.437-0.167,23.437H170.644z"/>
					</g>
				</g>
			</g>
		</g>
		<g>
			<g>
				<g>
					<path style="fill:#965450;" d="M200.603,220.248c0,0-4.374,36.074,1.162,35.128c5.536-0.946,28.806-14.122,33.706,9.54
						c4.9,23.663-28.605,70.984-28.605,70.984l-74.793-0.889c0,0-12.552-71.675,7.316-78.775
						c19.868-7.1,32.349,12.588,31.648-18.106C170.327,206.966,200.603,220.248,200.603,220.248z"/>
					<path style="fill:#76413B;" d="M170.147,250.74c0.494-2.78,0.768-6.815,0.89-12.61c0.655-31.165,29.566-17.882,29.566-17.882
						s-1.107,9.134-1.502,18.09C191.771,243.646,178.569,248.416,170.147,250.74z"/>
				</g>
				<g>
					<g>
						<path style="fill:#EFC8A8;" d="M163.948,153.205c0,0-16.497-12.569-34.172,15.318c-17.675,27.887,2.357,56.953,25.138,57.346
							C177.695,226.262,163.948,153.205,163.948,153.205z"/>
						<path style="fill:none;stroke:#C98D61;stroke-width:1.0647;stroke-miterlimit:10;" d="M163.948,153.205
							c0,0-16.497-12.569-34.172,15.318c-17.675,27.887,2.357,56.953,25.138,57.346
							C177.695,226.262,163.948,153.205,163.948,153.205z"/>
					</g>
					<g>
						<g>
							<g>
								<path style="fill:#965450;" d="M176.045,158.186c0,0-30.076-2.766-33.575,30.638c-4.451,42.502,21.169,68.147,45.774,49.294
									C212.849,219.266,216.151,157.188,176.045,158.186z"/>
								<path style="fill:#965450;" d="M201.233,209.873c0,0,1.862-18.581,10.041-14.941s2.976,28.46-10.831,21.374"/>
							</g>
							<g>
								<path style="fill:#54201C;" d="M176.045,158.186c0,0-0.647-0.05-1.86-0.026c-1.212,0.025-2.992,0.141-5.221,0.513
									c-2.22,0.398-4.904,1.048-7.779,2.305c-2.868,1.242-5.931,3.104-8.679,5.781c-2.749,2.667-5.123,6.179-6.717,10.271
									c-1.664,4.075-2.51,8.684-2.897,13.478c-0.41,4.828-0.462,9.801-0.005,14.849c0.467,5.031,1.4,10.115,3.048,14.964
									c1.624,4.847,3.89,9.508,6.999,13.449c1.564,1.952,3.285,3.762,5.225,5.255c1.944,1.482,4.058,2.681,6.274,3.511
									c2.209,0.86,4.538,1.235,6.81,1.301c2.275,0.068,4.521-0.221,6.614-0.841c4.225-1.143,7.86-3.379,10.848-5.748
									c3.031-2.428,5.337-5.085,7.158-7.661c0.968-1.24,1.672-2.538,2.417-3.677c0.682-1.177,1.25-2.293,1.796-3.284
									c0.961-2.047,1.707-3.663,2.117-4.807c0.445-1.129,0.682-1.732,0.682-1.732s-0.219,0.609-0.629,1.752
									c-0.375,1.157-1.071,2.797-1.973,4.881c-0.516,1.01-1.053,2.149-1.703,3.355c-0.714,1.168-1.385,2.498-2.323,3.78
									c-0.46,0.645-0.883,1.351-1.415,2.006c-0.529,0.658-1.073,1.335-1.632,2.03c-1.206,1.323-2.522,2.699-4.024,3.914
									c-3.029,2.487-6.685,4.829-11.058,6.1c-2.161,0.68-4.504,1.026-6.895,0.996c-2.389-0.014-4.848-0.427-7.177-1.308
									c-2.336-0.86-4.561-2.107-6.599-3.643c-2.034-1.547-3.832-3.417-5.463-5.429c-3.239-4.062-5.594-8.836-7.279-13.79
									c-1.658-4.973-2.577-10.155-3.023-15.269c-0.437-5.109-0.351-10.208,0.089-15.049c0.398-4.871,1.368-9.587,3.145-13.74
									c1.709-4.174,4.217-7.752,7.086-10.44c2.859-2.717,6.055-4.519,9.003-5.686c2.955-1.186,5.68-1.757,7.924-2.089
									c2.253-0.306,4.039-0.367,5.254-0.356C175.4,158.116,176.045,158.186,176.045,158.186z"/>
							</g>
						</g>
					</g>
				</g>
				<g>
					<g>
						<g>
							<path style="fill:#EFC8A8;" d="M204.797,151.634c0,0-24.352-21.996,1.178-32.601s25.531,25.923,8.641,31.422
								c0,0,8.248,1.571,15.711-12.962C230.327,137.494,227.578,164.203,204.797,151.634z"/>
							<g>
								<path style="fill:#C98D61;" d="M204.797,151.634c-1.45-1.342-2.784-2.807-4.039-4.332c-1.251-1.529-2.4-3.146-3.404-4.85
									c-1-1.705-1.854-3.507-2.426-5.406c-0.56-1.895-0.867-3.902-0.632-5.889c0.22-1.985,0.982-3.903,2.144-5.531
									c1.147-1.649,2.678-2.991,4.328-4.103c1.638-1.156,3.429-2.016,5.268-2.829c0.936-0.33,1.816-0.755,2.798-1.007l1.453-0.415
									c0.49-0.111,0.987-0.187,1.481-0.282c1.979-0.315,4.046-0.373,6.043,0.129c1.989,0.501,3.853,1.585,5.244,3.108
									c1.404,1.515,2.368,3.377,2.971,5.315c0.606,1.944,0.848,3.978,0.842,5.995c-0.033,4.031-1.022,8.078-3.058,11.585
									c-1.01,1.751-2.272,3.371-3.796,4.721c-1.519,1.35-3.311,2.414-5.255,3.05l-0.056-0.887
									c0.352,0.056,0.807,0.045,1.218,0.021c0.422-0.041,0.844-0.1,1.261-0.199c0.423-0.068,0.826-0.234,1.241-0.346
									c0.399-0.165,0.806-0.313,1.197-0.5c0.382-0.207,0.778-0.388,1.149-0.617l1.099-0.713l1.035-0.812
									c0.354-0.261,0.651-0.591,0.979-0.883c0.322-0.3,0.649-0.596,0.934-0.935l0.888-0.984c0.296-0.329,0.547-0.696,0.823-1.042
									c0.267-0.354,0.549-0.697,0.803-1.06l0.734-1.112c0.239-0.374,0.502-0.734,0.722-1.121l1.318-2.323l0.639-1.127
									l-0.168,1.267c-0.204,1.536-0.548,3.025-0.978,4.498c-0.433,1.469-0.966,2.911-1.629,4.293
									c-0.335,0.689-0.702,1.362-1.098,2.018c-0.407,0.65-0.847,1.278-1.324,1.878c-0.488,0.592-1.009,1.154-1.575,1.671
									c-0.571,0.511-1.174,0.984-1.825,1.39c-0.653,0.398-1.335,0.754-2.057,1.012c-0.351,0.156-0.723,0.249-1.093,0.345
									c-0.367,0.11-0.74,0.196-1.121,0.238c-0.753,0.148-1.52,0.149-2.283,0.178c-0.761-0.059-1.527-0.068-2.276-0.226
									c-0.758-0.098-1.494-0.301-2.231-0.497c-0.739-0.186-1.444-0.486-2.167-0.724l-2.095-0.91L204.797,151.634z
									 M204.797,151.634l2.036,1.034l2.101,0.893c0.724,0.231,1.43,0.525,2.169,0.705c0.736,0.189,1.471,0.387,2.227,0.478
									c0.747,0.152,1.509,0.154,2.266,0.207c0.758-0.035,1.518-0.042,2.263-0.195c0.377-0.044,0.745-0.133,1.108-0.244
									c0.366-0.099,0.733-0.193,1.078-0.35c0.711-0.26,1.383-0.617,2.024-1.016c0.639-0.406,1.232-0.878,1.79-1.388
									c0.548-0.523,1.051-1.088,1.52-1.682c0.458-0.602,0.879-1.231,1.268-1.88c0.377-0.656,0.725-1.327,1.042-2.014
									c0.626-1.378,1.123-2.812,1.52-4.272c0.393-1.457,0.704-2.952,0.87-4.439l0.471,0.14l-1.284,2.378
									c-0.215,0.396-0.474,0.767-0.709,1.152l-0.722,1.146c-0.252,0.375-0.532,0.731-0.797,1.098
									c-0.275,0.36-0.524,0.739-0.82,1.082l-0.891,1.029c-0.286,0.353-0.616,0.667-0.943,0.984
									c-0.333,0.31-0.634,0.655-0.996,0.935l-1.061,0.868l-1.139,0.773c-0.386,0.248-0.802,0.451-1.203,0.678
									c-0.412,0.208-0.844,0.377-1.269,0.561c-0.445,0.133-0.875,0.317-1.336,0.404c-0.452,0.119-0.918,0.183-1.387,0.234
									c-0.482,0.028-0.927,0.057-1.463-0.023l-1.864-0.277l1.808-0.61c1.812-0.611,3.477-1.617,4.897-2.899
									c1.423-1.281,2.608-2.825,3.557-4.5c0.956-1.674,1.662-3.492,2.134-5.365c0.485-1.869,0.761-3.795,0.785-5.726
									c0.022-1.927-0.194-3.867-0.752-5.704c-0.554-1.832-1.442-3.571-2.721-4.973c-1.273-1.405-2.95-2.408-4.782-2.922
									c-1.843-0.504-3.806-0.495-5.718-0.231c-1.932,0.231-3.766,0.873-5.634,1.553c-1.784,0.748-3.593,1.569-5.209,2.663
									c-1.639,1.056-3.159,2.335-4.307,3.916c-1.163,1.561-1.945,3.41-2.201,5.352c-0.278,1.943-0.008,3.937,0.541,5.82
									c0.552,1.89,1.387,3.691,2.371,5.399c0.988,1.707,2.121,3.33,3.359,4.868C202.037,148.806,203.358,150.28,204.797,151.634z"
									/>
							</g>
						</g>
						
							<ellipse transform="matrix(0.9263 -0.3768 0.3768 0.9263 -39.9096 87.4726)" style="fill:#6F96BD;" cx="203.619" cy="145.742" rx="8.248" ry="8.248"/>
					</g>
					<g>
						<path style="fill:#FDDEC0;" d="M159.627,151.241c0,0-0.393,43.598,42.813,54.203c0,0-0.593-12.083,7.855-9.819
							c8.449,2.264,3.142,14.14,3.142,14.14s23.567-23.96,0.786-54.596C194.799,129.046,159.627,151.241,159.627,151.241z"/>
						<g>
							<path style="fill:#C98D61;" d="M213.438,209.765c1.678-1.851,3.118-3.905,4.4-6.042c1.285-2.137,2.381-4.385,3.276-6.707
								c1.796-4.64,2.762-9.599,2.722-14.557c-0.018-2.476-0.238-4.957-0.756-7.38c-0.102-0.611-0.243-1.214-0.409-1.811
								c-0.161-0.598-0.296-1.203-0.477-1.794c-0.395-1.174-0.736-2.366-1.228-3.504c-0.871-2.32-2.031-4.519-3.238-6.68
								c-0.634-1.064-1.307-2.107-1.97-3.152c-0.721-1-1.416-2.056-2.156-3.011c-0.795-0.957-1.544-1.983-2.419-2.825
								c-0.431-0.434-0.831-0.897-1.286-1.309l-1.387-1.217c-1.909-1.539-3.943-2.956-6.193-3.954
								c-2.229-1.024-4.575-1.806-6.993-2.261c-2.419-0.444-4.885-0.625-7.35-0.581c-2.467,0.033-4.927,0.342-7.356,0.792
								c-2.431,0.448-4.834,1.065-7.193,1.821c-2.359,0.757-4.676,1.652-6.941,2.663c-2.258,1.012-4.497,2.129-6.596,3.398
								l0.227-0.408c0.01,1.509,0.135,3.061,0.299,4.587c0.164,1.531,0.394,3.057,0.676,4.572c0.271,1.518,0.615,3.022,0.996,4.515
								c0.382,1.494,0.825,2.971,1.309,4.434c0.494,1.46,1.024,2.908,1.618,4.331c0.599,1.42,1.231,2.827,1.945,4.194
								c0.336,0.694,0.711,1.368,1.097,2.035c0.378,0.672,0.753,1.346,1.179,1.989c0.799,1.32,1.703,2.57,2.6,3.825
								c0.959,1.208,1.903,2.429,2.958,3.556l0.771,0.863l0.82,0.816c0.555,0.535,1.077,1.107,1.661,1.612l1.74,1.528
								c0.583,0.506,1.211,0.957,1.814,1.44c0.602,0.485,1.219,0.95,1.868,1.371l1.919,1.303c1.343,0.764,2.632,1.633,4.035,2.291
								l2.073,1.049l2.135,0.917c1.408,0.655,2.897,1.101,4.35,1.643c1.468,0.499,2.975,0.88,4.462,1.327
								c-1.495-0.414-3.012-0.764-4.492-1.232c-1.466-0.511-2.97-0.927-4.395-1.553l-2.163-0.875l-2.105-1.009
								c-1.426-0.632-2.74-1.477-4.11-2.219l-1.962-1.272c-0.664-0.411-1.296-0.867-1.914-1.343
								c-0.618-0.475-1.266-0.914-1.859-1.421l-1.778-1.524c-0.597-0.504-1.131-1.076-1.7-1.611l-0.84-0.816l-0.791-0.864
								c-1.083-1.128-2.053-2.353-3.04-3.566c-0.924-1.26-1.855-2.516-2.681-3.844c-0.44-0.647-0.828-1.325-1.22-2.002
								c-0.4-0.672-0.788-1.351-1.137-2.05c-0.741-1.377-1.399-2.796-2.024-4.229c-0.617-1.437-1.18-2.896-1.688-4.374
								c-0.497-1.482-0.952-2.978-1.345-4.492c-0.392-1.513-0.747-3.036-1.028-4.574c-0.292-1.536-0.531-3.082-0.704-4.637
								c-0.173-1.56-0.307-3.106-0.324-4.702l-0.003-0.268l0.23-0.141c2.172-1.325,4.41-2.449,6.704-3.49
								c2.293-1.034,4.639-1.952,7.034-2.73c2.395-0.778,4.837-1.417,7.317-1.882c2.481-0.45,4.999-0.756,7.53-0.781
								c2.529-0.035,5.066,0.161,7.56,0.629c2.493,0.479,4.917,1.296,7.218,2.365c2.322,1.042,4.422,2.515,6.384,4.111l1.424,1.26
								c0.468,0.428,0.887,0.914,1.333,1.368c0.921,0.902,1.643,1.906,2.44,2.872c0.786,1.021,1.46,2.059,2.195,3.088
								c0.671,1.064,1.334,2.135,1.967,3.222c1.201,2.211,2.352,4.459,3.211,6.831c0.486,1.163,0.82,2.381,1.206,3.579
								c0.177,0.604,0.308,1.222,0.464,1.832c0.161,0.609,0.297,1.224,0.394,1.847c0.496,2.47,0.691,4.996,0.679,7.511
								c-0.021,2.515-0.258,5.034-0.794,7.491c-0.521,2.459-1.272,4.864-2.224,7.184c-0.951,2.32-2.102,4.555-3.436,6.672
								C216.642,205.923,215.156,207.95,213.438,209.765z"/>
						</g>
					</g>
				</g>
			</g>
			<g>
				<g>
					<path style="fill:#1C171E;" d="M146.4,200.855c0,0,0.057,0.365,0.171,0.993c0.102,0.629,0.31,1.52,0.607,2.554
						c0.31,1.025,0.73,2.221,1.445,3.269c0.187,0.25,0.39,0.494,0.608,0.715c0.247,0.18,0.458,0.423,0.742,0.531
						c0.514,0.337,1.15,0.359,1.772,0.334l0.059,0l0.015,0c-0.106,0.02-0.02,0.003-0.039,0.007l0.034-0.007l0.134-0.029l0.268-0.058
						c0.174-0.041,0.366-0.071,0.525-0.121c0.266-0.149,0.548-0.204,0.809-0.399c0.261-0.183,0.537-0.343,0.759-0.579
						c0.247-0.204,0.456-0.445,0.649-0.7c0.79-1.003,1.287-2.161,1.646-3.169c0.347-1.016,0.585-1.897,0.71-2.522
						c0.135-0.624,0.198-0.987,0.198-0.987s0.159,1.479-0.277,3.685c-0.118,0.548-0.275,1.14-0.509,1.75
						c-0.242,0.605-0.526,1.247-0.96,1.841c-0.206,0.304-0.436,0.601-0.72,0.867c-0.25,0.296-0.581,0.519-0.91,0.746
						c-0.315,0.24-0.753,0.378-1.134,0.557c-0.186,0.06-0.357,0.088-0.537,0.134l-0.267,0.063l-0.133,0.031l-0.033,0.008
						l-0.073,0.013l-0.02,0.001l-0.078,0.002c-0.818,0.037-1.716-0.042-2.425-0.508c-0.747-0.394-1.244-1.046-1.649-1.656
						c-0.758-1.273-1.063-2.577-1.244-3.677c-0.181-1.105-0.185-2.034-0.191-2.678C146.357,201.221,146.4,200.855,146.4,200.855z"/>
				</g>
				<g>
					<path style="fill:#1C171E;" d="M175.447,201.335c0,0,0.057,0.365,0.171,0.993c0.102,0.629,0.31,1.52,0.607,2.554
						c0.31,1.025,0.73,2.221,1.445,3.269c0.187,0.25,0.39,0.494,0.608,0.715c0.247,0.179,0.458,0.423,0.742,0.531
						c0.514,0.337,1.15,0.359,1.772,0.334l0.059,0l0.015,0c-0.107,0.02-0.02,0.004-0.039,0.007l0.034-0.007l0.134-0.029l0.268-0.058
						c0.174-0.041,0.366-0.071,0.525-0.121c0.266-0.149,0.548-0.204,0.809-0.399c0.261-0.183,0.537-0.343,0.759-0.579
						c0.247-0.204,0.456-0.445,0.649-0.7c0.79-1.003,1.287-2.161,1.646-3.169c0.347-1.016,0.585-1.897,0.71-2.522
						c0.135-0.624,0.198-0.987,0.198-0.987s0.159,1.479-0.277,3.685c-0.118,0.548-0.275,1.14-0.51,1.75
						c-0.242,0.605-0.526,1.247-0.96,1.841c-0.206,0.304-0.436,0.601-0.72,0.867c-0.25,0.296-0.581,0.519-0.91,0.746
						c-0.315,0.24-0.752,0.378-1.134,0.557c-0.186,0.06-0.357,0.088-0.537,0.134l-0.267,0.063l-0.133,0.031l-0.033,0.008
						l-0.073,0.013l-0.02,0.001l-0.078,0.002c-0.818,0.037-1.715-0.042-2.425-0.508c-0.747-0.394-1.244-1.047-1.649-1.656
						c-0.758-1.273-1.063-2.577-1.244-3.677c-0.181-1.105-0.185-2.034-0.191-2.678C175.403,201.702,175.447,201.335,175.447,201.335
						z"/>
				</g>
				<g>
					<path style="fill:#54201C;" d="M163.187,201.544c-0.057,0.782-0.156,1.555-0.245,2.329c-0.083,0.776-0.192,1.547-0.304,2.317
						c-0.225,1.54-0.483,3.073-0.764,4.602c-0.13,0.766-0.294,1.526-0.442,2.288c-0.149,0.762-0.302,1.524-0.473,2.282
						c-0.321,1.52-0.679,3.033-1.047,4.543l-0.447-0.644c1.177,0.235,2.354,0.473,3.526,0.741c0.587,0.13,1.169,0.285,1.754,0.426
						c0.585,0.14,1.169,0.29,1.749,0.459c-0.605-0.013-1.206-0.045-1.807-0.087c-0.6-0.041-1.203-0.067-1.802-0.12
						c-1.198-0.096-2.392-0.222-3.586-0.352c-0.284-0.031-0.49-0.286-0.459-0.57l0.004-0.031l0.007-0.043
						c0.266-1.532,0.542-3.061,0.855-4.583c0.146-0.763,0.31-1.522,0.478-2.281c0.169-0.758,0.323-1.52,0.509-2.274
						c0.353-1.514,0.729-3.022,1.138-4.524c0.205-0.751,0.413-1.501,0.648-2.246C162.709,203.032,162.927,202.284,163.187,201.544z"
						/>
				</g>
				<path style="fill:#FFFFFF;" d="M162.77,226.262c0,0,10.605,10.605,21.21-1.178"/>
				<g>
					<path style="fill:#54201C;" d="M206.352,214.351c0.421-0.413,0.8-0.867,1.096-1.349c0.143-0.242,0.269-0.497,0.323-0.752
						c0.038-0.127,0.058-0.253,0.046-0.374c0.016-0.124-0.019-0.236-0.056-0.343c-0.013-0.113-0.096-0.203-0.152-0.298
						c-0.041-0.103-0.156-0.173-0.24-0.255c-0.079-0.086-0.18-0.158-0.304-0.213l-0.339-0.185l-0.384-0.136
						c-0.13-0.042-0.244-0.106-0.386-0.131l-0.813-0.193c-0.22-0.052-0.372-0.241-0.387-0.455l-0.001-0.017
						c-0.065-0.918-0.056-1.81-0.013-2.717c0.036-0.904,0.135-1.81,0.299-2.712c0.173-0.9,0.381-1.81,0.778-2.684
						c0.192-0.438,0.423-0.87,0.73-1.275c0.304-0.4,0.671-0.791,1.15-1.062c0.476-0.271,1.034-0.409,1.566-0.407
						c0.154,0.009,0.218-0.007,0.446,0.027l0.326,0.066c0.22,0.05,0.419,0.061,0.693,0.193c1.051,0.391,1.744,1.252,2.064,2.174
						c0.318,0.922,0.369,1.863,0.289,2.768c-0.083,0.905-0.242,1.793-0.542,2.636c0.087-0.887,0.12-1.771,0.052-2.638
						c-0.08-0.861-0.229-1.718-0.584-2.44c-0.328-0.72-0.938-1.279-1.581-1.454c-0.124-0.078-0.375-0.097-0.589-0.131l-0.329-0.049
						l-0.217,0.008c-0.352,0.02-0.674,0.12-0.962,0.302c-0.574,0.372-1.027,1.04-1.334,1.793c-0.314,0.752-0.542,1.573-0.711,2.409
						c-0.318,1.678-0.483,3.434-0.524,5.157l-0.388-0.472l0.882,0.291c0.147,0.039,0.29,0.127,0.434,0.189l0.426,0.21
						c0.138,0.087,0.272,0.19,0.406,0.285c0.137,0.087,0.263,0.199,0.374,0.341c0.112,0.135,0.241,0.247,0.307,0.426
						c0.074,0.167,0.172,0.321,0.174,0.51c0.029,0.182,0.041,0.359-0.004,0.529c-0.018,0.176-0.072,0.333-0.142,0.482
						c-0.123,0.304-0.31,0.559-0.505,0.794C207.332,213.671,206.859,214.045,206.352,214.351z"/>
				</g>
				<g>
					<path style="fill:#1C171E;" d="M169.964,197.555c0,0,0.041-0.426,0.253-1.135c0.215-0.705,0.593-1.703,1.284-2.8
						c0.687-1.091,1.704-2.292,3.155-3.254c0.726-0.476,1.566-0.87,2.473-1.139c0.913-0.265,1.89-0.357,2.855-0.333
						c0.955,0.083,1.909,0.239,2.758,0.577c0.439,0.139,0.843,0.329,1.231,0.534c0.401,0.186,0.76,0.412,1.107,0.643
						c0.356,0.221,0.682,0.459,0.983,0.715c0.306,0.249,0.609,0.483,0.864,0.752c0.26,0.26,0.512,0.514,0.757,0.759
						c0.219,0.264,0.431,0.518,0.635,0.762c0.412,0.48,0.711,0.982,0.991,1.407c0.291,0.415,0.488,0.82,0.655,1.146
						c0.333,0.653,0.486,1.046,0.486,1.046s-0.383-0.201-0.988-0.586c-0.3-0.19-0.665-0.42-1.083-0.684
						c-0.42-0.253-0.87-0.56-1.381-0.848c-0.495-0.311-1.034-0.626-1.605-0.931c-0.279-0.166-0.572-0.311-0.872-0.454
						c-0.299-0.146-0.592-0.31-0.907-0.425c-0.613-0.273-1.25-0.508-1.887-0.675c-0.639-0.189-1.28-0.272-1.915-0.322
						c-0.634-0.026-1.261,0.019-1.88,0.131c-0.614,0.137-1.222,0.318-1.809,0.57c-1.168,0.512-2.248,1.225-3.151,1.923
						c-0.916,0.689-1.65,1.365-2.18,1.841C170.266,197.272,169.964,197.555,169.964,197.555z"/>
				</g>
				<g>
					<path style="fill:#1C171E;" d="M160.633,197.125c0,0-0.265-0.245-0.728-0.673c-0.454-0.42-1.09-1.008-1.846-1.651
						c-0.754-0.639-1.627-1.346-2.574-1.921c-0.469-0.3-0.967-0.531-1.457-0.743c-0.495-0.205-0.996-0.332-1.497-0.417
						c-0.501-0.083-1.008-0.083-1.523-0.047c-0.256,0.027-0.515,0.077-0.776,0.11c-0.258,0.074-0.519,0.117-0.778,0.197
						c-0.518,0.154-1.026,0.355-1.522,0.556c-0.482,0.235-0.967,0.435-1.397,0.679c-0.885,0.444-1.646,0.873-2.185,1.177
						c-0.54,0.304-0.887,0.46-0.887,0.46s0.118-0.348,0.39-0.926c0.133-0.291,0.303-0.644,0.551-1.009
						c0.231-0.381,0.503-0.81,0.865-1.23c0.338-0.442,0.779-0.864,1.257-1.311c0.508-0.416,1.074-0.84,1.741-1.19
						c0.664-0.349,1.419-0.641,2.239-0.795c0.82-0.161,1.696-0.172,2.551-0.051c0.845,0.157,1.675,0.407,2.391,0.803
						c0.717,0.384,1.366,0.841,1.896,1.351c1.085,1.004,1.801,2.126,2.29,3.118c0.477,1.003,0.736,1.882,0.862,2.511
						C160.627,196.751,160.633,197.125,160.633,197.125z"/>
				</g>
			</g>
		</g>
		<g>
			<g>
				<g>
					<path style="fill:#FFA65B;" d="M151.772,254.149c0,0-6.021,31.686,17.282,34.172c29.458,3.142,37.314-34.957,37.314-34.957
						s16.889-12.962,29.066,1.964c12.176,14.926-3.928,78.949-16.104,94.267l-91.517-5.892
						C127.812,343.703,106.995,245.901,151.772,254.149z"/>
					<path style="fill:#EF924D;" d="M235.434,255.327c-3.711-4.549-7.859-6.499-11.834-7.024
						c-1.512,10.939-10.449,20.77-18.037,27.979c-9.531,9.055-20.166,16.445-32.425,21.344
						c-16.036,6.408-32.862,9.304-49.817,11.674c1.1,18.464,4.491,34.402,4.491,34.402l91.518,5.892
						C231.506,334.276,247.61,270.253,235.434,255.327z"/>
				</g>
				<g>
					<path style="fill:#DD7128;" d="M239.51,267.146l0.173,5.388l-0.006,5.393l-0.189,5.391l-0.375,5.383l-0.563,5.368l-0.752,5.347
						l-0.959,5.315l-1.149,5.278l-1.335,5.235l-1.516,5.187l-1.693,5.132l-1.865,5.073l-2.031,5.009l-2.2,4.938l-2.361,4.863
						l-2.508,4.789l-0.155,0.296l-0.341-0.026c-7.657-0.595-15.311-1.22-22.96-1.876l-22.949-1.887l-11.478-0.838l-11.487-0.673
						l-11.495-0.453l-11.501-0.176l-0.444-0.007l-0.059-0.432c-0.903-6.612-1.955-13.213-2.893-19.836
						c-0.934-6.622-1.742-13.276-2.092-19.968c-0.084-1.673-0.141-3.347-0.168-5.022c-0.022-1.675,0-3.351,0.054-5.025
						c0.064-1.674,0.166-3.346,0.307-5.016l0.257-2.499l0.332-2.49l0.411-2.478l0.495-2.462l0.582-2.442l0.671-2.419l0.763-2.391
						l0.855-2.358l0.949-2.321l1.042-2.28l-1.001,2.297l-0.907,2.335l-0.812,2.369l-0.718,2.398l-0.626,2.423l-0.537,2.444
						l-0.449,2.461l-0.366,2.474l-0.287,2.484l-0.212,2.491c-0.11,1.663-0.183,3.328-0.217,4.995
						c-0.024,1.667-0.012,3.333,0.021,4.999c0.044,1.666,0.117,3.332,0.217,4.996c0.414,6.657,1.285,13.28,2.284,19.881
						c0.994,6.604,2.143,13.19,3.05,19.823l-0.503-0.439l11.529,0.139l11.52,0.416l11.508,0.636l11.495,0.801
						c7.657,0.596,15.308,1.264,22.955,1.939c7.647,0.681,15.295,1.33,22.944,1.95l-0.496,0.269l2.51-4.753l2.364-4.827l2.22-4.895
						l2.07-4.96l1.906-5.026l1.736-5.088l1.561-5.145l1.381-5.197l1.197-5.243l1.012-5.283l0.845-5.314l0.658-5.342l0.471-5.364
						l0.286-5.378l0.103-5.386L239.51,267.146z"/>
				</g>
			</g>
			<g>
				<g>
					<g>
						<path style="fill:#5D8584;" d="M81.268,266.325c0,0-66.576-2.946-67.165-68.343C14.103,197.982,81.857,197.982,81.268,266.325
							z"/>
						<path style="fill:#5D8584;" d="M87.16,219.192c0,0-40.063-29.458-21.799-83.662C65.36,135.53,111.905,162.042,87.16,219.192z"
							/>
						<path style="fill:#5D8584;" d="M101.889,232.743c0,0-19.442-61.863,19.443-101.926
							C121.331,130.817,146.077,175.004,101.889,232.743z"/>
						<path style="fill:#5D8584;" d="M107.191,271.628c0,0-8.838-47.723,32.993-53.614
							C140.185,218.014,138.417,262.79,107.191,271.628z"/>
					</g>
					<g>
						
							<path style="fill:none;stroke:#396666;stroke-width:2.3567;stroke-linecap:round;stroke-linejoin:round;stroke-miterlimit:10;" d="
							M30.01,209.765c0,0,61.273,33.583,65.398,113.709c0,0,1.768-101.926-21.21-165.556"/>
						
							<path style="fill:none;stroke:#396666;stroke-width:2.3567;stroke-linecap:round;stroke-linejoin:round;stroke-miterlimit:10;" d="
							M115.44,156.151c0,0-22.388,103.694-15.907,157.897c0,0-2.946-43.598,27.691-75.413"/>
					</g>
				</g>
				<g>
					<g>
						<polygon style="fill:#FC6A5A;" points="64.825,295.245 74.323,356.664 127.92,356.664 137.418,292.012 						"/>
						<path style="fill:#EA4134;" d="M134.382,312.677l3.036-20.665l-72.592,3.233l2.322,15.014
							C89.548,311.391,111.962,312.137,134.382,312.677z"/>
					</g>
					<rect x="53.97" y="283.608" style="fill:#FC6A5A;" width="89.553" height="16.809"/>
				</g>
			</g>
			<g>
				<g>
					<g>
						<g>
							<path style="fill:#965450;" d="M229.149,294.605c0,0-22.388,71.289-35.35,76.592c-12.962,5.302-61.863-38.885-61.863-38.885
								s-50.395,11.291-9.29-2.603c0,0-43.146,6.727-1.315-4.467c0,0-34.172,4.713-0.589-4.713c0,0-40.063,1.178,11.783-5.892
								c0,0-24.156-21.799,5.303-0.589l44.777,25.923c0,0,20.032-77.181,28.28-80.127
								C219.133,256.899,229.149,294.605,229.149,294.605z"/>
							<path style="fill:#76413B;" d="M192.928,305.008c6.431,4.641,13.658,8.387,21.196,10.871c2.346,0.773,4.71,1.44,7.086,2.036
								c4.712-13.035,7.939-23.309,7.939-23.309s-10.016-37.707-18.264-34.761c-4.383,1.565-12.093,24.091-18.357,44.86
								C192.663,304.804,192.792,304.91,192.928,305.008z"/>
						</g>
						<g>
							<path style="fill:#54201C;" d="M196.352,291.07l-13.486,48.974c-0.04,0.144-0.188,0.228-0.332,0.189
								c-0.022-0.006-0.046-0.017-0.065-0.027l-44.871-25.761l-0.038-0.025c-2.101-1.501-4.21-2.991-6.339-4.446
								c-2.131-1.441-4.275-2.908-6.494-4.129c-0.277-0.148-0.556-0.287-0.829-0.404c-0.135-0.057-0.271-0.107-0.384-0.137
								c-0.05-0.012-0.106-0.019-0.106-0.019c0.007,0,0.025,0.004,0.103-0.028c0.07-0.025,0.19-0.16,0.198-0.241
								c0.024-0.156-0.003-0.109,0.02-0.08c0.015,0.037,0.041,0.091,0.074,0.147c0.065,0.113,0.148,0.235,0.236,0.355
								c0.177,0.242,0.377,0.484,0.582,0.722c0.827,0.954,1.735,1.869,2.646,2.773c1.832,1.803,3.724,3.563,5.628,5.294
								c0.226,0.204,0.243,0.552,0.039,0.778c-0.09,0.1-0.21,0.159-0.333,0.176c-3.476,0.479-6.95,0.973-10.417,1.504
								c-3.465,0.535-6.929,1.092-10.355,1.774c-0.855,0.173-1.708,0.355-2.551,0.558c-0.834,0.206-1.693,0.424-2.424,0.729
								c-0.164,0.067-0.365,0.185-0.374,0.204c0.007-0.01,0.034-0.021,0.07-0.155c0.033-0.133-0.045-0.3-0.084-0.33
								c-0.065-0.064-0.007-0.008,0.055,0.01c0.293,0.113,0.736,0.185,1.144,0.24c0.839,0.108,1.708,0.162,2.575,0.203
								c3.478,0.145,6.992,0.101,10.487,0.014c0.328-0.009,0.602,0.25,0.611,0.578c0.008,0.277-0.178,0.516-0.433,0.589
								c-2.518,0.711-5.031,1.442-7.518,2.232c-1.243,0.396-2.481,0.806-3.695,1.255c-0.606,0.225-1.208,0.46-1.787,0.718
								c-0.288,0.129-0.573,0.264-0.833,0.409c-0.131,0.072-0.254,0.148-0.358,0.223c-0.098,0.062-0.201,0.177-0.165,0.135
								c0.021-0.004,0.071-0.225-0.019-0.363c-0.077-0.116-0.096-0.096-0.074-0.091c0.05,0.024,0.18,0.063,0.313,0.085
								c0.272,0.049,0.584,0.072,0.894,0.086c0.626,0.026,1.271,0.015,1.915-0.008c1.291-0.049,2.591-0.15,3.889-0.267
								c2.596-0.239,5.197-0.546,7.781-0.895c0.344-0.047,0.66,0.194,0.707,0.537c0.043,0.316-0.159,0.61-0.459,0.691
								c-3.15,0.848-6.294,1.715-9.415,2.643c-1.559,0.466-3.115,0.945-4.646,1.467c-0.765,0.261-1.526,0.534-2.261,0.834
								c-0.365,0.151-0.729,0.308-1.055,0.482c-0.16,0.085-0.319,0.18-0.415,0.257c-0.043,0.024-0.077,0.096-0.011-0.023
								c0.027-0.041,0.065-0.267-0.019-0.399c-0.085-0.143-0.122-0.146-0.142-0.164c-0.021-0.003,0.184,0.056,0.343,0.07
								c0.173,0.022,0.362,0.034,0.554,0.041c0.384,0.014,0.782,0.01,1.18-0.002c0.798-0.025,1.605-0.079,2.412-0.144
								c1.614-0.132,3.232-0.308,4.848-0.499c3.232-0.387,6.465-0.835,9.684-1.324c0.342-0.053,0.663,0.181,0.716,0.523
								c0.048,0.305-0.136,0.594-0.419,0.691c-3.429,1.159-6.854,2.338-10.224,3.627c-0.842,0.323-1.679,0.656-2.505,1.004
								c-0.821,0.35-1.648,0.713-2.393,1.13c-0.183,0.104-0.363,0.214-0.504,0.321c-0.067,0.051-0.13,0.108-0.149,0.13
								c-0.004,0.005,0.007,0.003,0.033-0.078c0.037-0.078,0.001-0.323-0.091-0.398c-0.144-0.133-0.085-0.056-0.025-0.058
								c0.063,0.016,0.16,0.026,0.251,0.035c0.192,0.015,0.404,0.017,0.618,0.013c0.861-0.022,1.757-0.122,2.644-0.231
								c3.563-0.466,7.126-1.143,10.676-1.832c3.55-0.699,7.098-1.442,10.631-2.222c0.19-0.042,0.382,0.016,0.517,0.136
								c4.913,4.399,9.956,8.677,15.072,12.85c5.124,4.166,10.339,8.22,15.686,12.087c5.357,3.843,10.842,7.545,16.671,10.589
								c2.917,1.484,5.934,2.878,9.103,3.537c1.565,0.307,3.228,0.448,4.665-0.088c1.439-0.57,2.634-1.706,3.722-2.904
								c2.157-2.44,3.915-5.249,5.56-8.096c1.636-2.859,3.139-5.799,4.566-8.774c2.856-5.952,5.458-12.031,7.929-18.16
								c4.923-12.269,9.382-24.727,13.52-37.287c-3.995,12.608-8.312,25.118-13.1,37.454c-2.409,6.162-4.928,12.285-7.749,18.28
								c-1.414,2.995-2.904,5.957-4.534,8.849c-1.642,2.881-3.391,5.727-5.602,8.263c-1.111,1.234-2.37,2.478-4.021,3.147
								c-0.836,0.325-1.721,0.433-2.581,0.426c-0.862-0.004-1.714-0.098-2.543-0.268c-3.326-0.673-6.387-2.074-9.357-3.559
								c-2.967-1.509-5.82-3.213-8.622-4.987c-2.798-1.782-5.539-3.648-8.238-5.569c-5.402-3.839-10.637-7.901-15.783-12.068
								c-5.141-4.175-10.196-8.444-15.145-12.857l0.516,0.136c-3.545,0.79-7.093,1.541-10.655,2.25
								c-3.564,0.699-7.127,1.386-10.754,1.868c-0.911,0.113-1.818,0.219-2.77,0.246c-0.239,0.005-0.481,0.005-0.741-0.015
								c-0.134-0.013-0.264-0.024-0.421-0.06c-0.157-0.054-0.33-0.04-0.633-0.338c-0.164-0.161-0.233-0.527-0.158-0.715
								c0.058-0.19,0.134-0.287,0.199-0.371c0.128-0.152,0.241-0.24,0.352-0.328c0.22-0.167,0.429-0.291,0.639-0.412
								c0.838-0.47,1.674-0.835,2.518-1.198c0.843-0.358,1.69-0.697,2.54-1.025c3.399-1.308,6.829-2.498,10.265-3.667l0.297,1.214
								c-3.237,0.499-6.473,0.955-9.725,1.351c-1.626,0.196-3.255,0.377-4.895,0.514c-0.821,0.068-1.643,0.125-2.477,0.153
								c-0.417,0.013-0.837,0.019-1.269,0.004c-0.216-0.008-0.435-0.021-0.667-0.049c-0.243-0.042-0.452-0.04-0.836-0.236
								c-0.104-0.072-0.232-0.133-0.361-0.372c-0.128-0.222-0.092-0.56-0.016-0.693c0.15-0.307,0.278-0.373,0.39-0.478
								c0.225-0.176,0.422-0.284,0.622-0.392c0.396-0.209,0.783-0.373,1.173-0.534c0.777-0.315,1.555-0.592,2.335-0.857
								c1.56-0.528,3.128-1.007,4.698-1.473c3.141-0.927,6.295-1.79,9.454-2.633l0.248,1.229c-2.611,0.347-5.217,0.65-7.842,0.886
								c-1.312,0.116-2.627,0.215-3.955,0.263c-0.665,0.022-1.331,0.034-2.015,0.004c-0.344-0.018-0.687-0.04-1.06-0.108
								c-0.189-0.037-0.38-0.075-0.628-0.19c-0.122-0.068-0.287-0.139-0.449-0.397c-0.183-0.279-0.099-0.686,0.002-0.829
								c0.199-0.329,0.367-0.417,0.53-0.548c0.163-0.115,0.32-0.21,0.476-0.296c0.312-0.174,0.621-0.317,0.931-0.456
								c0.619-0.275,1.24-0.514,1.862-0.744c1.245-0.457,2.497-0.868,3.752-1.266c2.51-0.792,5.034-1.519,7.561-2.228l0.178,1.167
								c-3.525,0.08-7.038,0.118-10.577-0.037c-0.886-0.044-1.771-0.1-2.673-0.218c-0.459-0.07-0.894-0.119-1.424-0.317
								c-0.139-0.066-0.286-0.105-0.501-0.332c-0.111-0.112-0.23-0.392-0.175-0.633c0.052-0.245,0.155-0.344,0.233-0.436
								c0.308-0.289,0.519-0.351,0.751-0.465c0.893-0.367,1.746-0.57,2.614-0.786c0.865-0.207,1.73-0.389,2.595-0.562
								c3.463-0.682,6.936-1.232,10.411-1.761c3.476-0.525,6.956-1.013,10.437-1.485l-0.294,0.954
								c-1.92-1.746-3.803-3.52-5.642-5.355c-0.917-0.922-1.826-1.849-2.686-2.853c-0.214-0.253-0.425-0.511-0.628-0.791
								c-0.101-0.141-0.201-0.286-0.296-0.454c-0.048-0.084-0.095-0.174-0.138-0.288c-0.033-0.12-0.112-0.235-0.052-0.551
								c0.028-0.157,0.198-0.366,0.345-0.42c0.151-0.069,0.252-0.072,0.339-0.075c0.164,0.001,0.266,0.029,0.372,0.053
								c0.199,0.054,0.365,0.12,0.528,0.189c0.32,0.139,0.618,0.292,0.91,0.45c2.302,1.288,4.421,2.762,6.561,4.228
								c2.129,1.475,4.233,2.98,6.328,4.498l-0.038-0.025l44.682,26.086l-0.396,0.161L196.352,291.07z"/>
						</g>
					</g>
					<g>
						<path style="fill:#FFA65B;" d="M188.497,295.194c0,0,12.962-51.847,37.118-47.133c24.156,4.713,6.481,51.847,2.357,62.452
							C227.971,310.513,207.35,310.513,188.497,295.194z"/>
						<g>
							<path style="fill:#DD7128;" d="M225.614,248.061l2.117,0.513c0.678,0.261,1.362,0.523,2.035,0.81
								c0.621,0.381,1.287,0.702,1.872,1.141l0.856,0.691l0.428,0.347l0.373,0.404c0.499,0.539,1.017,1.065,1.404,1.693l0.629,0.907
								l0.512,0.976c0.371,0.639,0.629,1.327,0.892,2.013c0.297,0.676,0.461,1.393,0.671,2.097c0.387,1.416,0.627,2.869,0.783,4.325
								c0.107,0.727,0.128,1.458,0.174,2.189c0.058,0.731,0.062,1.462,0.062,2.193c0.013,0.732,0.007,1.463-0.033,2.193
								c-0.032,0.73-0.044,1.462-0.115,2.189c-0.096,1.459-0.263,2.909-0.435,4.359c-0.206,1.444-0.412,2.89-0.677,4.324
								c-0.246,1.438-0.543,2.867-0.863,4.289c-0.631,2.847-1.367,5.668-2.177,8.467c-1.617,5.598-3.512,11.112-5.608,16.543
								l-0.146,0.378l-0.396-0.007c-1.853-0.032-3.637-0.232-5.437-0.474c-0.892-0.151-1.79-0.269-2.676-0.448
								c-0.885-0.185-1.779-0.326-2.655-0.551c-0.877-0.219-1.765-0.393-2.632-0.65c-0.868-0.25-1.743-0.477-2.606-0.745
								l-2.574-0.847c-0.854-0.295-1.69-0.638-2.536-0.954c-0.85-0.306-1.676-0.673-2.501-1.042
								c-0.82-0.377-1.665-0.702-2.465-1.123l-2.416-1.227c-0.815-0.39-1.571-0.891-2.359-1.332
								c-0.772-0.468-1.58-0.878-2.314-1.406l-2.244-1.517c-0.762-0.485-1.46-1.061-2.176-1.609l-2.14-1.656l-0.21-0.162l0.07-0.256
								c0.348-1.271,0.706-2.525,1.103-3.773c0.38-1.252,0.783-2.496,1.214-3.73c0.412-1.241,0.84-2.476,1.31-3.696
								c0.467-1.221,0.891-2.458,1.415-3.656l1.521-3.613c0.246-0.605,0.55-1.185,0.822-1.779l0.839-1.771l0.839-1.77
								c0.298-0.581,0.619-1.15,0.932-1.723l1.887-3.43l-1.749,3.5l-0.872,1.749l-0.785,1.791l-0.784,1.79
								c-0.254,0.6-0.539,1.185-0.767,1.796l-1.409,3.644c-0.49,1.206-0.865,2.456-1.315,3.677c-0.446,1.223-0.85,2.46-1.238,3.703
								c-0.407,1.236-0.785,2.481-1.14,3.733c-0.372,1.245-0.707,2.506-1.026,3.757l-0.139-0.418l2.144,1.598
								c0.717,0.528,1.415,1.084,2.176,1.549l2.24,1.456c0.733,0.506,1.538,0.896,2.299,1.357c0.78,0.429,1.526,0.919,2.332,1.299
								l2.388,1.195c0.79,0.41,1.626,0.725,2.436,1.092c0.814,0.359,1.63,0.716,2.469,1.012c0.835,0.307,1.661,0.64,2.504,0.925
								l2.54,0.82c0.851,0.258,1.714,0.477,2.57,0.718c0.854,0.249,1.73,0.413,2.594,0.624c0.863,0.217,1.744,0.349,2.615,0.526
								c0.873,0.171,1.755,0.281,2.632,0.424c1.755,0.221,3.542,0.413,5.276,0.461l-0.542,0.371
								c2.119-5.393,4.035-10.864,5.675-16.418c0.821-2.776,1.569-5.573,2.211-8.393c0.323-1.409,0.629-2.823,0.904-4.242
								c0.288-1.417,0.517-2.843,0.747-4.27c0.196-1.431,0.387-2.863,0.507-4.301c0.083-0.718,0.107-1.439,0.152-2.159
								c0.053-0.72,0.072-1.44,0.072-2.161c0.013-0.721,0.022-1.442-0.022-2.161c-0.033-0.719-0.041-1.441-0.133-2.155
								c-0.122-1.433-0.349-2.857-0.679-4.253c-0.184-0.693-0.324-1.402-0.595-2.067c-0.237-0.677-0.469-1.358-0.812-1.989
								l-0.471-0.967l-0.587-0.9c-0.359-0.626-0.849-1.151-1.321-1.693l-0.353-0.407l-0.408-0.35l-0.819-0.702
								c-0.56-0.449-1.208-0.779-1.807-1.18c-0.65-0.306-1.314-0.592-1.979-0.879L225.614,248.061z"/>
						</g>
					</g>
				</g>
				<g>
					<path style="fill:#965450;" d="M59.369,322.215c0,0-5.328-11.715-1.994-14.516c3.334-2.801,33.631-0.194,7.74,4.076
						c0,0,45.275-2.719,2.896,5.291c0,0,35.882-3.547,2.146,3.818c0,0,28.619-1.218-0.588,3.882l1.391,9.04
						C70.959,333.805,68.228,336.947,59.369,322.215z"/>
					<g>
						<path style="fill:#54201C;" d="M59.369,322.215c-0.793-1.708-1.503-3.458-2.088-5.254c-0.573-1.797-1.072-3.636-1.197-5.551
							c-0.054-0.951-0.017-1.946,0.377-2.884c0.188-0.467,0.534-0.903,0.957-1.195c0.48-0.292,0.931-0.426,1.406-0.556
							c1.882-0.464,3.786-0.55,5.681-0.602c1.897-0.034,3.794,0.029,5.688,0.21c0.947,0.094,1.894,0.214,2.84,0.407
							c0.473,0.098,0.947,0.212,1.423,0.375c0.238,0.08,0.478,0.181,0.72,0.309c0.235,0.142,0.513,0.288,0.717,0.694
							c0.095,0.209,0.101,0.502,0.011,0.7c-0.08,0.213-0.199,0.342-0.31,0.457c-0.227,0.229-0.455,0.354-0.682,0.49
							c-0.455,0.25-0.911,0.426-1.368,0.595c-0.916,0.323-1.837,0.575-2.761,0.804c-1.848,0.462-3.712,0.79-5.575,1.113
							l-0.125-1.113c3.349-0.201,6.693-0.353,10.048-0.439c1.677-0.041,3.356-0.063,5.04-0.043c0.842,0.011,1.686,0.032,2.534,0.079
							c0.851,0.052,1.695,0.108,2.587,0.286c0.227,0.052,0.455,0.106,0.717,0.215l0.206,0.1c0.079,0.047,0.169,0.117,0.247,0.183
							c0.086,0.077,0.202,0.245,0.253,0.396c0.049,0.187,0.041,0.449-0.023,0.554c-0.27,0.54-0.515,0.584-0.725,0.742
							c-0.217,0.13-0.423,0.221-0.631,0.319c-0.821,0.349-1.631,0.601-2.447,0.845c-1.628,0.477-3.265,0.861-4.904,1.228
							c-3.279,0.727-6.568,1.365-9.861,1.98l-0.172-1.196c2.659-0.246,5.314-0.456,7.98-0.616c1.333-0.079,2.667-0.144,4.007-0.178
							c0.67-0.016,1.342-0.024,2.019-0.013c0.68,0.015,1.349,0.03,2.079,0.152c0.192,0.041,0.365,0.063,0.617,0.179
							c0.115,0.067,0.309,0.129,0.467,0.467c0.126,0.417-0.109,0.692-0.192,0.777c-0.42,0.392-0.716,0.465-1.053,0.625
							c-0.651,0.266-1.294,0.467-1.941,0.663c-1.292,0.382-2.587,0.712-3.884,1.026c-2.596,0.625-5.2,1.186-7.808,1.731
							l-0.103-0.798c2.205-0.064,4.404-0.091,6.61-0.061c1.103,0.015,2.206,0.053,3.311,0.14c0.553,0.044,1.106,0.1,1.664,0.199
							c0.281,0.056,0.558,0.109,0.859,0.244c0.08,0.046,0.157,0.08,0.246,0.176c0.095,0.077,0.159,0.301,0.089,0.444
							c-0.13,0.257-0.276,0.299-0.407,0.392c-0.532,0.285-1.061,0.431-1.595,0.591c-0.534,0.153-1.07,0.281-1.607,0.408
							c-1.075,0.247-2.154,0.463-3.235,0.668c-2.161,0.414-4.334,0.75-6.506,1.086c2.156-0.425,4.308-0.874,6.452-1.346
							c1.071-0.239,2.14-0.49,3.199-0.769c0.528-0.143,1.056-0.287,1.574-0.454c0.511-0.168,1.043-0.344,1.473-0.595
							c0.095-0.054,0.206-0.156,0.191-0.156c-0.018,0.015,0.011,0.087,0.002,0.071c-0.004-0.008-0.053-0.033-0.092-0.055
							c-0.204-0.084-0.472-0.136-0.731-0.176c-0.527-0.075-1.07-0.114-1.613-0.139c-1.088-0.048-2.183-0.051-3.278-0.049
							c-2.189,0.013-4.385,0.085-6.572,0.191c-0.223,0.011-0.412-0.161-0.423-0.383c-0.01-0.198,0.126-0.37,0.313-0.413l0.007-0.001
							c2.591-0.595,5.178-1.207,7.743-1.879c1.282-0.337,2.559-0.691,3.812-1.089c0.623-0.201,1.247-0.413,1.823-0.662
							c0.264-0.112,0.603-0.294,0.667-0.364c0.038-0.026-0.116,0.082-0.028,0.335c0.08,0.188,0.129,0.154,0.095,0.152
							c-0.049-0.028-0.209-0.064-0.341-0.087c-0.584-0.095-1.25-0.114-1.899-0.122c-0.654-0.007-1.313,0.006-1.972,0.026
							c-1.32,0.042-2.643,0.115-3.966,0.202c-2.645,0.177-5.295,0.403-7.933,0.665c-0.332,0.033-0.628-0.21-0.661-0.542
							c-0.031-0.313,0.187-0.594,0.49-0.654c3.28-0.634,6.555-1.292,9.804-2.035c1.623-0.373,3.239-0.774,4.827-1.218
							c0.788-0.229,1.579-0.473,2.3-0.775c0.171-0.079,0.348-0.157,0.49-0.242c0.139-0.055,0.279-0.242,0.186-0.086
							c0.005,0.015-0.05,0.165,0.005,0.249c0.004,0.063,0.067,0.133,0.079,0.14c-0.007,0.004,0.004,0.006-0.006-0.003l-0.077-0.036
							c-0.123-0.054-0.302-0.102-0.482-0.144c-0.748-0.156-1.578-0.224-2.395-0.277c-0.822-0.051-1.65-0.078-2.48-0.094
							c-1.661-0.03-3.328-0.019-4.995,0.011c-3.334,0.063-6.676,0.193-10.006,0.372l-0.005,0c-0.309,0.017-0.573-0.221-0.59-0.53
							c-0.015-0.288,0.192-0.537,0.47-0.583c1.85-0.3,3.695-0.638,5.512-1.043c0.907-0.206,1.809-0.434,2.675-0.721
							c0.428-0.148,0.856-0.306,1.23-0.503c0.178-0.099,0.367-0.208,0.471-0.316c0.054-0.049,0.094-0.104,0.094-0.113
							c0.01-0.017,0,0.024,0.009,0.017c-0.003-0.024-0.133-0.161-0.301-0.25c-0.172-0.094-0.364-0.183-0.572-0.257
							c-0.411-0.151-0.853-0.268-1.299-0.369c-0.895-0.201-1.817-0.338-2.741-0.447c-1.851-0.214-3.723-0.314-5.591-0.317
							c-1.863,0.006-3.75,0.083-5.545,0.455c-0.436,0.097-0.897,0.241-1.231,0.427c-0.355,0.23-0.634,0.553-0.813,0.954
							c-0.368,0.795-0.449,1.737-0.422,2.655c0.06,1.854,0.492,3.699,1.005,5.5C58.029,318.695,58.646,320.476,59.369,322.215z"/>
					</g>
				</g>
			</g>
		</g>
	</g>
</g>
</svg>
