<?xml version="1.0" encoding="utf-8"?>
<!-- Generator: Adobe Illustrator 27.5.0, SVG Export Plug-In . SVG Version: 6.00 Build 0)  -->
<svg version="1.1" xmlns="http://www.w3.org/2000/svg" xmlns:xlink="http://www.w3.org/1999/xlink" x="0px" y="0px"
	 viewBox="0 0 500 500" style="enable-background:new 0 0 500 500;" xml:space="preserve">
<g id="Background_Simple">
	<g>
		<path style="fill:#92E3A9;" d="M411.444,108.873c-17.004-17.621-36.481-32.268-57.187-42.528
			c-31.53-15.623-66.258-23.153-100.99-23.601c-101.504-1.308-109.231,125.055-140.44,142.625
			c-31.209,17.57-87.774,19.637-89.726,89.915c-1.227,44.203,8.51,89.656,35.892,124.096c25.079,31.543,61.923,47.53,98.22,59.341
			c40.761,13.264,83.991,26.274,126.867,17.325c44.001-9.183,74.914-46.105,111.049-71.054
			c22.752-15.709,43.173-32.251,57.22-57.459c1.678-3.011,3.254-6.088,4.75-9.205c18.806-39.17,22.493-84.351,12.122-126.738
			C459.916,173.556,438.907,137.334,411.444,108.873z"/>
		<path style="opacity:0.7;fill:#FFFFFF;" d="M411.444,108.873c-17.004-17.621-36.481-32.268-57.187-42.528
			c-31.53-15.623-66.258-23.153-100.99-23.601c-101.504-1.308-109.231,125.055-140.44,142.625
			c-31.209,17.57-87.774,19.637-89.726,89.915c-1.227,44.203,8.51,89.656,35.892,124.096c25.079,31.543,61.923,47.53,98.22,59.341
			c40.761,13.264,83.991,26.274,126.867,17.325c44.001-9.183,74.914-46.105,111.049-71.054
			c22.752-15.709,43.173-32.251,57.22-57.459c1.678-3.011,3.254-6.088,4.75-9.205c18.806-39.17,22.493-84.351,12.122-126.738
			C459.916,173.556,438.907,137.334,411.444,108.873z"/>
	</g>
</g>
<g id="Plant">
	<g>
		<path style="fill:#263238;" d="M288.359,317.527c1.772,1.236,6.544,2.077,6.548,2.077c0.049,0.009-0.401-3.313-0.453-3.52
			c-0.608-2.388-3.185-6.646-5.94-6.818c-1.984-0.124-3.444,1.595-3.371,3.501C285.218,314.714,286.849,316.474,288.359,317.527z"/>
		<path style="fill:#263238;" d="M287.253,331.614c1.956,0.696,6.441,0.312,6.797,0.28c0.196,2.507,0.6,5.063,1.152,7.627
			c0.314,1.466,0.675,2.934,1.057,4.4c-0.273-0.644-0.523-1.217-0.566-1.294c-1.217-2.143-4.827-5.569-7.529-5.008
			c-1.947,0.404-2.901,2.447-2.327,4.267c0.586,1.858,2.624,3.125,4.359,3.742c1.76,0.626,5.59,0.376,6.602,0.296
			c0.152,0.561,0.298,1.123,0.452,1.683c0.74,2.689,1.49,5.37,2.145,8.021c0.232,0.935,0.424,1.863,0.622,2.792
			c-0.244-0.572-0.454-1.051-0.493-1.12c-1.217-2.143-4.827-5.569-7.529-5.008c-1.947,0.404-2.901,2.448-2.327,4.267
			c0.586,1.858,2.624,3.125,4.358,3.742c1.679,0.597,5.216,0.398,6.42,0.309c0.173,0.957,0.348,1.915,0.472,2.85
			c0.071,0.641,0.183,1.252,0.218,1.899c0.048,0.64,0.096,1.273,0.143,1.901c0.046,1.212,0.102,2.462,0.118,3.645
			c0.018,0.823,0.019,1.607,0.022,2.397c-0.219-0.933-0.687-2.75-0.744-2.897c-0.878-2.302-3.927-6.235-6.684-6.09
			c-1.985,0.105-3.238,1.98-2.946,3.865c0.298,1.925,2.12,3.487,3.741,4.359c1.785,0.96,6.098,1.269,6.637,1.304
			c0.001,1.307-0.01,2.579-0.039,3.779c-0.055,2.438-0.159,4.627-0.275,6.516l1.765,0.352c0.081-1.967,0.143-4.274,0.145-6.848
			c0.004-1.328-0.018-2.746-0.055-4.203c0.341-0.063,2.281-0.431,4.048-1.002c1.086,1.776,4.285,4.24,4.7,4.555
			c-0.72,1.091-1.431,2.146-2.118,3.13c-1.302,1.876-2.519,3.544-3.604,4.99l1.903,0.38c0.94-1.325,1.967-2.811,3.054-4.451
			c0.736-1.105,1.5-2.301,2.273-3.536c0.488,0.208,4.484,1.885,6.513,1.834c1.84-0.047,4.171-0.617,5.306-2.2
			c1.112-1.55,0.84-3.79-0.884-4.779c-2.393-1.374-6.89,0.759-8.713,2.417c-0.108,0.098-1.156,1.289-1.805,2.052
			c0.314-0.506,0.623-0.994,0.939-1.52c0.632-1.034,1.232-2.085,1.882-3.214c0.295-0.555,0.592-1.117,0.893-1.684
			c0.31-0.556,0.567-1.182,0.856-1.778c0.641-1.395,1.223-2.84,1.776-4.309c0.907,0.551,4.156,2.462,5.991,2.696
			c1.825,0.233,4.216,0.022,5.578-1.371c1.334-1.364,1.405-3.618-0.15-4.858c-2.158-1.72-6.926-0.293-8.979,1.069
			c-0.128,0.085-1.491,1.228-2.228,1.871c0.326-0.886,0.656-1.768,0.957-2.674c0.868-2.617,1.666-5.293,2.473-7.959
			c0.247-0.817,0.503-1.628,0.756-2.44c0.32,0.2,4.134,2.555,6.188,2.817c1.826,0.233,4.216,0.022,5.578-1.371
			c1.333-1.364,1.405-3.618-0.15-4.858c-2.158-1.72-6.926-0.294-8.979,1.069c-0.155,0.103-2.114,1.751-2.592,2.195
			c0.558-1.79,1.131-3.568,1.766-5.298c0.874-2.388,1.863-4.683,2.986-6.836c0.149,0.094,4.118,2.57,6.222,2.838
			c1.826,0.233,4.216,0.022,5.578-1.371c1.333-1.364,1.405-3.618-0.15-4.858c-2.158-1.72-6.926-0.294-8.979,1.069
			c-0.161,0.107-2.268,1.882-2.627,2.231c0.067-0.128,0.123-0.268,0.191-0.395c1.228-2.282,2.704-4.34,4.181-6.198
			c0.856-1.082,1.734-2.068,2.611-3.008c0.692,0.537,3.881,2.956,5.747,3.407c1.789,0.432,4.189,0.485,5.695-0.75
			c1.475-1.209,1.794-3.442,0.385-4.845c-1.956-1.947-6.852-1.053-9.042,0.076c-0.119,0.061-1.261,0.82-2.085,1.384
			c0.402-0.418,0.809-0.857,1.202-1.25c1.472-1.479,2.911-2.742,4.195-3.851c0.735-0.625,1.412-1.175,2.051-1.683
			c0.954,0.173,4.807,0.82,6.638,0.369c1.787-0.441,3.941-1.5,4.709-3.29c0.752-1.753,0.005-3.882-1.892-4.477
			c-2.633-0.827-6.566,2.223-7.99,4.235c-0.123,0.174-1.734,3.113-1.685,3.123c0,0,0.046,0.009,0.058,0.011
			c-0.625,0.477-1.289,0.995-2.003,1.576c-1.311,1.083-2.781,2.319-4.292,3.772c-1.513,1.448-3.116,3.064-4.65,4.918
			c-1.541,1.857-3.067,3.888-4.368,6.184c-0.015,0.026-0.027,0.055-0.042,0.081c0.172-0.79,0.58-3.014,0.591-3.189
			c0.167-2.458-0.954-7.307-3.517-8.331c-1.846-0.736-3.77,0.442-4.295,2.276c-0.536,1.873,0.465,4.054,1.571,5.525
			c1.248,1.659,5.2,3.813,5.515,3.983c-1.219,2.199-2.292,4.554-3.247,6.997c-0.547,1.396-1.055,2.819-1.546,4.253
			c0.127-0.688,0.235-1.304,0.241-1.392c0.167-2.459-0.954-7.307-3.517-8.33c-1.847-0.737-3.77,0.441-4.295,2.275
			c-0.536,1.873,0.465,4.054,1.571,5.525c1.123,1.492,4.455,3.397,5.344,3.889c-0.183,0.552-0.371,1.101-0.551,1.654
			c-0.866,2.651-1.719,5.301-2.636,7.874c-0.322,0.907-0.673,1.788-1.021,2.671c0.112-0.611,0.201-1.126,0.206-1.207
			c0.168-2.458-0.954-7.307-3.517-8.33c-1.847-0.737-3.77,0.441-4.295,2.275c-0.536,1.872,0.465,4.054,1.571,5.525
			c1.071,1.425,4.131,3.21,5.185,3.8c-0.384,0.893-0.766,1.789-1.178,2.638c-0.294,0.573-0.538,1.145-0.866,1.704
			c-0.313,0.56-0.622,1.115-0.929,1.664c-0.63,1.036-1.273,2.109-1.912,3.105c-0.44,0.696-0.871,1.35-1.304,2.012
			c0.331-0.899,0.944-2.673,0.978-2.827c0.358-1.598,0.308-4.321-0.461-6.382c0.054-0.236,0.088-0.475,0.097-0.717
			c0.072-1.906-1.39-3.624-3.374-3.498c-2.754,0.174-5.329,4.434-5.934,6.823c-0.036,0.141-0.252,1.713-0.373,2.707
			c-0.018-0.595-0.029-1.173-0.055-1.785c-0.044-1.211-0.122-2.419-0.203-3.719c-0.061-0.626-0.122-1.259-0.184-1.897
			c-0.048-0.635-0.179-1.299-0.267-1.956c-0.235-1.517-0.547-3.044-0.896-4.574c1.061-0.041,4.825-0.239,6.484-1.056
			c1.651-0.813,3.529-2.308,3.896-4.221c0.36-1.873-0.824-3.793-2.805-3.969c-2.749-0.245-5.939,3.576-6.899,5.845
			c-0.06,0.142-0.566,1.847-0.826,2.79c-0.217-0.919-0.428-1.836-0.678-2.758c-0.719-2.662-1.53-5.333-2.327-8.003
			c-0.245-0.818-0.479-1.635-0.716-2.452c0.378-0.01,4.858-0.15,6.715-1.064c1.651-0.813,3.529-2.308,3.896-4.221
			c0.36-1.873-0.824-3.793-2.805-3.969c-2.749-0.245-5.939,3.576-6.899,5.845c-0.072,0.171-0.797,2.627-0.951,3.26
			c-0.522-1.8-1.025-3.599-1.449-5.393c-0.589-2.474-1.03-4.934-1.281-7.349c0.176-0.005,4.852-0.129,6.755-1.066
			c1.651-0.813,3.529-2.308,3.896-4.221c0.36-1.873-0.824-3.793-2.805-3.969c-2.749-0.245-5.939,3.576-6.899,5.845
			c-0.076,0.178-0.854,2.82-0.961,3.31c-0.015-0.144-0.046-0.291-0.059-0.434c-0.235-2.582-0.138-5.112,0.068-7.476
			c0.117-1.374,0.306-2.681,0.519-3.948c0.873,0.066,4.868,0.324,6.673-0.33c1.73-0.627,3.761-1.906,4.336-3.767
			c0.563-1.822-0.403-3.861-2.352-4.253c-2.705-0.545-6.295,2.902-7.499,5.052c-0.065,0.117-0.599,1.379-0.975,2.304
			c0.105-0.57,0.202-1.161,0.313-1.706c0.412-2.046,0.915-3.894,1.374-5.527c0.268-0.927,0.53-1.759,0.782-2.535
			c0.891-0.382,4.462-1.967,5.74-3.354c1.247-1.354,2.459-3.425,2.112-5.342c-0.34-1.877-2.137-3.24-4.048-2.691
			c-2.652,0.763-4.25,5.476-4.328,7.94c-0.006,0.213,0.271,3.554,0.318,3.534c0,0,0.044-0.018,0.054-0.023
			c-0.258,0.742-0.526,1.541-0.801,2.419c-0.496,1.626-1.041,3.469-1.498,5.513c-0.463,2.042-0.909,4.274-1.166,6.667
			c-0.261,2.399-0.413,4.935-0.232,7.569c0.002,0.03,0.008,0.061,0.01,0.09c-0.292-0.754-1.18-2.834-1.266-2.986
			c-1.217-2.143-4.827-5.569-7.529-5.008c-1.947,0.404-2.901,2.448-2.327,4.267C283.482,329.73,285.52,330.997,287.253,331.614z"/>
		<path style="fill:#263238;" d="M336.198,328.157c0.037,0.034,1.494-2.985,1.564-3.186c0.811-2.327,1.01-7.3-1.192-8.963
			c-1.586-1.198-3.753-0.57-4.743,1.06c-1.012,1.665-0.623,4.033,0.056,5.744C332.679,324.821,336.195,328.155,336.198,328.157z"/>
	</g>
	<g>
		<path style="fill:#263238;" d="M185.755,129.516c1.887,0.272,5.982-0.957,5.986-0.958c0.042-0.013-1.629-2.453-1.752-2.595
			c-1.426-1.642-5.145-3.977-7.385-3.021c-1.613,0.688-2.083,2.623-1.27,4.096C182.164,128.543,184.147,129.285,185.755,129.516z"/>
		<path style="fill:#263238;" d="M190.466,141.06c1.818-0.227,5.201-2.307,5.47-2.473c1.148,1.899,2.48,3.754,3.931,5.557
			c0.828,1.032,1.695,2.045,2.577,3.05c-0.471-0.399-0.895-0.752-0.959-0.795c-1.809-1.207-6.013-2.477-7.921-0.964
			c-1.375,1.09-1.317,3.079-0.143,4.286c1.199,1.232,3.308,1.424,4.919,1.223c1.635-0.204,4.556-1.919,5.322-2.384
			c0.342,0.382,0.68,0.767,1.024,1.148c1.649,1.827,3.303,3.643,4.87,5.474c0.553,0.645,1.073,1.3,1.597,1.954
			c-0.419-0.354-0.774-0.649-0.833-0.688c-1.809-1.207-6.013-2.477-7.921-0.964c-1.374,1.09-1.317,3.079-0.143,4.286
			c1.199,1.232,3.308,1.424,4.919,1.222c1.561-0.195,4.27-1.754,5.184-2.301c0.515,0.686,1.034,1.372,1.502,2.06
			c0.31,0.477,0.641,0.915,0.925,1.411c0.292,0.486,0.58,0.966,0.867,1.442c0.517,0.937,1.056,1.9,1.538,2.827
			c0.34,0.642,0.652,1.26,0.968,1.881c-0.542-0.648-1.632-1.895-1.735-1.989c-1.604-1.467-5.567-3.359-7.683-2.153
			c-1.524,0.869-1.768,2.844-0.791,4.215c0.998,1.399,3.053,1.908,4.677,1.954c1.787,0.049,5.311-1.417,5.749-1.603
			c0.519,1.03,1.015,2.037,1.467,2.995c0.923,1.944,1.709,3.711,2.366,5.246l1.531-0.422c-0.716-1.583-1.581-3.426-2.6-5.456
			c-0.523-1.048-1.103-2.158-1.709-3.292c0.244-0.185,1.627-1.243,2.794-2.394c1.56,0.97,5.059,1.644,5.511,1.728
			c-0.135,1.146-0.278,2.259-0.429,3.307c-0.283,1.995-0.581,3.792-0.863,5.362l1.65-0.455c0.216-1.417,0.437-2.995,0.643-4.719
			c0.142-1.163,0.271-2.409,0.391-3.689c0.467-0.029,4.283-0.291,5.862-1.135c1.432-0.766,3.044-2.14,3.311-3.838
			c0.262-1.663-0.84-3.321-2.591-3.417c-2.431-0.134-5.132,3.329-5.911,5.359c-0.046,0.12-0.4,1.475-0.609,2.333
			c0.046-0.523,0.097-1.031,0.138-1.57c0.088-1.066,0.145-2.132,0.21-3.279c0.012-0.555,0.024-1.115,0.036-1.682
			c0.024-0.561-0.022-1.157-0.03-1.741c-0.048-1.354-0.162-2.724-0.307-4.102c0.934,0.075,4.253,0.294,5.791-0.249
			c1.531-0.54,3.333-1.654,3.854-3.292c0.511-1.604-0.326-3.409-2.044-3.771c-2.383-0.501-5.577,2.514-6.655,4.402
			c-0.067,0.118-0.689,1.56-1.015,2.358c-0.094-0.827-0.184-1.654-0.306-2.488c-0.353-2.407-0.784-4.833-1.204-7.255
			c-0.129-0.742-0.248-1.482-0.371-2.223c0.332,0.03,4.272,0.376,5.995-0.232c1.532-0.54,3.333-1.654,3.854-3.292
			c0.511-1.604-0.327-3.409-2.044-3.77c-2.383-0.501-5.577,2.513-6.655,4.402c-0.081,0.142-0.972,2.218-1.173,2.757
			c-0.269-1.632-0.523-3.261-0.707-4.877c-0.258-2.229-0.388-4.431-0.356-6.573c0.155,0.014,4.265,0.394,6.03-0.229
			c1.532-0.54,3.333-1.654,3.854-3.292c0.511-1.604-0.327-3.409-2.044-3.77c-2.383-0.501-5.577,2.513-6.655,4.402
			c-0.085,0.148-1.042,2.382-1.187,2.8c0.002-0.128-0.009-0.26-0.006-0.387c0.064-2.286,0.412-4.493,0.84-6.543
			c0.246-1.192,0.548-2.317,0.866-3.406c0.758,0.149,4.231,0.792,5.881,0.408c1.582-0.369,3.494-1.278,4.193-2.849
			c0.684-1.538,0.05-3.425-1.617-3.972c-2.314-0.76-5.819,1.886-7.098,3.644c-0.069,0.096-0.669,1.146-1.095,1.917
			c0.151-0.489,0.298-0.996,0.452-1.462c0.575-1.749,1.208-3.316,1.781-4.699c0.332-0.784,0.648-1.486,0.95-2.14
			c0.821-0.242,4.115-1.258,5.379-2.34c1.234-1.056,2.512-2.744,2.408-4.46c-0.102-1.68-1.534-3.063-3.266-2.78
			c-2.403,0.392-4.295,4.355-4.62,6.505c-0.028,0.186-0.133,3.142-0.09,3.13c0,0,0.04-0.012,0.05-0.014
			c-0.304,0.623-0.622,1.295-0.955,2.036c-0.604,1.373-1.274,2.93-1.889,4.674c-0.619,1.741-1.242,3.65-1.717,5.72
			c-0.479,2.074-0.877,4.281-0.993,6.607c-0.001,0.026,0.001,0.054-0.001,0.08c-0.177-0.691-0.738-2.606-0.798-2.749
			c-0.842-2.005-3.648-5.383-6.075-5.174c-1.748,0.151-2.797,1.842-2.484,3.496c0.32,1.689,1.973,3.012,3.428,3.733
			c1.641,0.813,5.611,0.945,5.927,0.954c-0.09,2.217-0.002,4.499,0.214,6.803c0.122,1.318,0.286,2.641,0.467,3.966
			c-0.173-0.592-0.332-1.121-0.362-1.193c-0.843-2.005-3.649-5.383-6.075-5.173c-1.748,0.151-2.797,1.842-2.484,3.496
			c0.32,1.689,1.973,3.012,3.428,3.734c1.477,0.732,4.859,0.912,5.754,0.948c0.075,0.507,0.144,1.015,0.221,1.522
			c0.368,2.433,0.745,4.861,1.042,7.252c0.106,0.843,0.178,1.677,0.254,2.511c-0.154-0.526-0.288-0.968-0.316-1.033
			c-0.842-2.005-3.648-5.383-6.074-5.173c-1.748,0.151-2.797,1.842-2.484,3.496c0.32,1.689,1.973,3.012,3.428,3.733
			c1.409,0.699,4.529,0.893,5.593,0.941c0.051,0.856,0.105,1.714,0.116,2.546c-0.005,0.568,0.03,1.116-0.007,1.687
			c-0.024,0.566-0.049,1.126-0.073,1.68c-0.086,1.066-0.167,2.167-0.277,3.206c-0.071,0.723-0.152,1.41-0.231,2.103
			c-0.095-0.84-0.315-2.481-0.349-2.616c-0.352-1.401-1.47-3.529-2.893-4.849c-0.051-0.207-0.119-0.409-0.208-0.604
			c-0.699-1.531-2.532-2.306-4.047-1.421c-2.102,1.229-2.444,5.608-1.974,7.731c0.028,0.125,0.48,1.45,0.779,2.282
			c-0.25-0.462-0.488-0.913-0.751-1.386c-0.514-0.938-1.055-1.859-1.634-2.852c-0.296-0.47-0.595-0.944-0.897-1.423
			c-0.289-0.481-0.656-0.953-0.985-1.436c-0.787-1.103-1.638-2.183-2.519-3.251c0.82-0.453,3.709-2.101,4.693-3.402
			c0.979-1.296,1.867-3.218,1.399-4.872c-0.459-1.619-2.153-2.663-3.784-2.017c-2.264,0.897-3.265,5.173-3.122,7.343
			c0.009,0.136,0.286,1.681,0.455,2.527c-0.535-0.638-1.066-1.278-1.627-1.906c-1.622-1.813-3.32-3.598-5.007-5.387
			c-0.517-0.548-1.025-1.099-1.537-1.649c0.294-0.158,3.77-2.043,4.872-3.501c0.979-1.295,1.867-3.218,1.399-4.872
			c-0.459-1.619-2.153-2.663-3.784-2.017c-2.264,0.897-3.265,5.173-3.123,7.343c0.011,0.163,0.413,2.387,0.542,2.947
			c-1.125-1.212-2.235-2.431-3.28-3.677c-1.445-1.717-2.768-3.482-3.922-5.286c0.137-0.073,3.774-2.025,4.903-3.517
			c0.98-1.295,1.867-3.218,1.399-4.872c-0.459-1.62-2.153-2.664-3.784-2.017c-2.264,0.897-3.265,5.173-3.123,7.342
			c0.011,0.171,0.445,2.562,0.555,2.99c-0.069-0.108-0.151-0.211-0.218-0.319c-1.208-1.942-2.135-3.975-2.91-5.921
			c-0.452-1.13-0.821-2.235-1.156-3.318c0.715-0.294,3.966-1.674,5.13-2.905c1.116-1.18,2.209-2.993,1.926-4.689
			c-0.278-1.66-1.848-2.884-3.54-2.421c-2.349,0.642-3.813,4.783-3.91,6.955c-0.005,0.118,0.074,1.325,0.144,2.203
			c-0.143-0.491-0.301-0.996-0.429-1.469c-0.486-1.776-0.822-3.433-1.107-4.902c-0.156-0.837-0.279-1.597-0.388-2.309
			c0.551-0.655,2.738-3.319,3.195-4.92c0.446-1.561,0.581-3.675-0.452-5.049c-1.012-1.345-2.969-1.708-4.257-0.517
			c-1.788,1.653-1.18,6.002-0.265,7.975c0.079,0.17,1.622,2.694,1.651,2.66c0,0,0.027-0.032,0.033-0.039
			c0.091,0.687,0.196,1.423,0.327,2.225c0.254,1.479,0.554,3.147,1.004,4.941c0.444,1.794,0.978,3.73,1.723,5.718
			c0.745,1.994,1.63,4.055,2.817,6.059c0.014,0.023,0.03,0.045,0.044,0.067c-0.529-0.478-2.053-1.767-2.182-1.852
			c-1.809-1.207-6.013-2.477-7.921-0.964c-1.374,1.09-1.317,3.08-0.143,4.287C186.746,141.07,188.855,141.261,190.466,141.06z"/>
		<path style="fill:#263238;" d="M227.683,118.936c0.043,0.013-0.005-2.945-0.03-3.131c-0.283-2.156-2.097-6.155-4.493-6.594
			c-1.726-0.316-3.184,1.038-3.319,2.716c-0.137,1.714,1.108,3.426,2.321,4.507C223.587,117.701,227.68,118.935,227.683,118.936z"/>
	</g>
	<g>
		<path style="fill:#263238;" d="M58.541,413.621c1.779-0.58,4.85-3.439,4.853-3.441c0.032-0.03-2.499-1.452-2.669-1.524
			c-1.968-0.826-6.255-1.267-7.812,0.547c-1.121,1.306-0.695,3.213,0.66,4.157C54.957,414.323,57.025,414.115,58.541,413.621z"/>
		<path style="fill:#263238;" d="M67.699,421.736c1.501-0.989,3.577-4.288,3.741-4.552c1.835,1.173,3.812,2.228,5.872,3.185
			c1.177,0.549,2.38,1.064,3.592,1.566c-0.588-0.147-1.114-0.273-1.19-0.284c-2.116-0.277-6.368,0.43-7.39,2.59
			c-0.737,1.556,0.178,3.282,1.734,3.835c1.59,0.564,3.529-0.183,4.861-1.059c1.351-0.89,3.177-3.667,3.65-4.409
			c0.467,0.188,0.931,0.38,1.399,0.566c2.245,0.892,4.489,1.772,6.663,2.704c0.767,0.328,1.509,0.679,2.254,1.027
			c-0.522-0.13-0.963-0.235-1.032-0.244c-2.116-0.278-6.368,0.43-7.39,2.59c-0.737,1.556,0.178,3.282,1.734,3.835
			c1.59,0.564,3.529-0.183,4.861-1.059c1.289-0.849,2.997-3.397,3.564-4.276c0.751,0.38,1.505,0.759,2.216,1.161
			c0.479,0.286,0.961,0.527,1.426,0.84c0.468,0.301,0.93,0.598,1.389,0.893c0.862,0.6,1.755,1.214,2.58,1.821
			c0.578,0.417,1.121,0.826,1.668,1.236c-0.759-0.335-2.259-0.96-2.39-0.998c-2.049-0.595-6.359-0.54-7.697,1.441
			c-0.964,1.427-0.322,3.271,1.133,4.053c1.486,0.799,3.516,0.354,4.965-0.311c1.595-0.732,4.059-3.552,4.365-3.907
			c0.904,0.681,1.777,1.353,2.591,2c1.657,1.31,3.115,2.524,4.36,3.59l1.165-1.036c-1.317-1.083-2.879-2.329-4.657-3.674
			c-0.915-0.696-1.908-1.421-2.933-2.156c0.135-0.269,0.893-1.801,1.42-3.32c1.794,0.176,5.166-0.749,5.601-0.871
			c0.378,1.067,0.736,2.109,1.058,3.097c0.617,1.879,1.135,3.59,1.568,5.095l1.255-1.117c-0.425-1.341-0.916-2.826-1.482-4.433
			c-0.38-1.085-0.807-2.238-1.257-3.417c0.398-0.229,3.643-2.115,4.667-3.544c0.928-1.296,1.75-3.204,1.249-4.815
			c-0.491-1.577-2.181-2.559-3.764-1.883c-2.198,0.937-3.072,5.158-2.877,7.283c0.011,0.126,0.288,1.472,0.476,2.318
			c-0.186-0.481-0.362-0.949-0.56-1.442c-0.385-0.977-0.798-1.94-1.239-2.978c-0.23-0.494-0.463-0.992-0.698-1.496
			c-0.222-0.504-0.521-1.009-0.782-1.52c-0.63-1.171-1.325-2.328-2.051-3.477c0.854-0.339,3.871-1.587,4.99-2.733
			c1.113-1.14,2.215-2.903,1.963-4.571c-0.247-1.634-1.767-2.859-3.435-2.432c-2.315,0.594-3.817,4.633-3.947,6.764
			c-0.008,0.133,0.071,1.672,0.13,2.516c-0.442-0.688-0.88-1.376-1.349-2.057c-1.355-1.966-2.788-3.913-4.209-5.863
			c-0.436-0.597-0.862-1.197-1.292-1.796c0.305-0.117,3.923-1.524,5.176-2.807c1.114-1.14,2.215-2.902,1.964-4.571
			c-0.247-1.633-1.768-2.859-3.435-2.431c-2.315,0.593-3.818,4.633-3.947,6.763c-0.01,0.16,0.107,2.374,0.164,2.936
			c-0.945-1.32-1.876-2.643-2.739-3.985c-1.195-1.85-2.265-3.732-3.166-5.631c0.142-0.054,3.925-1.505,5.208-2.819
			c1.114-1.14,2.216-2.902,1.963-4.571c-0.247-1.633-1.768-2.859-3.435-2.432c-2.315,0.594-3.817,4.633-3.947,6.763
			c-0.01,0.167,0.117,2.549,0.171,2.98c-0.053-0.113-0.121-0.225-0.173-0.338c-0.936-2.04-1.588-4.134-2.102-6.124
			c-0.301-1.156-0.524-2.278-0.716-3.374c0.732-0.198,4.068-1.139,5.354-2.194c1.232-1.011,2.521-2.642,2.454-4.327
			c-0.066-1.651-1.443-3.036-3.147-2.794c-2.366,0.336-4.303,4.186-4.666,6.289c-0.02,0.114-0.091,1.299-0.132,2.163
			c-0.079-0.496-0.17-1.007-0.237-1.483c-0.254-1.789-0.376-3.443-0.472-4.909c-0.048-0.834-0.075-1.589-0.093-2.296
			c0.618-0.569,3.076-2.894,3.719-4.395c0.628-1.465,1.02-3.506,0.184-4.971c-0.819-1.435-2.68-2.03-4.081-1.029
			c-1.945,1.388-1.89,5.698-1.243,7.732c0.056,0.176,1.246,2.824,1.279,2.794c0,0,0.03-0.028,0.038-0.034
			c0.003,0.68,0.015,1.41,0.043,2.207c0.065,1.471,0.151,3.132,0.367,4.934c0.211,1.801,0.491,3.752,0.972,5.78
			c0.479,2.034,1.086,4.149,1.994,6.247c0.01,0.024,0.024,0.047,0.034,0.071c-0.456-0.531-1.781-1.974-1.895-2.073
			c-1.612-1.399-5.548-3.154-7.593-1.917c-1.473,0.892-1.662,2.836-0.669,4.156c1.015,1.348,3.044,1.795,4.638,1.798
			c1.798,0.003,5.349-1.604,5.631-1.733c0.883,1.99,1.951,3.961,3.141,5.896c0.679,1.107,1.398,2.201,2.132,3.288
			c-0.409-0.447-0.779-0.843-0.836-0.893c-1.612-1.398-5.548-3.154-7.593-1.917c-1.473,0.892-1.662,2.836-0.669,4.156
			c1.015,1.348,3.044,1.795,4.638,1.798c1.617,0.003,4.673-1.306,5.476-1.663c0.286,0.414,0.567,0.831,0.855,1.244
			c1.38,1.982,2.766,3.955,4.066,5.931c0.459,0.696,0.884,1.399,1.313,2.1c-0.364-0.396-0.673-0.727-0.726-0.772
			c-1.612-1.399-5.548-3.154-7.592-1.917c-1.473,0.891-1.663,2.835-0.669,4.156c1.015,1.348,3.045,1.794,4.638,1.798
			c1.543,0.003,4.374-1.18,5.332-1.6c0.417,0.731,0.836,1.463,1.208,2.191c0.242,0.503,0.511,0.969,0.726,1.488
			c0.224,0.509,0.446,1.012,0.665,1.511c0.388,0.976,0.794,1.98,1.148,2.942c0.251,0.667,0.479,1.307,0.71,1.951
			c-0.448-0.698-1.355-2.047-1.443-2.151c-0.918-1.081-2.826-2.468-4.651-3.012c-0.135-0.16-0.282-0.308-0.445-0.441
			c-1.28-1.044-3.23-0.931-4.179,0.506c-1.317,1.994,0.284,5.997,1.618,7.662c0.079,0.098,1.052,1.068,1.676,1.67
			c-0.421-0.298-0.826-0.592-1.263-0.893c-0.86-0.602-1.736-1.178-2.676-1.801c-0.464-0.285-0.934-0.572-1.407-0.863
			c-0.464-0.298-0.992-0.554-1.491-0.836c-1.171-0.629-2.389-1.21-3.629-1.768c0.525-0.754,2.353-3.459,2.654-5.032
			c0.3-1.566,0.246-3.643-0.884-4.895c-1.107-1.226-3.051-1.41-4.207-0.133c-1.604,1.772-0.628,5.97,0.439,7.819
			c0.067,0.115,0.981,1.355,1.497,2.027c-0.748-0.33-1.493-0.662-2.26-0.971c-2.215-0.892-4.485-1.726-6.745-2.568
			c-0.693-0.258-1.379-0.522-2.068-0.785c0.19-0.267,2.432-3.435,2.769-5.196c0.3-1.565,0.247-3.643-0.884-4.895
			c-1.107-1.226-3.051-1.41-4.207-0.133c-1.604,1.772-0.628,5.97,0.439,7.818c0.08,0.139,1.399,1.922,1.757,2.359
			c-1.516-0.579-3.022-1.17-4.483-1.813c-2.017-0.884-3.947-1.863-5.747-2.95c0.089-0.124,2.443-3.42,2.789-5.224
			c0.3-1.565,0.247-3.643-0.884-4.895c-1.107-1.226-3.052-1.41-4.207-0.133c-1.604,1.772-0.628,5.97,0.439,7.818
			c0.084,0.145,1.504,2.062,1.786,2.391c-0.107-0.065-0.225-0.12-0.331-0.186c-1.907-1.185-3.605-2.572-5.131-3.948
			c-0.888-0.798-1.693-1.611-2.458-2.419c0.501-0.569,2.764-3.195,3.255-4.784c0.469-1.523,0.645-3.594-0.341-4.963
			c-0.965-1.34-2.879-1.736-4.167-0.594c-1.789,1.585-1.28,5.865-0.422,7.819c0.047,0.106,0.64,1.134,1.083,1.877
			c-0.34-0.37-0.697-0.746-1.015-1.107c-1.199-1.352-2.213-2.665-3.102-3.834c-0.5-0.669-0.939-1.284-1.344-1.863
			c0.201-0.815,0.969-4.11,0.677-5.717c-0.285-1.568-1.084-3.487-2.589-4.247c-1.475-0.745-3.355-0.214-3.972,1.393
			c-0.857,2.231,1.567,5.795,3.229,7.135c0.144,0.115,2.597,1.667,2.608,1.625c0,0,0.01-0.04,0.012-0.049
			c0.378,0.565,0.791,1.167,1.254,1.816c0.865,1.191,1.854,2.529,3.028,3.913c1.17,1.386,2.48,2.859,3.999,4.285
			c1.522,1.432,3.195,2.861,5.11,4.11c0.022,0.014,0.046,0.026,0.068,0.04c-0.673-0.191-2.574-0.664-2.724-0.683
			c-2.116-0.278-6.368,0.43-7.39,2.59c-0.736,1.557,0.177,3.282,1.735,3.835C64.428,423.36,66.368,422.612,67.699,421.736z"/>
		<path style="fill:#263238;" d="M90.853,386.107c0.043-0.007-1.283-2.59-1.386-2.743c-1.185-1.775-4.518-4.507-6.817-3.854
			c-1.656,0.471-2.352,2.296-1.743,3.831c0.623,1.568,2.462,2.535,3.999,2.959C86.711,386.798,90.85,386.107,90.853,386.107z"/>
	</g>
</g>
<g id="Shine">
	<g>
		<g>
			
				<line style="fill:none;stroke:#263238;stroke-linecap:round;stroke-linejoin:round;stroke-miterlimit:10;" x1="229.986" y1="136.76" x2="221.038" y2="144.627"/>
			
				<line style="fill:none;stroke:#263238;stroke-linecap:round;stroke-linejoin:round;stroke-miterlimit:10;" x1="309.635" y1="66.739" x2="257.57" y2="112.511"/>
			
				<line style="fill:none;stroke:#263238;stroke-linecap:round;stroke-linejoin:round;stroke-miterlimit:10;" x1="301.846" y1="64.792" x2="251.219" y2="83.29"/>
			
				<line style="fill:none;stroke:#263238;stroke-linecap:round;stroke-linejoin:round;stroke-miterlimit:10;" x1="255.483" y1="57.216" x2="222.985" y2="59.924"/>
			
				<line style="fill:none;stroke:#263238;stroke-linecap:round;stroke-linejoin:round;stroke-miterlimit:10;" x1="293.084" y1="54.082" x2="259.107" y2="56.914"/>
			
				<line style="fill:none;stroke:#263238;stroke-linecap:round;stroke-linejoin:round;stroke-miterlimit:10;" x1="278.675" y1="33.903" x2="244.816" y2="22.559"/>
			
				<line style="fill:none;stroke:#263238;stroke-linecap:round;stroke-linejoin:round;stroke-miterlimit:10;" x1="290.163" y1="37.531" x2="283.386" y2="35.391"/>
		</g>
		<g>
			
				<line style="fill:none;stroke:#263238;stroke-linecap:round;stroke-linejoin:round;stroke-miterlimit:10;" x1="426.281" y1="136.76" x2="435.229" y2="144.627"/>
			
				<line style="fill:none;stroke:#263238;stroke-linecap:round;stroke-linejoin:round;stroke-miterlimit:10;" x1="346.632" y1="66.739" x2="420.773" y2="131.918"/>
			
				<line style="fill:none;stroke:#263238;stroke-linecap:round;stroke-linejoin:round;stroke-miterlimit:10;" x1="354.421" y1="64.792" x2="405.047" y2="83.29"/>
			
				<line style="fill:none;stroke:#263238;stroke-linecap:round;stroke-linejoin:round;stroke-miterlimit:10;" x1="400.784" y1="57.216" x2="433.282" y2="59.924"/>
			
				<line style="fill:none;stroke:#263238;stroke-linecap:round;stroke-linejoin:round;stroke-miterlimit:10;" x1="363.183" y1="54.082" x2="397.16" y2="56.914"/>
			
				<line style="fill:none;stroke:#263238;stroke-linecap:round;stroke-linejoin:round;stroke-miterlimit:10;" x1="377.591" y1="33.903" x2="403.459" y2="25.701"/>
			
				<line style="fill:none;stroke:#263238;stroke-linecap:round;stroke-linejoin:round;stroke-miterlimit:10;" x1="366.104" y1="37.531" x2="372.881" y2="35.391"/>
		</g>
	</g>
</g>
<g id="Trophy">
	<g>
		
			<rect x="323.752" y="58.307" style="fill:#92E3A9;stroke:#263238;stroke-linecap:round;stroke-linejoin:round;stroke-miterlimit:10;" width="5.356" height="22.82"/>
		<polygon style="fill:#92E3A9;stroke:#263238;stroke-linecap:round;stroke-linejoin:round;stroke-miterlimit:10;" points="
			334.347,86.017 318.513,86.017 320.376,77.169 332.484,77.169 		"/>
		<polygon style="fill:#92E3A9;stroke:#263238;stroke-linecap:round;stroke-linejoin:round;stroke-miterlimit:10;" points="
			343.894,89.743 308.966,89.743 312.692,81.593 340.169,81.593 		"/>
		<path style="fill:#92E3A9;stroke:#263238;stroke-linecap:round;stroke-linejoin:round;stroke-miterlimit:10;" d="M308.733,34.151
			c-6.816,0-12.341,5.63-12.341,12.574S301.917,59.3,308.733,59.3c6.816,0,12.341-5.63,12.341-12.574S315.549,34.151,308.733,34.151
			z M308.733,56.104c-5.084,0-9.205-4.199-9.205-9.379s4.121-9.378,9.205-9.378c5.084,0,9.205,4.199,9.205,9.378
			S313.817,56.104,308.733,56.104z"/>
		<path style="fill:#92E3A9;stroke:#263238;stroke-linecap:round;stroke-linejoin:round;stroke-miterlimit:10;" d="M345.99,34.151
			c-6.816,0-12.341,5.63-12.341,12.574S339.174,59.3,345.99,59.3c6.816,0,12.341-5.63,12.341-12.574S352.806,34.151,345.99,34.151z
			 M345.99,56.104c-5.084,0-9.205-4.199-9.205-9.379s4.121-9.378,9.205-9.378c5.084,0,9.205,4.199,9.205,9.378
			S351.074,56.104,345.99,56.104z"/>
		<path style="fill:#92E3A9;stroke:#263238;stroke-linecap:round;stroke-linejoin:round;stroke-miterlimit:10;" d="M326.43,64.594
			L326.43,64.594c-8.616,0-15.601-6.985-15.601-15.601V32.926h31.203v16.067C342.031,57.61,335.047,64.594,326.43,64.594z"/>
		<polygon style="fill:#263238;" points="326,38.056 328.008,44.236 334.507,44.236 329.249,48.056 331.257,54.236 326,50.416 
			320.743,54.236 322.751,48.056 317.493,44.236 323.992,44.236 		"/>
	</g>
</g>
<g id="Factors">
	<g>
		<g>
			
				<rect x="275.557" y="89.824" style="fill:#263238;stroke:#263238;stroke-linejoin:round;stroke-miterlimit:10;" width="102.397" height="93.362"/>
			
				<rect x="275.557" y="89.824" style="fill:#FFFFFF;stroke:#263238;stroke-linejoin:round;stroke-miterlimit:10;" width="68.064" height="93.362"/>
		</g>
		<g>
			
				<rect x="196.728" y="136.203" style="fill:#263238;stroke:#263238;stroke-linejoin:round;stroke-miterlimit:10;" width="102.397" height="93.362"/>
			
				<rect x="196.728" y="136.203" style="fill:#FFFFFF;stroke:#263238;stroke-linejoin:round;stroke-miterlimit:10;" width="68.064" height="93.362"/>
			<path style="fill:#92E3A9;" d="M243,162.653v-7.467h-4.668c-0.366-1.316-0.901-2.562-1.585-3.71l2.898-2.898l-5.28-5.28
				l-2.88,2.88c-1.278-0.771-2.678-1.36-4.164-1.733V141h-7.467v3.447c-1.635,0.41-3.164,1.084-4.543,1.973l-2.065-2.064l-5.28,5.28
				l2.235,2.235c-0.818,1.471-1.398,3.092-1.694,4.81h-2.84v7.467h3.403c0.522,1.563,1.286,3.015,2.252,4.307l-2.301,2.301
				l5.28,5.28l2.852-2.852c1.309,0.607,2.716,1.036,4.193,1.253v3.898h7.467v-4.65c1.251-0.454,2.423-1.069,3.497-1.816l3.11,3.11
				l5.28-5.28l-3.47-3.47c0.57-1.119,1.006-2.318,1.288-3.575H243z M223.587,168.627c-5.155,0-9.333-4.179-9.333-9.333
				c0-5.155,4.179-9.333,9.333-9.333c5.155,0,9.333,4.179,9.333,9.333C232.92,164.448,228.741,168.627,223.587,168.627z"/>
			<path style="fill:#92E3A9;" d="M249.827,192.249v-5.488h-3.431c-0.269-0.967-0.663-1.883-1.165-2.727l2.13-2.13l-3.881-3.881
				l-2.117,2.117c-0.939-0.567-1.968-1-3.061-1.273v-2.534h-5.488v2.534c-1.202,0.301-2.326,0.797-3.339,1.45l-1.518-1.517
				l-3.881,3.881l1.642,1.642c-0.601,1.082-1.028,2.272-1.245,3.535h-2.088v5.488h2.502c0.384,1.148,0.945,2.216,1.655,3.166
				l-1.691,1.691l3.881,3.881l2.096-2.096c0.962,0.446,1.996,0.762,3.082,0.921v2.865h5.488v-3.418
				c0.919-0.334,1.781-0.786,2.571-1.335l2.286,2.286l3.881-3.881l-2.55-2.55c0.419-0.823,0.74-1.704,0.947-2.628H249.827z
				 M235.558,196.639c-3.789,0-6.86-3.071-6.86-6.86c0-3.789,3.071-6.86,6.86-6.86c3.789,0,6.86,3.071,6.86,6.86
				C242.418,193.568,239.346,196.639,235.558,196.639z"/>
		</g>
		<g>
			
				<rect x="253.347" y="196.437" style="fill:#263238;stroke:#263238;stroke-linejoin:round;stroke-miterlimit:10;" width="102.397" height="93.362"/>
			
				<rect x="253.347" y="196.437" style="fill:#FFFFFF;stroke:#263238;stroke-linejoin:round;stroke-miterlimit:10;" width="68.064" height="93.362"/>
			<g>
				<path style="fill:#92E3A9;" d="M304.725,212.696l-5.901-4.356c-2.288-1.689-5.382-1.79-7.776-0.254l-11.72,6.973
					c-1.564,0.931-1.894,3.056-0.684,4.417c0.818,0.92,2.127,1.223,3.266,0.756l10.955-3.762l13.167,13.629l8.164-2.851v-16.632
					L304.725,212.696z"/>
				<path style="fill:#92E3A9;" d="M291.411,218.342l-10.907,3.763c-1.982,0.854-4.173-2.466-4.173-4.624l0,0
					c0-2.79,2.66-3.563,4.747-5.413l1.98-1.755c-2.2-2-5.402-2.47-8.087-1.16l0,0c-3.143,1.533-6.755,1.804-10.091,0.755
					L261.991,209v18.48l3.696,0.462l0.349-0.299c2.515-2.156,6.284-1.942,8.539,0.485l13.117,14.113
					c0.615,0.662,1.639,0.731,2.338,0.158l0,0c0.751-0.617,0.838-1.735,0.191-2.46l-3.282-3.68l4.556,2.998
					c0.78,0.513,1.804,0.459,2.525-0.133c0.963-0.79,1.046-2.234,0.181-3.13l-2.643-2.737l3.969,2.526
					c0.862,0.548,1.978,0.481,2.768-0.167c1.04-0.854,1.158-2.402,0.26-3.403l-2.377-2.651l4.339,2.629
					c0.672,0.407,1.528,0.346,2.136-0.152v0c0.857-0.704,0.908-1.998,0.109-2.767L291.411,218.342z"/>
				<path style="fill:#92E3A9;" d="M271.033,234.625l1.677-2.118c0.75-0.947,0.59-2.322-0.357-3.072
					c-0.947-0.75-2.322-0.59-3.072,0.357l-1.677,2.118c-0.75,0.947-0.59,2.322,0.357,3.072
					C268.908,235.732,270.283,235.572,271.033,234.625z"/>
				<path style="fill:#92E3A9;" d="M274.239,237.72l1.677-2.118c0.75-0.947,0.59-2.322-0.357-3.072
					c-0.947-0.75-2.322-0.59-3.072,0.357l-1.677,2.118c-0.75,0.947-0.59,2.322,0.357,3.072
					C272.114,238.827,273.49,238.667,274.239,237.72z"/>
				<path style="fill:#92E3A9;" d="M277.446,240.815l1.677-2.118c0.75-0.947,0.59-2.322-0.357-3.072
					c-0.947-0.75-2.322-0.59-3.072,0.357l-1.677,2.118c-0.75,0.947-0.59,2.322,0.357,3.072h0
					C275.321,241.921,276.696,241.762,277.446,240.815z"/>
				<path style="fill:#92E3A9;" d="M281.972,238.72c-0.947-0.75-2.322-0.59-3.072,0.357l-1.677,2.118
					c-0.75,0.947-0.59,2.322,0.357,3.072c0.947,0.75,2.322,0.59,3.072-0.357l1.677-2.118
					C283.079,240.845,282.919,239.47,281.972,238.72z"/>
			</g>
		</g>
		<g>
			
				<rect x="164.201" y="256.068" style="fill:#263238;stroke:#263238;stroke-linejoin:round;stroke-miterlimit:10;" width="102.397" height="93.362"/>
			
				<rect x="164.201" y="256.068" style="fill:#FFFFFF;stroke:#263238;stroke-linejoin:round;stroke-miterlimit:10;" width="68.064" height="93.362"/>
			<g>
				<rect x="174.494" y="302.845" style="fill:#92E3A9;" width="7.528" height="12.489"/>
				<rect x="183.634" y="297.496" style="fill:#92E3A9;" width="7.528" height="17.837"/>
				<rect x="192.775" y="293.849" style="fill:#92E3A9;" width="7.528" height="21.484"/>
				<rect x="201.916" y="288.987" style="fill:#92E3A9;" width="7.528" height="26.347"/>
				<path style="fill:#92E3A9;" d="M205.005,281.149l-6.073,1.905l1.609,1.479l-4.314,4.695l-10.119,1.927l-10.642,8.168
					c-0.437,0.335-0.52,0.96-0.184,1.399c0.196,0.255,0.492,0.39,0.792,0.39c0.211,0,0.426-0.068,0.606-0.207l10.267-7.88
					l10.303-1.962l4.759-5.181l1.61,1.479L205.005,281.149z"/>
			</g>
		</g>
		<g>
			
				<rect x="226.254" y="326.939" style="fill:#263238;stroke:#263238;stroke-linejoin:round;stroke-miterlimit:10;" width="102.397" height="93.362"/>
			
				<rect x="226.254" y="326.939" style="fill:#FFFFFF;stroke:#263238;stroke-linejoin:round;stroke-miterlimit:10;" width="68.064" height="93.362"/>
			<g>
				<g>
					<path style="fill:#92E3A9;" d="M271.256,359.887l-6.288-4.129v-1.179c1.279-1.599,2.117-4.06,2.117-6.099
						c0-5.406-2.217-6.013-4.952-6.013c-2.735,0-4.952,1.18-4.952,6.013c0,2.085,0.875,4.613,2.202,6.207v0.694l-6.861,4.506
						c-1.17,0.768-1.875,2.074-1.875,3.474v1.474l10.906,4.78l11.578-4.78v-1.474C273.131,361.961,272.426,360.655,271.256,359.887z
						"/>
				</g>
				<path style="fill:#92E3A9;" d="M278.129,353.804c0-8.938-7.271-16.209-16.209-16.209s-16.209,7.271-16.209,16.209
					c0,8.131,6.025,14.864,13.841,16.016v12.786c-0.905,0.633-1.5,1.679-1.5,2.866v21.695c0,1.933,1.567,3.5,3.5,3.5
					c1.933,0,3.5-1.567,3.5-3.5v-21.695c0-1.188-0.595-2.234-1.5-2.866V369.93C271.726,369.109,278.129,362.191,278.129,353.804z
					 M248.711,353.804c0-7.283,5.926-13.209,13.209-13.209s13.209,5.926,13.209,13.209s-5.926,13.209-13.209,13.209
					S248.711,361.087,248.711,353.804z"/>
			</g>
		</g>
		<g>
			
				<rect x="103.667" y="394.305" style="fill:#263238;stroke:#263238;stroke-linejoin:round;stroke-miterlimit:10;" width="102.397" height="93.362"/>
			
				<rect x="103.667" y="394.305" style="fill:#FFFFFF;stroke:#263238;stroke-linejoin:round;stroke-miterlimit:10;" width="68.064" height="93.362"/>
			<g>
				<path style="fill:#92E3A9;" d="M161.507,451.626c0-1.4-0.705-2.706-1.875-3.474l-6.288-4.129v-1.179
					c1.279-1.599,2.117-4.06,2.117-6.099c0-5.406-2.217-6.013-4.952-6.013c-2.735,0-4.952,1.18-4.952,6.013
					c0,2.085,0.875,4.613,2.202,6.207v0.694l-6.861,4.506c-1.17,0.769-1.875,2.074-1.875,3.474v3.781
					c-0.554-0.116-1.154-0.152-1.783-0.152c-0.536,0-1.051,0.048-1.534,0.157v-3.787c0-1.4-0.705-2.706-1.875-3.474l-6.288-4.129
					v-1.179c1.279-1.599,2.117-4.06,2.117-6.099c0-4.159-1.314-5.474-3.165-5.861l3.208-3.668h5.444l1.463,20.916l0.654,0.009
					l2.093-20.925h7.407l2.81,3.242l-0.191-3.242h3.635V399.87h-30.628v27.346h4.458l-0.406,3.657
					c-0.54-0.107-1.123-0.142-1.734-0.142c-2.735,0-4.952,1.18-4.952,6.013c0,2.085,0.874,4.613,2.202,6.207v0.694l-6.861,4.506
					c-1.17,0.769-1.875,2.074-1.875,3.474v6.35h19.573c-0.321,0.842-0.507,1.914-0.507,3.293c0,2.085,0.875,4.613,2.202,6.207v0.695
					l-6.861,4.506c-1.17,0.768-1.875,2.074-1.875,3.474v6.35h22.484v-6.35c0-1.4-0.705-2.706-1.875-3.474l-6.288-4.129v-1.179
					c1.279-1.599,2.117-4.06,2.117-6.099c0-1.395-0.15-2.465-0.416-3.293h19.731V451.626z M123.046,426.559v-26.033h29.315v26.033
					h-3.674l0.118,2.009l-1.741-2.009h-8.301l-1.768,17.674l-1.237-17.674h-6.353l-2.089,2.388l0.265-2.388H123.046z"/>
				<polygon style="fill:#92E3A9;" points="134.243,421.627 140.962,421.627 140.964,420.614 134.246,420.614 				"/>
				<path style="fill:#92E3A9;" d="M134.7,423.423h5.796c0.285-0.298,0.463-0.699,0.464-1.144h-6.718
					C134.241,422.724,134.417,423.125,134.7,423.423z"/>
				<path style="fill:#92E3A9;" d="M136.744,425.601h1.699c0.918,0,1.664-0.744,1.666-1.662h-5.023
					C135.084,424.857,135.826,425.601,136.744,425.601z"/>
				<path style="fill:#92E3A9;" d="M133.256,415.506c0.992,1.191,1.535,2.703,1.532,4.256l-0.001,0.311h5.638l0.001-0.313
					c0.004-1.556,0.554-3.066,1.548-4.253c0.852-1.016,1.323-2.307,1.326-3.633c0.004-1.591-0.634-3.064-1.794-4.149
					c-1.159-1.086-2.681-1.62-4.27-1.511c-2.762,0.19-5.025,2.412-5.263,5.169C131.842,412.89,132.298,414.354,133.256,415.506z"/>
				<path style="fill:#92E3A9;" d="M144.181,411.907c0,0.298,0.241,0.54,0.54,0.54h2.847c0.298,0,0.54-0.241,0.54-0.54
					c0-0.298-0.241-0.54-0.54-0.54h-2.847C144.423,411.367,144.181,411.609,144.181,411.907z"/>
				<path style="fill:#92E3A9;" d="M130.838,411.907c0-0.298-0.241-0.54-0.54-0.54h-2.883c-0.298,0-0.54,0.241-0.54,0.54
					c0,0.298,0.241,0.54,0.54,0.54h2.883C130.597,412.447,130.838,412.205,130.838,411.907z"/>
				<path style="fill:#92E3A9;" d="M137.507,405.226c0,0,0.001,0,0.001,0c0.297,0,0.539-0.24,0.54-0.539l0.007-2.855
					c0.001-0.298-0.24-0.54-0.539-0.541c0,0-0.001,0-0.001,0c-0.297,0-0.539,0.24-0.54,0.539l-0.007,2.855
					C136.968,404.983,137.208,405.225,137.507,405.226z"/>
				<path style="fill:#92E3A9;" d="M142.663,407.288c0.138,0,0.276-0.053,0.381-0.158l1.97-1.965
					c0.211-0.21,0.211-0.551,0.001-0.763c-0.21-0.211-0.552-0.211-0.763,0l-1.97,1.965c-0.211,0.21-0.211,0.551-0.001,0.763
					C142.387,407.235,142.525,407.288,142.663,407.288z"/>
				<path style="fill:#92E3A9;" d="M131.967,416.657l-1.998,1.993c-0.211,0.21-0.211,0.551-0.001,0.763
					c0.105,0.105,0.244,0.158,0.382,0.158c0.138,0,0.276-0.053,0.381-0.158l1.998-1.993c0.211-0.21,0.211-0.551,0.001-0.763
					C132.52,416.446,132.178,416.446,131.967,416.657z"/>
				<path style="fill:#92E3A9;" d="M131.904,407.073c0.105,0.105,0.244,0.158,0.382,0.158c0.138,0,0.276-0.053,0.381-0.158
					c0.211-0.21,0.211-0.551,0.001-0.763l-1.904-1.908c-0.211-0.211-0.552-0.211-0.763,0c-0.211,0.21-0.211,0.551-0.001,0.763
					L131.904,407.073z"/>
				<path style="fill:#92E3A9;" d="M143.086,416.751c-0.211-0.211-0.553-0.211-0.763,0c-0.211,0.21-0.211,0.552-0.001,0.763
					l1.896,1.899c0.105,0.105,0.244,0.158,0.382,0.158c0.138,0,0.276-0.053,0.381-0.158c0.211-0.21,0.211-0.552,0.001-0.763
					L143.086,416.751z"/>
			</g>
		</g>
	</g>
</g>
<g id="Character">
	<g>
		<g>
			<path style="fill:#FFFFFF;stroke:#263238;stroke-linejoin:round;stroke-miterlimit:10;" d="M178.241,183.94
				c0,0,3.265,3.755,2.776,5.061c-0.49,1.306-0.49,3.919-0.49,3.919s4.245,2.286,4.245,3.429s-0.98,3.102-0.98,3.102
				s0.98,6.531,0.326,8.164c-0.653,1.633-7.674,2.776-7.674,2.776l-2.612,8l-15.021-4.572l2.449-8c0,0-3.755-9.47-4.408-12.572
				c-0.653-3.102,4.082-9.143,9.96-10.613C172.689,181.164,178.241,183.94,178.241,183.94z"/>
			<path style="fill:#263238;stroke:#263238;stroke-linejoin:round;stroke-miterlimit:10;" d="M173.179,198.798
				c0,0,2.612,0.163,2.286-1.143c-0.327-1.306-1.306-1.959-0.816-2.612c0.49-0.653,3.592-2.612,2.612-3.919
				c-0.98-1.306-3.919-2.286-2.612-3.755c1.306-1.469,8.817-4.735,8.817-4.735s-7.674-3.592-8.817-3.592s4.572-1.796,2.612-3.266
				c-1.959-1.469-14.531-1.469-19.593,5.225c-5.061,6.694-4.408,10.613-2.449,16.164c1.959,5.551,5.715,12.082,7.674,12.572
				c1.959,0.49,8.49,0.816,8.817-1.469C172.036,205.982,173.179,198.798,173.179,198.798z"/>
			<path style="fill:#FFFFFF;stroke:#263238;stroke-linejoin:round;stroke-miterlimit:10;" d="M175.298,200.269
				c0,0-4.621-5.708-4.893-3.534c-0.272,2.175,1.359,10.057,4.349,8.155"/>
		</g>
		<path style="fill:#FFFFFF;stroke:#263238;stroke-linejoin:round;stroke-miterlimit:10;" d="M149.668,216.921
			c0,0,3.592,1.143,12.245,2.939c8.653,1.796,16.001,3.592,16.001,3.592s-2.286-6.857-4.735-8.164
			c-2.449-1.306-15.511-3.918-17.144-3.755C154.403,211.696,149.668,216.921,149.668,216.921z"/>
		<g>
			<path style="fill:#FFFFFF;stroke:#263238;stroke-linejoin:round;stroke-miterlimit:10;" d="M205.018,262.474
				c0,0,14.858-13.388,15.674-14.205c0.816-0.816-0.98-7.184-0.98-8.164c0-0.98,3.429-2.612,3.429-2.612s0.49-2.612,2.123-2.612
				c1.633,0,4.408,2.123,4.408,2.123l0.327,1.796c0,0,2.286,5.061,2.286,5.878s-0.653,2.939-2.286,4.572
				c-1.633,1.633-5.388,5.061-5.388,5.061s-13.062,17.633-16.001,20.083s-6.857,5.061-8.327,2.123
				C198.813,273.577,205.018,262.474,205.018,262.474z"/>
			<polyline style="fill:none;stroke:#263238;stroke-linejoin:round;stroke-miterlimit:10;" points="223.141,237.493 223.631,238.8 
				222.324,239.779 			"/>
		</g>
		<g>
			<path style="fill:#FFFFFF;stroke:#263238;stroke-linejoin:round;stroke-miterlimit:10;" d="M111.135,243.371
				c0,0-5.715,5.878-5.388,8.327c0.326,2.449,13.552,29.716,13.552,29.716s0.98,4.082,1.633,4.408
				c0.653,0.327,2.123,2.776,2.123,2.776s0,2.123,2.449-0.163c2.449-2.286,5.878-4.898,5.715-7.021
				c-0.163-2.123-1.796-3.755-1.796-3.755s-0.816-1.959-1.633-2.123c-0.816-0.163-4.572-0.163-4.572-0.163l-4.245-22.205
				L111.135,243.371z"/>
			<path style="fill:#FFFFFF;stroke:#263238;stroke-linejoin:round;stroke-miterlimit:10;" d="M124.524,279.291l2.122,1.143
				c0,0-2.612,3.919-1.633,4.735c0.98,0.816,3.919-5.061,4.245-5.878c0.326-0.816-0.49-1.633-0.49-1.633"/>
			
				<line style="fill:#FFFFFF;stroke:#263238;stroke-linejoin:round;stroke-miterlimit:10;" x1="125.83" y1="280.761" x2="121.585" y2="284.516"/>
		</g>
		<g>
			<path style="fill:#FFFFFF;stroke:#263238;stroke-linejoin:round;stroke-miterlimit:10;" d="M132.801,363.113l-10.594,9.181
				c0,0,0.706,1.883,2.119,2.59c1.412,0.706,7.533,6.592,9.417,7.769c1.883,1.177,6.356,3.531,11.3,3.531
				c4.944,0,5.885-1.883,5.885-2.59c0-0.706-9.652-7.063-9.652-7.063l-2.119-8.475L132.801,363.113z"/>
			<path style="fill:#FFFFFF;stroke:#263238;stroke-linejoin:round;stroke-miterlimit:10;" d="M124.338,370.448l-2.131,1.847
				c0,0,0.706,1.883,2.119,2.59c1.413,0.706,7.533,6.592,9.417,7.769s6.356,3.531,11.3,3.531c2.895,0,4.411-0.646,5.176-1.323
				c-2.908-0.607-5.428-1.059-6.488-1.059c-3.241,0-6.807-2.917-6.807-2.917L124.338,370.448z"/>
			<path style="fill:#263238;stroke:#263238;stroke-linejoin:round;stroke-miterlimit:10;" d="M129.422,271.454
				c0,0-2.303,11.986-0.232,15.783c2.071,3.797,5.523,8.284,5.523,8.284l29.339,37.623l-31.755,30.72l7.332,7.489
				c0,0,39.956-33.031,42.373-34.412c2.416-1.381,0-13.116-0.69-14.152c-0.69-1.035-14.485-31.204-14.485-31.204l1.292-13.437
				L129.422,271.454z"/>
			<path style="fill:#FFFFFF;stroke:#263238;stroke-linejoin:round;stroke-miterlimit:10;" d="M150.7,379.427
				c0,0,7.131,7.941,8.265,8.752c1.134,0.81,9.238,5.51,9.238,5.51s-0.162,1.134-0.81,1.297c-0.648,0.162-16.693,0.324-17.827,0.162
				c-1.135-0.162-10.534-5.186-11.669-5.672c-1.134-0.486-4.7-2.917-4.7-2.917l7.131-11.507L150.7,379.427z"/>
			<path style="fill:#263238;stroke:#263238;stroke-linejoin:round;stroke-miterlimit:10;" d="M138.626,293.044l6.807,4.862
				l9.724,31.846l-16.531,46.676l14.381,4.004l0.934-5.22l2.863-5.481c0,0,17.558-38.521,17.801-41.681
				c0.243-3.16-7.779-36.465-7.779-36.465l-1.459-14.1l-25.283-2.431"/>
			<path style="fill:#FFFFFF;stroke:#263238;stroke-linejoin:round;stroke-miterlimit:10;" d="M167.393,394.985
				c0.648-0.162,0.81-1.296,0.81-1.296s-0.579-0.336-1.438-0.837c-6.161-0.477-16.519-1.27-17.2-1.27
				c-0.791,0-10.76-5.906-14.456-8.111l-1.913,3.087c0,0,3.565,2.431,4.7,2.917s10.534,5.51,11.669,5.672
				C150.7,395.309,166.745,395.147,167.393,394.985z"/>
		</g>
		<g>
			<path style="fill:#FFFFFF;stroke:#263238;stroke-linejoin:round;stroke-miterlimit:10;" d="M151.79,216.431
				c0,0-16.164,1.633-16.327,2.286c-0.163,0.653-21.552,23.838-21.552,23.838l5.715,10.939l13.715-5.878l-3.919,23.838
				c0,0-2.612,0.98,2.122,3.429c4.735,2.449,15.674,5.551,23.185,5.551c7.511,0,11.756,0,13.388-2.286
				c1.633-2.286,1.469-3.592,1.633-4.898c0.163-1.306,7.837-21.226,7.837-21.226s17.144,22.042,17.797,22.532
				c0.653,0.49,3.755,0.98,6.368-2.122c2.612-3.102,2.123-10.286,2.123-10.286s-9.633-17.47-10.123-19.919
				c-0.49-2.449-1.959-9.96-2.939-11.919c-0.98-1.959-2.286-2.123-4.898-3.429c-2.612-1.306-9.796-3.755-9.796-3.755L151.79,216.431
				z"/>
			<polyline style="fill:none;stroke:#263238;stroke-linejoin:round;stroke-miterlimit:10;" points="137.096,223.615 
				133.34,247.616 134.973,224.921 			"/>
			
				<line style="fill:none;stroke:#263238;stroke-linejoin:round;stroke-miterlimit:10;" x1="132.851" y1="246.963" x2="128.606" y2="236.514"/>
			
				<line style="fill:none;stroke:#263238;stroke-linejoin:round;stroke-miterlimit:10;" x1="122.307" y1="240.97" x2="119.789" y2="239.453"/>
			
				<line style="fill:none;stroke:#263238;stroke-linejoin:round;stroke-miterlimit:10;" x1="133.34" y1="247.616" x2="124.442" y2="242.256"/>
			
				<line style="fill:none;stroke:#263238;stroke-linejoin:round;stroke-miterlimit:10;" x1="185.227" y1="240.142" x2="189.343" y2="233.738"/>
			
				<line style="fill:none;stroke:#263238;stroke-linejoin:round;stroke-miterlimit:10;" x1="177.588" y1="252.025" x2="183.932" y2="242.155"/>
			
				<line style="fill:none;stroke:#263238;stroke-linejoin:round;stroke-miterlimit:10;" x1="189.946" y1="244.161" x2="191.792" y2="243.045"/>
			
				<line style="fill:none;stroke:#263238;stroke-linejoin:round;stroke-miterlimit:10;" x1="178.567" y1="251.045" x2="187.719" y2="245.508"/>
			
				<line style="fill:none;stroke:#263238;stroke-linejoin:round;stroke-miterlimit:10;" x1="177.751" y1="250.882" x2="193.752" y2="248.106"/>
			
				<line style="fill:none;stroke:#263238;stroke-linejoin:round;stroke-miterlimit:10;" x1="131.544" y1="272.107" x2="147.545" y2="268.189"/>
			<path style="fill:none;stroke:#263238;stroke-linejoin:round;stroke-miterlimit:10;" d="M158.46,262.742
				c1.117-0.456,2.124-0.928,2.963-1.41"/>
			<path style="fill:none;stroke:#263238;stroke-linejoin:round;stroke-miterlimit:10;" d="M138.239,268.189
				c0,0,10.193-1.899,17.757-4.523"/>
		</g>
		<path style="fill:#FFFFFF;stroke:#263238;stroke-linejoin:round;stroke-miterlimit:10;" d="M203.711,261.005
			c0,0-0.163,3.592-3.429,7.021c-3.266,3.429-7.021,3.918-7.021,3.918s1.469,5.551,3.266,5.551c1.796,0,4.898,0.98,7.674-2.776
			c2.776-3.755,3.429-10.123,2.612-11.756C205.997,261.331,205.507,260.515,203.711,261.005z"/>
		<path style="fill:#FFFFFF;stroke:#263238;stroke-linejoin:round;stroke-miterlimit:10;" d="M116.36,238.8
			c0,0,7.837,14.695,7.184,15.021c-0.653,0.327-3.429,2.776-4.408,2.939c-0.98,0.163-5.388-4.245-7.021-8s-2.122-5.225-1.633-5.878
			C110.972,242.228,115.381,238.8,116.36,238.8z"/>
	</g>
</g>
<g id="Clouds">
	<path style="fill:#FFFFFF;stroke:#000000;stroke-miterlimit:10;" d="M473.429,161.087c0.879-4.984,2.146-17.351-5.376-23.417
		c-9.552-7.703-16.33,6.162-24.649-4.622c-8.319-10.784-10.784-34.201-35.434-33.893c-24.649,0.308-26.498,14.173-26.498,18.795
		c0,4.622-7.395,8.011-8.935,8.011s-10.168-4.006-13.249,4.93c-3.081,8.935-0.992,14.104-5.888,14.293
		c-4.896,0.189-10.978-6.49-17.643-3.15c-6.665,3.339-6.665,10.426-9.438,12.891c-2.773,2.465-7.395-1.849-13.557,0.616
		c-3.734,1.494-4.86,3.888-5.173,5.546H473.429z"/>
	<path style="fill:#FFFFFF;stroke:#000000;stroke-miterlimit:10;" d="M203.665,64.46c0.531-3.014,1.298-10.494-3.252-14.163
		c-5.777-4.659-9.877,3.727-14.909-2.795c-5.032-6.522-6.523-20.686-21.431-20.5c-14.909,0.186-16.027,8.572-16.027,11.368
		c0,2.795-4.473,4.845-5.404,4.845c-0.932,0-6.15-2.423-8.014,2.982c-1.863,5.404-0.6,8.53-3.561,8.645
		c-2.961,0.114-6.64-3.925-10.671-1.905c-4.031,2.02-4.031,6.306-5.708,7.797c-1.677,1.491-4.473-1.118-8.2,0.373
		c-2.258,0.903-2.94,2.351-3.129,3.354H203.665z"/>
	<path style="fill:#FFFFFF;stroke:#000000;stroke-miterlimit:10;" d="M124.5,104.46c0.319-1.807,0.778-6.292-1.95-8.492
		c-3.464-2.793-5.922,2.235-8.939-1.676c-3.017-3.911-3.911-12.403-12.85-12.291c-8.939,0.112-9.609,5.14-9.609,6.816
		c0,1.676-2.682,2.905-3.24,2.905s-3.687-1.453-4.805,1.788c-1.117,3.24-0.36,5.115-2.135,5.183
		c-1.776,0.068-3.981-2.353-6.398-1.142c-2.417,1.211-2.417,3.781-3.423,4.675c-1.006,0.894-2.682-0.67-4.916,0.223
		c-1.354,0.542-1.763,1.41-1.876,2.011H124.5z"/>
	<path style="fill:#FFFFFF;stroke:#000000;stroke-miterlimit:10;" d="M439.5,278.46c0.319-1.807,0.778-6.292-1.95-8.492
		c-3.464-2.793-5.922,2.235-8.939-1.676c-3.017-3.911-3.911-12.403-12.85-12.291c-8.939,0.112-9.609,5.14-9.609,6.816
		c0,1.676-2.682,2.905-3.24,2.905c-0.559,0-3.687-1.453-4.805,1.788c-1.117,3.24-0.36,5.115-2.135,5.183
		c-1.776,0.069-3.981-2.353-6.398-1.142c-2.417,1.211-2.417,3.781-3.423,4.675c-1.006,0.894-2.682-0.67-4.916,0.223
		c-1.354,0.542-1.762,1.41-1.876,2.011H439.5z"/>
	<path style="fill:#FFFFFF;stroke:#000000;stroke-miterlimit:10;" d="M411.361,110.612c0.278-1.578,0.68-5.494-1.702-7.415
		c-3.025-2.439-5.171,1.951-7.806-1.464c-2.634-3.415-3.415-10.83-11.22-10.732c-7.805,0.098-8.391,4.488-8.391,5.952
		s-2.342,2.537-2.829,2.537c-0.488,0-3.22-1.268-4.195,1.561c-0.976,2.829-0.314,4.466-1.865,4.526
		c-1.55,0.06-3.476-2.055-5.587-0.998c-2.111,1.057-2.111,3.302-2.989,4.082c-0.878,0.781-2.342-0.585-4.293,0.195
		c-1.182,0.473-1.539,1.231-1.638,1.756H411.361z"/>
</g>
</svg>
